<svg xmlns="http://www.w3.org/2000/svg" viewBox="-15.2 -169.2 2555.6 224.6" width="2555.6" height="224.6" role="img" aria-label="GPU compute, accelerated"><title>GPU compute, accelerated</title><path d="M73 3.20L73 3.20Q52.80 3.20 38.40-6.30Q24-15.80 16.40-32.50Q8.80-49.20 8.80-70.80L8.80-70.80Q8.80-92.20 16.60-109Q24.40-125.80 38.90-135.50Q53.40-145.20 73.80-145.20L73.80-145.20Q91.20-145.20 103.30-139Q115.40-132.80 122.50-122Q129.60-111.20 132.40-97.40L132.40-97.40L109.80-96.20Q107.40-109.20 99-117.30Q90.60-125.40 73.80-125.40L73.80-125.40Q59-125.40 49.60-118Q40.20-110.60 35.70-98.20Q31.20-85.80 31.20-70.80L31.20-70.80Q31.20-55.20 35.70-43Q40.20-30.80 49.70-23.70Q59.20-16.60 74-16.60L74-16.60Q85.60-16.60 94-21.60Q102.40-26.60 107.10-35.20Q111.80-43.80 112.20-54.20L112.20-54.20L74.20-54.20L74.20-72.40L132.80-72.40L132.80 0L118 0L117-22.60Q111.60-11 99.60-3.90Q87.60 3.20 73 3.20ZM181.40 0L159.80 0L159.80-142L212.80-142Q237-142 250.70-130.30Q264.40-118.60 264.40-97.80L264.40-97.80Q264.40-77 250.70-65.10Q237-53.20 212.80-53.20L212.80-53.20L181.40-53.20L181.40 0ZM181.40-122.20L181.40-72.80L212.20-72.80Q242-72.80 242-97.80L242-97.80Q242-122.20 212.20-122.20L212.20-122.20L181.40-122.20ZM343.40 3.20L343.40 3.20Q326.40 3.20 314-3.30Q301.60-9.80 294.90-21.80Q288.20-33.80 288.20-50.20L288.20-50.20L288.20-142L309.80-142L309.80-50.20Q309.80-34 318.60-25.30Q327.40-16.60 343.40-16.60L343.40-16.60Q359.40-16.60 368.20-25.30Q377-34 377-50.20L377-50.20L377-142L398.60-142L398.60-50.20Q398.60-33.80 391.90-21.80Q385.20-9.80 372.80-3.30Q360.40 3.20 343.40 3.20ZM520.20 2.40L520.20 2.40Q505 2.40 493.60-4.50Q482.20-11.40 476-23.90Q469.80-36.40 469.80-53.20L469.80-53.20Q469.80-70 476-82.50Q482.20-95 493.60-101.90Q505-108.80 520.20-108.80L520.20-108.80Q539.60-108.80 552.40-98.70Q565.20-88.60 567.80-70.20L567.80-70.20L545.60-69Q544-79.40 537.20-84.90Q530.40-90.40 520.20-90.40L520.20-90.40Q506.80-90.40 499.30-80.50Q491.80-70.60 491.80-53.20L491.80-53.20Q491.80-35.60 499.30-25.80Q506.80-16 520.20-16L520.20-16Q530.40-16 537.20-21.70Q544-27.40 545.60-39L545.60-39L567.80-37.80Q565.20-19.40 552.50-8.50Q539.80 2.40 520.20 2.40ZM632.80 2.40L632.80 2.40Q617.60 2.40 606.20-4.50Q594.80-11.40 588.60-23.80Q582.40-36.20 582.40-53.20L582.40-53.20Q582.40-70.20 588.60-82.60Q594.80-95 606.20-101.90Q617.60-108.80 632.80-108.80L632.80-108.80Q648-108.80 659.40-101.90Q670.80-95 677-82.60Q683.20-70.20 683.20-53.20L683.20-53.20Q683.20-36.20 677-23.80Q670.80-11.40 659.40-4.50Q648 2.40 632.80 2.40ZM632.80-16L632.80-16Q646.40-16 653.80-25.80Q661.20-35.60 661.20-53.20L661.20-53.20Q661.20-70.60 653.80-80.50Q646.40-90.40 632.80-90.40L632.80-90.40Q619.40-90.40 611.90-80.50Q604.40-70.60 604.40-53.20L604.40-53.20Q604.40-35.60 611.90-25.80Q619.40-16 632.80-16ZM727.80 0L706.60 0L706.60-106.40L726-106.40L726.40-88.20Q730.40-97.80 738.20-103.30Q746-108.80 756-108.80L756-108.80Q767.80-108.80 775.90-103Q784-97.20 787.40-86.80L787.40-86.80Q791-97.40 798.90-103.10Q806.80-108.80 818.20-108.80L818.20-108.80Q835-108.80 844.20-98.30Q853.40-87.80 853.40-68.40L853.40-68.40L853.40 0L832.20 0L832.20-63.20Q832.20-91 812-91L812-91Q802-91 796-83.40Q790-75.80 790-62.40L790-62.40L790 0L769.80 0L769.80-62.40Q769.80-75.80 765.30-83.40Q760.80-91 750-91L750-91Q739.80-91 733.80-83.40Q727.80-75.80 727.80-62.40L727.80-62.40L727.80 0ZM904.80 30L883.60 30L883.60-106.40L903.60-106.40L904-90.20Q908.60-99.40 917.10-104.10Q925.60-108.80 936.20-108.80L936.20-108.80Q951.80-108.80 961.90-101.10Q972-93.40 976.90-80.80Q981.80-68.20 981.80-53.20L981.80-53.20Q981.80-38.20 976.90-25.60Q972-13 961.90-5.30Q951.80 2.40 936.20 2.40L936.20 2.40Q926 2.40 917.60-2.10Q909.20-6.60 904.80-14.40L904.80-14.40L904.80 30ZM932.40-16L932.40-16Q945.20-16 952.50-25.80Q959.80-35.60 959.80-53.20L959.80-53.20Q959.80-70.80 952.50-80.60Q945.20-90.40 932.40-90.40L932.40-90.40Q919.60-90.40 912.20-81Q904.80-71.60 904.80-53.20L904.80-53.20Q904.80-34.80 912.20-25.40Q919.60-16 932.40-16ZM1040.20 2.40L1040.20 2.40Q1024 2.40 1014.60-8.20Q1005.20-18.80 1005.20-38L1005.20-38L1005.20-106.40L1026.40-106.40L1026.40-43.40Q1026.40-29 1031.40-22.20Q1036.40-15.40 1046.60-15.40L1046.60-15.40Q1058.20-15.40 1064.70-22.90Q1071.20-30.40 1071.20-44L1071.20-44L1071.20-106.40L1092.40-106.40L1092.40 0L1072.60 0L1072.40-17.40Q1063.80 2.40 1040.20 2.40ZM1183 0L1163.20 0Q1148 0 1140.80-6.90Q1133.60-13.80 1133.60-28.80L1133.60-28.80L1133.60-89L1117.40-89L1117.40-106.40L1133.60-106.40L1133.60-131.40L1154.80-131.40L1154.80-106.40L1183-106.40L1183-89L1154.80-89L1154.80-30.40Q1154.80-23 1158-20.20Q1161.20-17.40 1167.80-17.40L1167.80-17.40L1183-17.40L1183 0ZM1248.20 2.40L1248.20 2.40Q1232.60 2.40 1221.30-4.50Q1210-11.40 1203.90-23.90Q1197.80-36.40 1197.80-53.20L1197.80-53.20Q1197.80-70 1203.90-82.50Q1210-95 1221.20-101.90Q1232.40-108.80 1247.60-108.80L1247.60-108.80Q1262-108.80 1273-102.10Q1284-95.40 1290.10-82.80Q1296.20-70.20 1296.20-52.40L1296.20-52.40L1296.20-47L1219.80-47Q1220.60-31.40 1228.10-23.60Q1235.60-15.80 1248.40-15.80L1248.40-15.80Q1257.80-15.80 1263.90-20.10Q1270-24.40 1272.60-32L1272.60-32L1294.60-30.60Q1290.40-15.60 1278.10-6.60Q1265.80 2.40 1248.20 2.40ZM1219.80-63L1219.80-63L1273.80-63Q1272.80-77.20 1265.60-84Q1258.40-90.80 1247.60-90.80L1247.60-90.80Q1236.20-90.80 1228.90-83.70Q1221.60-76.60 1219.80-63ZM1326.20 31.40L1314.00 31.40L1324.00 0L1313.00 0L1313.00-25.20L1338.80-25.20L1338.80-3L1326.20 31.40ZM1440.60 2.40L1440.60 2.40Q1424 2.40 1414.10-5.20Q1404.20-12.80 1404.20-26.60L1404.20-26.60Q1404.20-40.20 1412.50-48Q1420.80-55.80 1438.20-59.20L1438.20-59.20L1474.80-66.20Q1474.80-90.80 1451.80-90.80L1451.80-90.80Q1441.60-90.80 1435.80-86.20Q1430-81.60 1427.80-73L1427.80-73L1406-74.40Q1409-90.40 1420.90-99.60Q1432.80-108.80 1451.80-108.80L1451.80-108.80Q1473.40-108.80 1484.70-97.30Q1496-85.80 1496-65L1496-65L1496-23.60Q1496-19.80 1497.30-18.30Q1498.60-16.80 1501.60-16.80L1501.60-16.80L1505.40-16.80L1505.40 0Q1502.60 0.60 1497.60 0.60L1497.60 0.60Q1488.60 0.60 1483.30-3.10Q1478-6.80 1476.60-15.80L1476.60-15.80L1476.60-16.40Q1472.60-8 1462.80-2.80Q1453 2.40 1440.60 2.40ZM1444-14.40L1444-14.40Q1458.40-14.40 1466.60-22.60Q1474.80-30.80 1474.80-43.40L1474.80-43.40L1474.80-50.20L1443.60-44.20Q1434-42.40 1430.10-38.50Q1426.20-34.60 1426.20-28.60L1426.20-28.60Q1426.20-21.80 1430.90-18.10Q1435.60-14.40 1444-14.40ZM1567.60 2.40L1567.60 2.40Q1552.40 2.40 1541-4.50Q1529.60-11.40 1523.40-23.90Q1517.20-36.40 1517.20-53.20L1517.20-53.20Q1517.20-70 1523.40-82.50Q1529.60-95 1541-101.90Q1552.40-108.80 1567.60-108.80L1567.60-108.80Q1587-108.80 1599.80-98.70Q1612.60-88.60 1615.20-70.20L1615.20-70.20L1593-69Q1591.40-79.40 1584.60-84.90Q1577.80-90.40 1567.60-90.40L1567.60-90.40Q1554.20-90.40 1546.70-80.50Q1539.20-70.60 1539.20-53.20L1539.20-53.20Q1539.20-35.60 1546.70-25.80Q1554.20-16 1567.60-16L1567.60-16Q1577.80-16 1584.60-21.70Q1591.40-27.40 1593-39L1593-39L1615.20-37.80Q1612.60-19.40 1599.90-8.50Q1587.20 2.40 1567.60 2.40ZM1680.20 2.40L1680.20 2.40Q1665.00 2.40 1653.60-4.50Q1642.20-11.40 1636.00-23.90Q1629.80-36.40 1629.80-53.20L1629.80-53.20Q1629.80-70 1636.00-82.50Q1642.20-95 1653.60-101.90Q1665.00-108.80 1680.20-108.80L1680.20-108.80Q1699.60-108.80 1712.40-98.70Q1725.20-88.60 1727.80-70.20L1727.80-70.20L1705.60-69Q1704.00-79.40 1697.20-84.90Q1690.40-90.40 1680.20-90.40L1680.20-90.40Q1666.80-90.40 1659.30-80.50Q1651.80-70.60 1651.80-53.20L1651.80-53.20Q1651.80-35.60 1659.30-25.80Q1666.80-16 1680.20-16L1680.20-16Q1690.40-16 1697.20-21.70Q1704.00-27.40 1705.60-39L1705.60-39L1727.80-37.80Q1725.20-19.40 1712.50-8.50Q1699.80 2.40 1680.20 2.40ZM1792.80 2.40L1792.80 2.40Q1777.20 2.40 1765.90-4.50Q1754.60-11.40 1748.50-23.90Q1742.40-36.40 1742.40-53.20L1742.40-53.20Q1742.40-70 1748.50-82.50Q1754.60-95 1765.80-101.90Q1777.00-108.80 1792.20-108.80L1792.20-108.80Q1806.60-108.80 1817.60-102.10Q1828.60-95.40 1834.70-82.80Q1840.80-70.20 1840.80-52.40L1840.80-52.40L1840.80-47L1764.40-47Q1765.20-31.40 1772.70-23.60Q1780.20-15.80 1793.00-15.80L1793.00-15.80Q1802.40-15.80 1808.50-20.10Q1814.60-24.40 1817.20-32L1817.20-32L1839.20-30.60Q1835.00-15.60 1822.70-6.60Q1810.40 2.40 1792.80 2.40ZM1764.40-63L1764.40-63L1818.40-63Q1817.40-77.20 1810.20-84Q1803.00-90.80 1792.20-90.80L1792.20-90.80Q1780.80-90.80 1773.50-83.70Q1766.20-76.60 1764.40-63ZM1901.20 0L1887.40 0Q1876.80 0 1870.50-5.40Q1864.20-10.80 1864.20-22.60L1864.20-22.60L1864.20-142L1885.40-142L1885.40-24.60Q1885.40-17.40 1892.80-17.40L1892.80-17.40L1901.20-17.40L1901.20 0ZM1964.40 2.40L1964.40 2.40Q1948.80 2.40 1937.50-4.50Q1926.20-11.40 1920.10-23.90Q1914-36.40 1914-53.20L1914-53.20Q1914-70 1920.10-82.50Q1926.20-95 1937.40-101.90Q1948.60-108.80 1963.80-108.80L1963.80-108.80Q1978.20-108.80 1989.20-102.10Q2000.20-95.40 2006.30-82.80Q2012.40-70.20 2012.40-52.40L2012.40-52.40L2012.40-47L1936-47Q1936.80-31.40 1944.30-23.60Q1951.80-15.80 1964.60-15.80L1964.60-15.80Q1974-15.80 1980.10-20.10Q1986.20-24.40 1988.80-32L1988.80-32L2010.80-30.60Q2006.60-15.60 1994.30-6.60Q1982 2.40 1964.40 2.40ZM1936-63L1936-63L1990-63Q1989-77.20 1981.80-84Q1974.60-90.80 1963.80-90.80L1963.80-90.80Q1952.40-90.80 1945.10-83.70Q1937.80-76.60 1936-63ZM2057 0L2035.80 0L2035.80-106.40L2055.20-106.40L2055.80-86.20Q2058.80-96.60 2065.10-101.50Q2071.40-106.40 2081.20-106.40L2081.20-106.40L2091.40-106.40L2091.40-87.40L2081.20-87.40Q2069-87.40 2063-81.40Q2057-75.40 2057-62.80L2057-62.80L2057 0ZM2144.40 2.40L2144.40 2.40Q2127.80 2.40 2117.90-5.20Q2108-12.80 2108-26.60L2108-26.60Q2108-40.20 2116.30-48Q2124.60-55.80 2142-59.20L2142-59.20L2178.60-66.20Q2178.60-90.80 2155.60-90.80L2155.60-90.80Q2145.40-90.80 2139.60-86.20Q2133.80-81.60 2131.60-73L2131.60-73L2109.80-74.40Q2112.80-90.40 2124.70-99.60Q2136.60-108.80 2155.60-108.80L2155.60-108.80Q2177.20-108.80 2188.50-97.30Q2199.80-85.80 2199.80-65L2199.80-65L2199.80-23.60Q2199.80-19.80 2201.10-18.30Q2202.40-16.80 2205.40-16.80L2205.40-16.80L2209.20-16.80L2209.20 0Q2206.40 0.60 2201.40 0.60L2201.40 0.60Q2192.40 0.60 2187.10-3.10Q2181.80-6.80 2180.40-15.80L2180.40-15.80L2180.40-16.40Q2176.40-8 2166.60-2.80Q2156.80 2.40 2144.40 2.40ZM2147.80-14.40L2147.80-14.40Q2162.20-14.40 2170.40-22.60Q2178.60-30.80 2178.60-43.40L2178.60-43.40L2178.60-50.20L2147.40-44.20Q2137.80-42.40 2133.90-38.50Q2130-34.60 2130-28.60L2130-28.60Q2130-21.80 2134.70-18.10Q2139.40-14.40 2147.80-14.40ZM2288.20 0L2268.40 0Q2253.20 0 2246-6.90Q2238.80-13.80 2238.80-28.80L2238.80-28.80L2238.80-89L2222.60-89L2222.60-106.40L2238.80-106.40L2238.80-131.40L2260-131.40L2260-106.40L2288.20-106.40L2288.20-89L2260-89L2260-30.40Q2260-23 2263.20-20.20Q2266.40-17.40 2273-17.40L2273-17.40L2288.20-17.40L2288.20 0ZM2353.40 2.40L2353.40 2.40Q2337.80 2.40 2326.50-4.50Q2315.20-11.40 2309.10-23.90Q2303-36.40 2303-53.20L2303-53.20Q2303-70 2309.10-82.50Q2315.20-95 2326.40-101.90Q2337.60-108.80 2352.80-108.80L2352.80-108.80Q2367.20-108.80 2378.20-102.10Q2389.20-95.40 2395.30-82.80Q2401.40-70.20 2401.40-52.40L2401.40-52.40L2401.40-47L2325-47Q2325.80-31.40 2333.30-23.60Q2340.80-15.80 2353.60-15.80L2353.60-15.80Q2363-15.80 2369.10-20.10Q2375.20-24.40 2377.80-32L2377.80-32L2399.80-30.60Q2395.60-15.60 2383.30-6.60Q2371 2.40 2353.40 2.40ZM2325-63L2325-63L2379-63Q2378-77.20 2370.80-84Q2363.60-90.80 2352.80-90.80L2352.80-90.80Q2341.40-90.80 2334.10-83.70Q2326.80-76.60 2325-63ZM2462.60 2.40L2462.60 2.40Q2449.00 2.40 2439.00-4.40Q2429.00-11.20 2423.60-23.70Q2418.20-36.20 2418.20-53.20L2418.20-53.20Q2418.20-70.20 2423.60-82.70Q2429.00-95.20 2439.00-102Q2449.00-108.80 2462.60-108.80L2462.60-108.80Q2473.60-108.80 2482.20-104.20Q2490.80-99.60 2495.20-91.40L2495.20-91.40L2495.20-142L2516.40-142L2516.40 0L2496.60 0L2496.00-16Q2491.60-7.20 2482.70-2.40Q2473.80 2.40 2462.60 2.40ZM2468.20-16L2468.20-16Q2481.20-16 2488.20-25.80Q2495.20-35.60 2495.20-53.20L2495.20-53.20Q2495.20-71 2488.20-80.70Q2481.20-90.40 2468.20-90.40L2468.20-90.40Q2455.40-90.40 2447.80-80.50Q2440.20-70.60 2440.20-53.20L2440.20-53.20Q2440.20-36.20 2447.80-26.10Q2455.40-16 2468.20-16Z" fill="#ffffff"/></svg>
