<svg xmlns="http://www.w3.org/2000/svg" viewBox="0 0 640 200" fill="none">
  <defs>
    <linearGradient id="brand" x1="0%" y1="0%" x2="100%" y2="100%">
      <stop offset="0%" stop-color="#22e0ff"/>
      <stop offset="48%" stop-color="#7c3aed"/>
      <stop offset="100%" stop-color="#f43f5e"/>
    </linearGradient>
    <linearGradient id="brandSoft" x1="0%" y1="100%" x2="100%" y2="0%">
      <stop offset="0%" stop-color="#22e0ff" stop-opacity="0.16"/>
      <stop offset="100%" stop-color="#f43f5e" stop-opacity="0.05"/>
    </linearGradient>
    <radialGradient id="spot" cx="50%" cy="38%" r="70%">
      <stop offset="0%" stop-color="#1b2740"/>
      <stop offset="100%" stop-color="#070b15"/>
    </radialGradient>
    <linearGradient id="glass" x1="0%" y1="0%" x2="0%" y2="100%">
      <stop offset="0%" stop-color="#ffffff" stop-opacity="0.14"/>
      <stop offset="22%" stop-color="#ffffff" stop-opacity="0.04"/>
      <stop offset="100%" stop-color="#ffffff" stop-opacity="0"/>
    </linearGradient>
    <linearGradient id="pcb" x1="0%" y1="0%" x2="0%" y2="100%">
      <stop offset="0%" stop-color="#16233c"/>
      <stop offset="100%" stop-color="#0a1322"/>
    </linearGradient>
    <radialGradient id="core" cx="50%" cy="42%" r="62%">
      <stop offset="0%" stop-color="#5eeaff"/>
      <stop offset="40%" stop-color="#2a8cff"/>
      <stop offset="100%" stop-color="#0b1b3a"/>
    </radialGradient>
    <linearGradient id="gold" x1="0%" y1="0%" x2="0%" y2="100%">
      <stop offset="0%" stop-color="#fde68a"/>
      <stop offset="100%" stop-color="#b8862f"/>
    </linearGradient>
    <linearGradient id="emerald" x1="0%" y1="0%" x2="100%" y2="0%">
      <stop offset="0%" stop-color="#34d399"/>
      <stop offset="100%" stop-color="#10b981"/>
    </linearGradient>
    <filter id="glow" x="-60%" y="-60%" width="220%" height="220%">
      <feGaussianBlur stdDeviation="3.2" result="b"/>
      <feMerge><feMergeNode in="b"/><feMergeNode in="SourceGraphic"/></feMerge>
    </filter>
    <filter id="bloom" x="-120%" y="-120%" width="340%" height="340%">
      <feGaussianBlur stdDeviation="22"/>
    </filter>
    <filter id="cardShadow" x="-30%" y="-30%" width="160%" height="160%">
      <feDropShadow dx="0" dy="10" stdDeviation="14" flood-color="#000000" flood-opacity="0.45"/>
    </filter>
    <pattern id="grid" width="22" height="22" patternUnits="userSpaceOnUse">
      <path d="M22 0H0V22" fill="none" stroke="#22e0ff" stroke-opacity="0.06" stroke-width="1"/>
    </pattern>
</defs>
  <rect width="640" height="200" rx="24" fill="url(#spot)"/>
  <rect width="640" height="200" rx="24" fill="url(#grid)"/>
  <circle cx="540" cy="56" r="70" fill="#10b981" filter="url(#bloom)" opacity="0.12"/>
  <!-- energy flow -->
  <path d="M150,100 H270 M370,100 H490" stroke="url(#brand)" stroke-width="2.5" stroke-dasharray="2 10" stroke-linecap="round" opacity="0.6" filter="url(#glow)"/>
  <!-- node 1: pick a card -->
  <g transform="translate(96,100)">
    <circle r="46" fill="#0c1526" stroke="url(#brand)" stroke-width="1.5"/>
    <circle r="46" fill="url(#glass)"/>
    <rect x="-26" y="-17" width="52" height="34" rx="6" fill="url(#pcb)"/>
    <rect x="-26" y="-17" width="52" height="34" rx="6" fill="url(#core)" opacity="0.75" stroke="#7cf2ff" stroke-opacity="0.4"/>
    <rect x="-26" y="12" width="52" height="5" rx="2" fill="url(#gold)" opacity="0.85"/>
  </g>
  <!-- node 2: provision -->
  <g transform="translate(320,100)" filter="url(#glow)">
    <circle r="54" fill="#0c1526" stroke="url(#brand)" stroke-width="2"/>
    <circle r="54" fill="url(#glass)"/>
    <g stroke="url(#brand)" stroke-width="3" fill="none" stroke-linecap="round">
      <circle r="18"/>
      <path d="M0,-30 V-22 M0,30 V22 M-30,0 H-22 M30,0 H22 M-21,-21 l5,5 M21,21 l-5,-5 M21,-21 l-5,5 M-21,21 l5,-5"/>
    </g>
    <path d="M-6,-9 L8,-1 L-6,7 Z" fill="#eafcff"/>
  </g>
  <!-- node 3: live pulse -->
  <g transform="translate(544,100)">
    <circle r="46" fill="#0c1526" stroke="url(#emerald)" stroke-width="1.5"/>
    <circle r="46" fill="url(#glass)"/>
    <path d="M-28,0 H-12 L-4,-16 L6,16 L14,-6 L20,0 H28" stroke="url(#emerald)" stroke-width="2.5" fill="none" stroke-linecap="round" stroke-linejoin="round" filter="url(#glow)"/>
    <circle cx="34" cy="-30" r="6" fill="#34d399" filter="url(#glow)"/>
  </g>
</svg>
