<svg xmlns="http://www.w3.org/2000/svg" viewBox="0 0 480 320" fill="none">
  <defs>
    <linearGradient id="g" x1="0%" y1="0%" x2="100%" y2="100%">
      <stop offset="0%" stop-color="#00d4ff"/>
      <stop offset="45%" stop-color="#7c3aed"/>
      <stop offset="100%" stop-color="#dc2626"/>
    </linearGradient>
    <linearGradient id="gSoft" x1="0%" y1="100%" x2="100%" y2="0%">
      <stop offset="0%" stop-color="#00d4ff" stop-opacity="0.2"/>
      <stop offset="100%" stop-color="#dc2626" stop-opacity="0.08"/>
    </linearGradient>
    <linearGradient id="chip" x1="0%" y1="0%" x2="0%" y2="100%">
      <stop offset="0%" stop-color="#1e293b"/>
      <stop offset="100%" stop-color="#0f172a"/>
    </linearGradient>
    <filter id="glow" x="-50%" y="-50%" width="200%" height="200%">
      <feGaussianBlur stdDeviation="6" result="b"/>
      <feMerge><feMergeNode in="b"/><feMergeNode in="SourceGraphic"/></feMerge>
    </filter>
    <filter id="softGlow" x="-80%" y="-80%" width="260%" height="260%">
      <feGaussianBlur stdDeviation="18"/>
    </filter>
</defs>
  <rect width="480" height="320" rx="28" fill="#0a0e1a"/>
  <rect width="480" height="320" rx="28" fill="url(#gSoft)"/>
  
  <g opacity="0.55">
    <ellipse cx="240" cy="140" rx="200" ry="80" fill="none" stroke="url(#g)" stroke-width="1" opacity="0.25"/>
    <ellipse cx="240" cy="140" rx="260" ry="110" fill="none" stroke="url(#g)" stroke-width="0.75" opacity="0.15"/>
    <ellipse cx="240" cy="140" rx="320" ry="140" fill="none" stroke="url(#g)" stroke-width="0.5" opacity="0.08"/>
  </g>
  <circle cx="420" cy="48" r="64" fill="#00d4ff" filter="url(#softGlow)" opacity="0.12"/>
  <circle cx="56" cy="232" r="48" fill="#7c3aed" filter="url(#softGlow)" opacity="0.14"/>

  
  <g filter="url(#glow)">
    <rect x="168" y="88" width="144" height="104" rx="12" fill="url(#chip)" stroke="url(#g)" stroke-width="1.5" opacity="0.95"/>
    <rect x="180" y="100" width="120" height="80" rx="6" fill="#0a0e1a" stroke="#334155" stroke-width="0.75"/>
    <path d="M168,116 H152 M168,136 H148 M168,156 H152 M168,176 H148" stroke="#00d4ff" stroke-opacity="0.35" stroke-width="2" stroke-linecap="round"/>
    <path d="M312,116 H328 M312,136 H332 M312,156 H328 M312,176 H332" stroke="#dc2626" stroke-opacity="0.35" stroke-width="2" stroke-linecap="round"/>
    <circle cx="240" cy="140" r="22" fill="url(#g)" opacity="0.25"/>
    <path d="M228,140 L240,128 L252,140 L240,152 Z" fill="url(#g)" opacity="0.9"/>
  </g>

</svg>
