<svg xmlns="http://www.w3.org/2000/svg" viewBox="0 0 200 120" fill="none">
  <defs>
    <linearGradient id="brand" x1="0%" y1="0%" x2="100%" y2="100%">
      <stop offset="0%" stop-color="#22e0ff"/>
      <stop offset="48%" stop-color="#7c3aed"/>
      <stop offset="100%" stop-color="#f43f5e"/>
    </linearGradient>
    <linearGradient id="brandSoft" x1="0%" y1="100%" x2="100%" y2="0%">
      <stop offset="0%" stop-color="#22e0ff" stop-opacity="0.16"/>
      <stop offset="100%" stop-color="#f43f5e" stop-opacity="0.05"/>
    </linearGradient>
    <radialGradient id="spot" cx="50%" cy="38%" r="70%">
      <stop offset="0%" stop-color="#1b2740"/>
      <stop offset="100%" stop-color="#070b15"/>
    </radialGradient>
    <linearGradient id="glass" x1="0%" y1="0%" x2="0%" y2="100%">
      <stop offset="0%" stop-color="#ffffff" stop-opacity="0.14"/>
      <stop offset="22%" stop-color="#ffffff" stop-opacity="0.04"/>
      <stop offset="100%" stop-color="#ffffff" stop-opacity="0"/>
    </linearGradient>
    <linearGradient id="pcb" x1="0%" y1="0%" x2="0%" y2="100%">
      <stop offset="0%" stop-color="#16233c"/>
      <stop offset="100%" stop-color="#0a1322"/>
    </linearGradient>
    <radialGradient id="core" cx="50%" cy="42%" r="62%">
      <stop offset="0%" stop-color="#5eeaff"/>
      <stop offset="40%" stop-color="#2a8cff"/>
      <stop offset="100%" stop-color="#0b1b3a"/>
    </radialGradient>
    <linearGradient id="gold" x1="0%" y1="0%" x2="0%" y2="100%">
      <stop offset="0%" stop-color="#fde68a"/>
      <stop offset="100%" stop-color="#b8862f"/>
    </linearGradient>
    <linearGradient id="emerald" x1="0%" y1="0%" x2="100%" y2="0%">
      <stop offset="0%" stop-color="#34d399"/>
      <stop offset="100%" stop-color="#10b981"/>
    </linearGradient>
    <filter id="glow" x="-60%" y="-60%" width="220%" height="220%">
      <feGaussianBlur stdDeviation="3.2" result="b"/>
      <feMerge><feMergeNode in="b"/><feMergeNode in="SourceGraphic"/></feMerge>
    </filter>
    <filter id="bloom" x="-120%" y="-120%" width="340%" height="340%">
      <feGaussianBlur stdDeviation="22"/>
    </filter>
    <filter id="cardShadow" x="-30%" y="-30%" width="160%" height="160%">
      <feDropShadow dx="0" dy="10" stdDeviation="14" flood-color="#000000" flood-opacity="0.45"/>
    </filter>
    <pattern id="grid" width="22" height="22" patternUnits="userSpaceOnUse">
      <path d="M22 0H0V22" fill="none" stroke="#22e0ff" stroke-opacity="0.06" stroke-width="1"/>
    </pattern>

    <linearGradient id="area" x1="0" y1="0" x2="0" y2="1">
      <stop offset="0%" stop-color="#22e0ff" stop-opacity="0.32"/>
      <stop offset="100%" stop-color="#22e0ff" stop-opacity="0"/>
    </linearGradient>
  </defs>
  <rect width="200" height="120" rx="16" fill="url(#spot)" stroke="#22324d" stroke-width="0.75"/>
  <rect width="200" height="120" rx="16" fill="url(#grid)"/>
  <g stroke="#22e0ff" stroke-opacity="0.18" stroke-width="0.75">
    <path d="M24,30 H176 M24,58 H176 M24,86 H176"/>
  </g>
  <path d="M24,40 C60,42 64,80 96,84 C128,88 140,96 176,98 L176,104 L24,104 Z" fill="url(#area)"/>
  <path d="M24,40 C60,42 64,80 96,84 C128,88 140,96 176,98" stroke="url(#brand)" stroke-width="2.6" stroke-linecap="round" fill="none" filter="url(#glow)"/>
  <circle cx="176" cy="98" r="4.5" fill="#34d399" filter="url(#glow)"/>
  <g fill="#7cf2ff" opacity="0.5">
    <circle cx="46" cy="34" r="2"/><circle cx="92" cy="30" r="2"/><circle cx="138" cy="36" r="2"/>
  </g>
</svg>
