<svg xmlns="http://www.w3.org/2000/svg" viewBox="0 0 128 128" fill="none">
  <defs>
    <linearGradient id="server-light-body" x1="28" y1="14" x2="97" y2="112" gradientUnits="userSpaceOnUse">
      <stop stop-color="#f8fafc"/>
      <stop offset=".56" stop-color="#e2e8f0"/>
      <stop offset="1" stop-color="#cbd5e1"/>
    </linearGradient>
    <linearGradient id="server-light-edge" x1="25" y1="18" x2="103" y2="110" gradientUnits="userSpaceOnUse">
      <stop stop-color="#0891b2"/>
      <stop offset=".62" stop-color="#7c3aed"/>
      <stop offset="1" stop-color="#059669"/>
    </linearGradient>
    <filter id="server-light-shadow" x="-20%" y="-20%" width="140%" height="145%" color-interpolation-filters="sRGB">
      <feDropShadow dx="0" dy="10" stdDeviation="12" flood-color="#0f172a" flood-opacity=".18"/>
      <feDropShadow dx="0" dy="0" stdDeviation="3" flood-color="#0891b2" flood-opacity=".2"/>
    </filter>
  </defs>
  <path d="M23 108h82l8 6H31l-8-6Z" fill="#0f172a" fill-opacity=".06"/>
  <path d="M29 20 64 10l36 10v86l-36 12-35-12V20Z" fill="url(#server-light-body)" stroke="url(#server-light-edge)" stroke-width="2.4" stroke-linejoin="round" filter="url(#server-light-shadow)"/>
  <path d="M64 10v108M29 20l35 10 36-10" stroke="#0f172a" stroke-opacity=".18" stroke-width="2"/>
  <path d="M38 33h18M38 44h18M38 58h18M38 69h18M38 83h18M38 94h18" stroke="#0891b2" stroke-width="4" stroke-linecap="round"/>
  <g fill="#059669">
    <circle cx="49" cy="35" r="2.5"/>
    <circle cx="54" cy="60" r="2.5"/>
    <circle cx="44" cy="85" r="2.5"/>
  </g>
  <g stroke="#7c3aed" stroke-width="2" stroke-linecap="round" opacity=".9">
    <path d="M75 34h12M75 45h16M75 80h15M75 92h10"/>
    <path d="M88 52 78 72h9l-4 19 17-27h-9l4-12h-7Z" fill="#0891b2" fill-opacity=".16" stroke="#0891b2"/>
  </g>
  <path d="M32 111c16 7 47 7 68 0" stroke="#0891b2" stroke-opacity=".34" stroke-width="2" stroke-linecap="round"/>
</svg>
