<svg xmlns="http://www.w3.org/2000/svg" viewBox="-10.0 -155.7 1026.0 170.0" width="1026" height="170"><defs><linearGradient id="lgd" x1="120" y1="48" x2="120" y2="192" gradientUnits="userSpaceOnUse"><stop offset="0" stop-color="#00d4ff"></stop><stop offset="1" stop-color="#7c3aed"></stop></linearGradient></defs><g transform="translate(-40.34,-207.06) scale(1.1364)"><path d="M56.5,54 L92.5,54 L122.9,102 L168.5,54 L204.5,54 L138,120 L183.6,186 L147.6,186 L117.2,138 L71.6,186 L35.5,186 L102,120 Z" fill="url(#lgd)"></path></g><g transform="translate(249.45,0)"><path d="M32.80 0L2.60 0L50.40-71.20L3-142L33.40-142L66.40-91L98.60-142L128.80-142L81.60-71.60L129.40 0L99.20 0L66-51.80L32.80 0ZM188.40 2.40L188.40 2.40Q172.40 2.40 160.60-4.50Q148.80-11.40 142.30-24Q135.80-36.60 135.80-53.40L135.80-53.40Q135.80-70.20 142.30-82.80Q148.80-95.40 160.60-102.30Q172.40-109.20 188.40-109.20L188.40-109.20Q208.80-109.20 222.30-98.60Q235.80-88 238.20-69L238.20-69L211.80-67.60Q210.20-77.80 203.90-83.10Q197.60-88.40 188.40-88.40L188.40-88.40Q176-88.40 169.20-79.20Q162.40-70 162.40-53.40L162.40-53.40Q162.40-36.80 169.20-27.60Q176-18.40 188.40-18.40L188.40-18.40Q197.80-18.40 204.10-23.80Q210.40-29.20 211.80-40.60L211.80-40.60L238.20-39.40Q236-20.20 222.50-8.90Q209 2.40 188.40 2.40ZM300.20 2.40L300.20 2.40Q284.20 2.40 272.40-4.50Q260.60-11.40 254.20-24Q247.80-36.60 247.80-53.40L247.80-53.40Q247.80-70.20 254.20-82.80Q260.60-95.40 272.30-102.30Q284-109.20 299.60-109.20L299.60-109.20Q314.80-109.20 326.20-102.40Q337.60-95.60 343.90-82.80Q350.20-70 350.20-52L350.20-52L350.20-46.20L274.40-46.20Q275-32.20 282-25.10Q289-18 300.40-18L300.40-18Q317.80-18 322.60-32.80L322.60-32.80L348.80-31.20Q344.40-15.60 331.50-6.60Q318.60 2.40 300.20 2.40ZM274.40-63.40L274.40-63.40L323.80-63.40Q322.80-76.40 316.30-82.70Q309.80-89 299.60-89L299.60-89Q289.20-89 282.60-82.40Q276-75.80 274.40-63.40ZM409.60 0L393.80 0Q382 0 375.10-6Q368.20-12 368.20-25.20L368.20-25.20L368.20-142L393.80-142L393.80-27.80Q393.80-19.80 401.80-19.80L401.80-19.80L409.60-19.80L409.60 0ZM467 2.40L467 2.40Q442.60 2.40 430.60-7.80Q418.60-18 417.40-33.60L417.40-33.60L443.60-34.80Q445.00-26.40 450.30-21.80Q455.60-17.20 467.20-17.20L467.20-17.20Q476.20-17.20 480.90-20.10Q485.60-23 485.60-29.20L485.60-29.20Q485.60-32.80 483.90-35.20Q482.20-37.60 477.30-39.40Q472.40-41.20 463-43L463-43Q446.80-45.80 437.60-49.90Q428.40-54 424.70-60.20Q421.00-66.40 421.00-75.60L421.00-75.60Q421.00-90.40 432.50-99.80Q444.00-109.20 466.20-109.20L466.20-109.20Q481.60-109.20 491.50-104.30Q501.40-99.40 506.50-91.30Q511.60-83.20 512.40-73.20L512.40-73.20L486.40-72Q486-79.60 481.20-84.60Q476.40-89.60 465.80-89.60L465.80-89.60Q456.80-89.60 452.10-86Q447.40-82.40 447.40-76.40L447.40-76.40Q447.40-70 451.90-66.90Q456.40-63.80 468.40-61.80L468.40-61.80Q484.80-59.40 494.40-55.20Q504-51 508.10-44.70Q512.20-38.40 512.20-29.60L512.20-29.60Q512.20-14.20 499.90-5.90Q487.60 2.40 467 2.40ZM555.80 0L530.20 0L530.20-106.80L555.80-106.80L555.80 0ZM556.40-121L529.80-121L529.80-143.80L556.40-143.80L556.40-121ZM626.40 2.40L626.40 2.40Q610.40 2.40 598.60-4.50Q586.80-11.40 580.30-23.90Q573.80-36.40 573.80-53.40L573.80-53.40Q573.80-70.40 580.30-82.90Q586.80-95.40 598.60-102.30Q610.40-109.20 626.40-109.20L626.40-109.20Q642.20-109.20 654.00-102.30Q665.80-95.40 672.30-82.90Q678.80-70.40 678.80-53.40L678.80-53.40Q678.80-36.40 672.30-23.90Q665.80-11.40 654.00-4.50Q642.20 2.40 626.40 2.40ZM626.40-18.40L626.40-18.40Q638.60-18.40 645.40-27.60Q652.20-36.80 652.20-53.40L652.20-53.40Q652.20-70 645.40-79.20Q638.60-88.40 626.40-88.40L626.40-88.40Q614.00-88.40 607.20-79.20Q600.40-70 600.40-53.40L600.40-53.40Q600.40-36.80 607.20-27.60Q614.00-18.40 626.40-18.40ZM722.20 0L696.60 0L696.60-106.80L720.60-106.80L721.20-86Q724.40-96.80 730.60-101.80Q736.80-106.80 746.80-106.80L746.80-106.80L756.60-106.80L756.60-84.80L746.60-84.80Q734.40-84.80 728.30-79.30Q722.20-73.80 722.20-61.60L722.20-61.60L722.20 0Z" fill="#060a13"></path></g></svg>