<svg xmlns="http://www.w3.org/2000/svg" viewBox="-14.6 -167 1064 193.4" width="1064" height="193.4" role="img" aria-label="xcelsior.ca"><title>xcelsior.ca</title><path d="M33.40 0L9.40 0L48-54.40L11-106.40L34.60-106.40L60.80-68.20L86.20-106.40L110.40-106.40L73.80-54L112 0L88.40 0L61-40.60L33.40 0ZM180.20 2.40L180.20 2.40Q165 2.40 153.60-4.50Q142.20-11.40 136-23.90Q129.80-36.40 129.80-53.20L129.80-53.20Q129.80-70 136-82.50Q142.20-95 153.60-101.90Q165-108.80 180.20-108.80L180.20-108.80Q199.60-108.80 212.40-98.70Q225.20-88.60 227.80-70.20L227.80-70.20L205.60-69Q204-79.40 197.20-84.90Q190.40-90.40 180.20-90.40L180.20-90.40Q166.80-90.40 159.30-80.50Q151.80-70.60 151.80-53.20L151.80-53.20Q151.80-35.60 159.30-25.80Q166.80-16 180.20-16L180.20-16Q190.40-16 197.20-21.70Q204-27.40 205.60-39L205.60-39L227.80-37.80Q225.20-19.40 212.50-8.50Q199.80 2.40 180.20 2.40ZM292.80 2.40L292.80 2.40Q277.20 2.40 265.90-4.50Q254.60-11.40 248.50-23.90Q242.40-36.40 242.40-53.20L242.40-53.20Q242.40-70 248.50-82.50Q254.60-95 265.80-101.90Q277-108.80 292.20-108.80L292.20-108.80Q306.60-108.80 317.60-102.10Q328.60-95.40 334.70-82.80Q340.80-70.20 340.80-52.40L340.80-52.40L340.80-47L264.40-47Q265.20-31.40 272.70-23.60Q280.20-15.80 293-15.80L293-15.80Q302.40-15.80 308.50-20.10Q314.60-24.40 317.20-32L317.20-32L339.20-30.60Q335-15.60 322.70-6.60Q310.40 2.40 292.80 2.40ZM264.40-63L264.40-63L318.40-63Q317.40-77.20 310.20-84Q303-90.80 292.20-90.80L292.20-90.80Q280.80-90.80 273.50-83.70Q266.20-76.60 264.40-63ZM401.20 0L387.40 0Q376.80 0 370.50-5.40Q364.20-10.80 364.20-22.60L364.20-22.60L364.20-142L385.40-142L385.40-24.60Q385.40-17.40 392.80-17.40L392.80-17.40L401.20-17.40L401.20 0ZM461.60 2.40L461.60 2.40Q438.40 2.40 426.80-7.70Q415.20-17.80 414.00-33.60L414.00-33.60L435.80-34.60Q437.20-25.80 443.00-20.60Q448.80-15.40 461.60-15.40L461.60-15.40Q471.60-15.40 476.90-18.60Q482.20-21.80 482.20-28.80L482.20-28.80Q482.20-32.80 480.40-35.40Q478.60-38 473.40-39.90Q468.20-41.80 458-43.60L458-43.60Q442.40-46.60 433.70-50.70Q425.00-54.80 421.40-60.90Q417.80-67 417.80-75.80L417.80-75.80Q417.80-90.20 428.80-99.50Q439.80-108.80 460.60-108.80L460.60-108.80Q475.20-108.80 484.60-103.90Q494-99 498.80-91Q503.60-83 504.60-73.80L504.60-73.80L482.80-72.60Q482.20-80.20 477.10-85.60Q472-91 460.20-91L460.20-91Q449.80-91 444.80-87Q439.80-83 439.80-76.60L439.80-76.60Q439.80-69.60 444.50-66.10Q449.20-62.60 462.20-60.60L462.20-60.60Q478.40-58 487.50-53.90Q496.60-49.80 500.40-43.70Q504.20-37.60 504.20-29L504.20-29Q504.20-14 492.40-5.80Q480.60 2.40 461.60 2.40ZM549.20 0L528 0L528-106.40L549.20-106.40L549.20 0ZM549.60-121.80L527.60-121.80L527.60-143L549.60-143L549.60-121.80ZM623 2.40L623 2.40Q607.80 2.40 596.40-4.50Q585-11.40 578.80-23.80Q572.60-36.20 572.60-53.20L572.60-53.20Q572.60-70.20 578.80-82.60Q585-95 596.40-101.90Q607.80-108.80 623-108.80L623-108.80Q638.20-108.80 649.60-101.90Q661-95 667.20-82.60Q673.40-70.20 673.40-53.20L673.40-53.20Q673.40-36.20 667.20-23.80Q661-11.40 649.60-4.50Q638.20 2.40 623 2.40ZM623-16L623-16Q636.60-16 644-25.80Q651.40-35.60 651.40-53.20L651.40-53.20Q651.40-70.60 644-80.50Q636.60-90.40 623-90.40L623-90.40Q609.60-90.40 602.10-80.50Q594.60-70.60 594.60-53.20L594.60-53.20Q594.60-35.60 602.10-25.80Q609.60-16 623-16ZM718.00 0L696.80 0L696.80-106.40L716.20-106.40L716.80-86.20Q719.80-96.60 726.10-101.50Q732.40-106.40 742.20-106.40L742.20-106.40L752.40-106.40L752.40-87.40L742.20-87.40Q730.00-87.40 724.00-81.40Q718.00-75.40 718.00-62.80L718.00-62.80L718.00 0ZM794.80 0L769 0L769-25.20L794.80-25.20L794.80 0ZM862 2.40L862 2.40Q846.80 2.40 835.40-4.50Q824-11.40 817.80-23.90Q811.60-36.40 811.60-53.20L811.60-53.20Q811.60-70 817.80-82.50Q824-95 835.40-101.90Q846.80-108.80 862-108.80L862-108.80Q881.40-108.80 894.20-98.70Q907-88.60 909.60-70.20L909.60-70.20L887.40-69Q885.80-79.40 879-84.90Q872.20-90.40 862-90.40L862-90.40Q848.60-90.40 841.10-80.50Q833.60-70.60 833.60-53.20L833.60-53.20Q833.60-35.60 841.10-25.80Q848.60-16 862-16L862-16Q872.20-16 879-21.70Q885.80-27.40 887.40-39L887.40-39L909.60-37.80Q907-19.40 894.30-8.50Q881.60 2.40 862 2.40ZM960.60 2.40L960.60 2.40Q944.00 2.40 934.10-5.20Q924.20-12.80 924.20-26.60L924.20-26.60Q924.20-40.20 932.50-48Q940.80-55.80 958.20-59.20L958.20-59.20L994.80-66.20Q994.80-90.80 971.80-90.80L971.80-90.80Q961.60-90.80 955.80-86.20Q950.00-81.60 947.80-73L947.80-73L926.00-74.40Q929.00-90.40 940.90-99.60Q952.80-108.80 971.80-108.80L971.80-108.80Q993.40-108.80 1004.70-97.30Q1016.00-85.80 1016.00-65L1016.00-65L1016.00-23.60Q1016.00-19.80 1017.30-18.30Q1018.60-16.80 1021.60-16.80L1021.60-16.80L1025.40-16.80L1025.40 0Q1022.60 0.60 1017.60 0.60L1017.60 0.60Q1008.60 0.60 1003.30-3.10Q998.00-6.80 996.60-15.80L996.60-15.80L996.60-16.40Q992.60-8 982.80-2.80Q973.00 2.40 960.60 2.40ZM964.00-14.40L964.00-14.40Q978.40-14.40 986.60-22.60Q994.80-30.80 994.80-43.40L994.80-43.40L994.80-50.20L963.60-44.20Q954.00-42.40 950.10-38.50Q946.20-34.60 946.20-28.60L946.20-28.60Q946.20-21.80 950.90-18.10Q955.60-14.40 964.00-14.40Z" fill="#ffffff"/></svg>
