<svg xmlns="http://www.w3.org/2000/svg" viewBox="-6.8 -166 1259.4 220" width="1259.4" height="220" role="img" aria-label="Ever upward."><title>Ever upward.</title><path d="M111.20 0L17.20 0L17.20-142L109.60-142L109.60-122.20L38.80-122.20L38.80-80.80L107.20-80.80L107.20-61.60L38.80-61.60L38.80-19.80L111.20-19.80L111.20 0ZM190.60 0L165 0L126.20-106.40L148.80-106.40L177.80-21.60L206.80-106.40L229.60-106.40L190.60 0ZM292.60 2.40L292.60 2.40Q277 2.40 265.70-4.50Q254.40-11.40 248.30-23.90Q242.20-36.40 242.20-53.20L242.20-53.20Q242.20-70 248.30-82.50Q254.40-95 265.60-101.90Q276.80-108.80 292-108.80L292-108.80Q306.40-108.80 317.40-102.10Q328.40-95.40 334.50-82.80Q340.60-70.20 340.60-52.40L340.60-52.40L340.60-47L264.20-47Q265-31.40 272.50-23.60Q280-15.80 292.80-15.80L292.80-15.80Q302.20-15.80 308.30-20.10Q314.40-24.40 317-32L317-32L339-30.60Q334.80-15.60 322.50-6.60Q310.20 2.40 292.60 2.40ZM264.20-63L264.20-63L318.20-63Q317.20-77.20 310-84Q302.80-90.80 292-90.80L292-90.80Q280.60-90.80 273.30-83.70Q266-76.60 264.20-63ZM385.20 0L364 0L364-106.40L383.40-106.40L384-86.20Q387-96.60 393.30-101.50Q399.60-106.40 409.40-106.40L409.40-106.40L419.60-106.40L419.60-87.40L409.40-87.40Q397.20-87.40 391.20-81.40Q385.20-75.40 385.20-62.80L385.20-62.80L385.20 0ZM526.40 2.40L526.40 2.40Q510.20 2.40 500.80-8.20Q491.40-18.80 491.40-38L491.40-38L491.40-106.40L512.60-106.40L512.60-43.40Q512.60-29 517.60-22.20Q522.60-15.40 532.80-15.40L532.80-15.40Q544.40-15.40 550.90-22.90Q557.40-30.40 557.40-44L557.40-44L557.40-106.40L578.60-106.40L578.60 0L558.80 0L558.60-17.40Q550 2.40 526.40 2.40ZM629.80 30L608.60 30L608.60-106.40L628.60-106.40L629-90.20Q633.60-99.40 642.10-104.10Q650.60-108.80 661.20-108.80L661.20-108.80Q676.80-108.80 686.90-101.10Q697-93.40 701.90-80.80Q706.80-68.20 706.80-53.20L706.80-53.20Q706.80-38.20 701.90-25.60Q697-13 686.90-5.30Q676.80 2.40 661.20 2.40L661.20 2.40Q651 2.40 642.60-2.10Q634.20-6.60 629.80-14.40L629.80-14.40L629.80 30ZM657.40-16L657.40-16Q670.20-16 677.50-25.80Q684.80-35.60 684.80-53.20L684.80-53.20Q684.80-70.80 677.50-80.60Q670.20-90.40 657.40-90.40L657.40-90.40Q644.60-90.40 637.20-81Q629.80-71.60 629.80-53.20L629.80-53.20Q629.80-34.80 637.20-25.40Q644.60-16 657.40-16ZM775.60 0L752 0L719.60-106.40L741.80-106.40L764.60-23.20L788-106.40L808-106.40L831.40-23.20L854.40-106.40L876.60-106.40L844.20 0L820.40 0L798-76L775.60 0ZM925.80 2.40L925.80 2.40Q909.20 2.40 899.30-5.20Q889.40-12.80 889.40-26.60L889.40-26.60Q889.40-40.20 897.70-48Q906-55.80 923.40-59.20L923.40-59.20L960-66.20Q960-90.80 937-90.80L937-90.80Q926.80-90.80 921-86.20Q915.20-81.60 913-73L913-73L891.20-74.40Q894.20-90.40 906.10-99.60Q918-108.80 937-108.80L937-108.80Q958.60-108.80 969.90-97.30Q981.20-85.80 981.20-65L981.20-65L981.20-23.60Q981.20-19.80 982.50-18.30Q983.80-16.80 986.80-16.80L986.80-16.80L990.60-16.80L990.60 0Q987.80 0.60 982.80 0.60L982.80 0.60Q973.80 0.60 968.50-3.10Q963.20-6.80 961.80-15.80L961.80-15.80L961.80-16.40Q957.80-8 948-2.80Q938.20 2.40 925.80 2.40ZM929.20-14.40L929.20-14.40Q943.60-14.40 951.80-22.60Q960-30.80 960-43.40L960-43.40L960-50.20L928.80-44.20Q919.20-42.40 915.30-38.50Q911.40-34.60 911.40-28.60L911.40-28.60Q911.40-21.80 916.10-18.10Q920.80-14.40 929.20-14.40ZM1030.20 0L1009 0L1009-106.40L1028.40-106.40L1029-86.20Q1032-96.60 1038.30-101.50Q1044.60-106.40 1054.40-106.40L1054.40-106.40L1064.60-106.40L1064.60-87.40L1054.40-87.40Q1042.20-87.40 1036.20-81.40Q1030.20-75.40 1030.20-62.80L1030.20-62.80L1030.20 0ZM1125.60 2.40L1125.60 2.40Q1112 2.40 1102-4.40Q1092-11.20 1086.60-23.70Q1081.20-36.20 1081.20-53.20L1081.20-53.20Q1081.20-70.20 1086.60-82.70Q1092-95.20 1102-102Q1112-108.80 1125.60-108.80L1125.60-108.80Q1136.60-108.80 1145.20-104.20Q1153.80-99.60 1158.20-91.40L1158.20-91.40L1158.20-142L1179.40-142L1179.40 0L1159.60 0L1159-16Q1154.60-7.20 1145.70-2.40Q1136.80 2.40 1125.60 2.40ZM1131.20-16L1131.20-16Q1144.20-16 1151.20-25.80Q1158.20-35.60 1158.20-53.20L1158.20-53.20Q1158.20-71 1151.20-80.70Q1144.20-90.40 1131.20-90.40L1131.20-90.40Q1118.40-90.40 1110.80-80.50Q1103.20-70.60 1103.20-53.20L1103.20-53.20Q1103.20-36.20 1110.80-26.10Q1118.40-16 1131.20-16ZM1228.60 0L1202.80 0L1202.80-25.20L1228.60-25.20L1228.60 0Z" fill="#ffffff"/></svg>
