<svg xmlns="http://www.w3.org/2000/svg" viewBox="-8 -166 1267.4 220" width="1267.4" height="220" role="img" aria-label="Ever upward."><title>Ever upward.</title><path d="M113.20 0L16 0L16-142L111.60-142L111.60-119.40L42-119.40L42-82.40L109.20-82.40L109.20-60L42-60L42-22.60L113.20-22.60L113.20 0ZM194.60 0L164.20 0L125.20-106.80L152.20-106.80L179.40-25.80L206.60-106.80L233.60-106.80L194.60 0ZM296 2.40L296 2.40Q280 2.40 268.20-4.50Q256.40-11.40 250-24Q243.60-36.60 243.60-53.40L243.60-53.40Q243.60-70.20 250-82.80Q256.40-95.40 268.10-102.30Q279.80-109.20 295.40-109.20L295.40-109.20Q310.60-109.20 322-102.40Q333.40-95.60 339.70-82.80Q346-70 346-52L346-52L346-46.20L270.20-46.20Q270.80-32.20 277.80-25.10Q284.80-18 296.20-18L296.20-18Q313.60-18 318.40-32.80L318.40-32.80L344.60-31.20Q340.20-15.60 327.30-6.60Q314.40 2.40 296 2.40ZM270.20-63.40L270.20-63.40L319.60-63.40Q318.60-76.40 312.10-82.70Q305.60-89 295.40-89L295.40-89Q285-89 278.40-82.40Q271.80-75.80 270.20-63.40ZM391.60 0L366 0L366-106.80L390-106.80L390.60-86Q393.80-96.80 400-101.80Q406.20-106.80 416.20-106.80L416.20-106.80L426-106.80L426-84.80L416-84.80Q403.80-84.80 397.70-79.30Q391.60-73.80 391.60-61.60L391.60-61.60L391.60 0ZM526.20 2.40L526.20 2.40Q509.80 2.40 500.40-8.20Q491-18.80 491-38L491-38L491-106.80L516.60-106.80L516.60-44.40Q516.60-30.80 521.10-24.60Q525.60-18.40 534.80-18.40L534.80-18.40Q545-18.40 550.80-25.30Q556.60-32.20 556.60-45.40L556.60-45.40L556.60-106.80L582.20-106.80L582.20 0L558.80 0L558.40-17.40Q550 2.40 526.20 2.40ZM634 30L608.40 30L608.40-106.80L633-106.80L633.40-90.80Q638-99.80 646.40-104.50Q654.80-109.20 665.40-109.20L665.40-109.20Q680.60-109.20 690.70-101.70Q700.80-94.20 705.80-81.50Q710.80-68.80 710.80-53.40L710.80-53.40Q710.80-38 705.70-25.40Q700.60-12.80 690.50-5.20Q680.40 2.40 665.20 2.40L665.20 2.40Q655 2.40 646.70-2.10Q638.40-6.60 634-14.60L634-14.60L634 30ZM659.20-18.40L659.20-18.40Q670.80-18.40 677.50-27.70Q684.20-37 684.20-53.40L684.20-53.40Q684.20-69.80 677.50-79.10Q670.80-88.40 659.20-88.40L659.20-88.40Q647.60-88.40 640.80-79.60Q634-70.80 634-53.40L634-53.40Q634-36 640.70-27.20Q647.40-18.40 659.20-18.40ZM779.40 0L753 0L720.80-106.80L747-106.80L767.80-29L789.20-106.80L811.60-106.80L833.20-29L854-106.80L880.20-106.80L848 0L821.60 0L800.40-71.60L779.40 0ZM927.40 2.40L927.40 2.40Q910.60 2.40 900.40-5.20Q890.20-12.80 890.20-26.80L890.20-26.80Q890.20-40.60 898.80-48.40Q907.40-56.20 925-59.60L925-59.60L960.40-66.60Q960.40-89.40 939.80-89.40L939.80-89.40Q930.60-89.40 925.20-85.10Q919.80-80.80 918-72.80L918-72.80L892-74Q895.20-90.80 907.60-100Q920-109.20 939.80-109.20L939.80-109.20Q962.60-109.20 974.30-97.70Q986-86.20 986-64.80L986-64.80L986-26Q986-21.80 987.50-20.20Q989-18.60 992-18.60L992-18.60L995.40-18.60L995.40 0Q992 0.80 986 0.80L986 0.80Q977.40 0.80 971.40-2.80Q965.40-6.40 963.80-16.20L963.80-16.20L963.80-16.40Q959.80-8 950.10-2.80Q940.40 2.40 927.40 2.40ZM932.60-16.20L932.60-16.20Q945.40-16.20 952.90-23.60Q960.40-31 960.40-43.20L960.40-43.20L960.40-49.20L932.80-43.60Q924.20-41.80 920.50-38.30Q916.80-34.80 916.80-29.20L916.80-29.20Q916.80-16.20 932.60-16.20ZM1036 0L1010.40 0L1010.40-106.80L1034.40-106.80L1035-86Q1038.20-96.80 1044.40-101.80Q1050.60-106.80 1060.60-106.80L1060.60-106.80L1070.40-106.80L1070.40-84.80L1060.40-84.80Q1048.20-84.80 1042.10-79.30Q1036-73.80 1036-61.60L1036-61.60L1036 0ZM1128.20 2.40L1128.20 2.40Q1114.60 2.40 1104.70-4.40Q1094.80-11.20 1089.40-23.70Q1084-36.20 1084-53.40L1084-53.40Q1084-70.40 1089.50-83Q1095-95.60 1104.90-102.40Q1114.80-109.20 1128.20-109.20L1128.20-109.20Q1139.40-109.20 1147.90-104.60Q1156.40-100 1160.80-91.60L1160.80-91.60L1160.80-142L1186.40-142L1186.40 0L1162 0L1161.40-15.80Q1157-7.20 1148.20-2.40Q1139.40 2.40 1128.20 2.40ZM1136-18.40L1136-18.40Q1147.80-18.40 1154.30-27.50Q1160.80-36.60 1160.80-53.40L1160.80-53.40Q1160.80-70.40 1154.40-79.40Q1148-88.40 1136-88.40L1136-88.40Q1124.40-88.40 1117.50-79.10Q1110.60-69.80 1110.60-53.40L1110.60-53.40Q1110.60-37.40 1117.50-27.90Q1124.40-18.40 1136-18.40ZM1235.40 0L1206.20 0L1206.20-28L1235.40-28L1235.40 0Z" fill="#ffffff"/></svg>
