<svg xmlns="http://www.w3.org/2000/svg" viewBox="0 0 320 200" fill="none">
  <defs>
    <linearGradient id="g" x1="0%" y1="0%" x2="100%" y2="100%">
      <stop offset="0%" stop-color="#00d4ff"/>
      <stop offset="45%" stop-color="#7c3aed"/>
      <stop offset="100%" stop-color="#dc2626"/>
    </linearGradient>
    <linearGradient id="gSoft" x1="0%" y1="100%" x2="100%" y2="0%">
      <stop offset="0%" stop-color="#00d4ff" stop-opacity="0.18"/>
      <stop offset="100%" stop-color="#7c3aed" stop-opacity="0.1"/>
    </linearGradient>
    <linearGradient id="gold" x1="0%" y1="0%" x2="100%" y2="0%">
      <stop offset="0%" stop-color="#fbbf24"/>
      <stop offset="100%" stop-color="#f59e0b"/>
    </linearGradient>
    <filter id="glow" x="-50%" y="-50%" width="200%" height="200%">
      <feGaussianBlur stdDeviation="5" result="b"/>
      <feMerge><feMergeNode in="b"/><feMergeNode in="SourceGraphic"/></feMerge>
    </filter>
    <filter id="softGlow" x="-80%" y="-80%" width="260%" height="260%">
      <feGaussianBlur stdDeviation="14"/>
    </filter>
</defs>
  <rect width="320" height="200" rx="20" fill="#0a0e1a" stroke="#334155" stroke-width="0.75"/>
  <rect width="320" height="200" rx="20" fill="url(#gSoft)"/>
  <circle cx="100" cy="88" r="36" stroke="url(#g)" stroke-width="2" fill="#111827"/>
  <path d="M118,88 L148,88" stroke="#00d4ff" stroke-width="2.5" stroke-linecap="round"/>
  <path d="M128,78 L148,88 L128,98" stroke="#00d4ff" stroke-width="2" fill="none"/>
  <g transform="translate(168,52)">
    <rect width="56" height="36" rx="6" fill="#1e293b" stroke="#475569"/>
    <rect x="72" y="8" width="56" height="36" rx="6" fill="#1e293b" stroke="#475569"/>
    <rect x="36" y="56" width="56" height="36" rx="6" fill="#1e293b" stroke="#475569"/>
    <text x="28" y="24" text-anchor="middle" fill="#94a3b8" font-size="8" font-family="system-ui">4090</text>
    <text x="100" y="32" text-anchor="middle" fill="#94a3b8" font-size="8" font-family="system-ui">H100</text>
  </g>
  <text x="160" y="176" text-anchor="middle" fill="#64748b" font-size="10" font-weight="600" letter-spacing="0.1em">DISCOVER</text>
</svg>
