<svg xmlns="http://www.w3.org/2000/svg" viewBox="0 0 320 200" fill="none">
  <defs>
    <linearGradient id="g" x1="0%" y1="0%" x2="100%" y2="100%">
      <stop offset="0%" stop-color="#00d4ff"/>
      <stop offset="45%" stop-color="#7c3aed"/>
      <stop offset="100%" stop-color="#dc2626"/>
    </linearGradient>
    <linearGradient id="gSoft" x1="0%" y1="100%" x2="100%" y2="0%">
      <stop offset="0%" stop-color="#00d4ff" stop-opacity="0.18"/>
      <stop offset="100%" stop-color="#7c3aed" stop-opacity="0.1"/>
    </linearGradient>
    <linearGradient id="gold" x1="0%" y1="0%" x2="100%" y2="0%">
      <stop offset="0%" stop-color="#fbbf24"/>
      <stop offset="100%" stop-color="#f59e0b"/>
    </linearGradient>
    <filter id="glow" x="-50%" y="-50%" width="200%" height="200%">
      <feGaussianBlur stdDeviation="5" result="b"/>
      <feMerge><feMergeNode in="b"/><feMergeNode in="SourceGraphic"/></feMerge>
    </filter>
    <filter id="softGlow" x="-80%" y="-80%" width="260%" height="260%">
      <feGaussianBlur stdDeviation="14"/>
    </filter>
</defs>
  <rect width="320" height="200" rx="20" fill="#0a0e1a" stroke="#334155"/>
  <path d="M160,44 L200,60 V96 C200,120 160,140 160,140 C160,140 120,120 120,96 V60 Z" fill="#1e293b" stroke="url(#gold)" stroke-width="1.5"/>
  <rect x="56" y="152" width="80" height="10" rx="5" fill="#334155"/>
  <rect x="56" y="152" width="52" height="10" rx="5" fill="url(#gold)"/>
  <text x="96" y="178" text-anchor="middle" fill="#94a3b8" font-size="9">wallet</text>
  <rect x="184" y="152" width="80" height="10" rx="5" fill="#334155"/>
  <rect x="184" y="152" width="64" height="10" rx="5" fill="url(#g)"/>
  <text x="224" y="178" text-anchor="middle" fill="#94a3b8" font-size="9">estimate</text>
  <text x="160" y="24" text-anchor="middle" fill="#fbbf24" font-size="10" font-weight="700" letter-spacing="0.12em">GUARDRAILS</text>
</svg>
