<svg xmlns="http://www.w3.org/2000/svg" viewBox="0 0 640 420" fill="none">
<defs>
    <linearGradient id="mal-body" x1="162" y1="150" x2="282" y2="270" gradientUnits="userSpaceOnUse"><stop stop-color="#ffffff"></stop><stop offset=".55" stop-color="#f1f5f9"></stop><stop offset="1" stop-color="#e2e8f0"></stop></linearGradient>
    <linearGradient id="mal-edge" x1="40" y1="60" x2="600" y2="380" gradientUnits="userSpaceOnUse"><stop stop-color="#0891b2"></stop><stop offset=".6" stop-color="#7c3aed"></stop><stop offset="1" stop-color="#059669"></stop></linearGradient>
    <linearGradient id="mal-bolt" x1="202" y1="180" x2="242" y2="240" gradientUnits="userSpaceOnUse"><stop stop-color="#0891b2"></stop><stop offset="1" stop-color="#7c3aed"></stop></linearGradient>
    <linearGradient id="mal-gold" x1="0" y1="0" x2="0" y2="1"><stop stop-color="#fde68a"></stop><stop offset="1" stop-color="#d4a233"></stop></linearGradient>
    <linearGradient id="mal-line" x1="60" y1="120" x2="580" y2="380" gradientUnits="userSpaceOnUse"><stop stop-color="#0891b2"></stop><stop offset=".5" stop-color="#7c3aed"></stop><stop offset="1" stop-color="#059669"></stop></linearGradient>
    <radialGradient id="mal-core" cx="50%" cy="42%" r="60%"><stop offset="0%" stop-color="#0891b2"></stop><stop offset="55%" stop-color="#7c3aed" stop-opacity=".4"></stop><stop offset="100%" stop-color="#f1f5f9" stop-opacity="0"></stop></radialGradient>
    <radialGradient id="mal-halo" cx="50%" cy="50%" r="50%"><stop offset="0%" stop-color="#0891b2" stop-opacity="0.22"></stop><stop offset="100%" stop-color="#0891b2" stop-opacity="0"></stop></radialGradient>
    <pattern id="mal-grid" width="34" height="34" patternUnits="userSpaceOnUse"><path d="M34 0H0V34" fill="none" stroke="#0891b2" stroke-opacity=".05" stroke-width="1"></path></pattern>
    <filter id="mal-glow" x="-40%" y="-40%" width="180%" height="180%" color-interpolation-filters="sRGB"><feDropShadow dx="0" dy="8" stdDeviation="10" flood-color="#0f172a" flood-opacity=".16"></feDropShadow><feDropShadow dx="0" dy="0" stdDeviation="4" flood-color="#0891b2" flood-opacity=".24"></feDropShadow></filter><filter id="mal-cardglow" x="-40%" y="-40%" width="180%" height="180%" color-interpolation-filters="sRGB"><feDropShadow dx="0" dy="8" stdDeviation="10" flood-color="#0f172a" flood-opacity=".16"></feDropShadow><feDropShadow dx="0" dy="0" stdDeviation="4" flood-color="#0891b2" flood-opacity=".24"></feDropShadow></filter><filter id="mal-node" x="-160%" y="-160%" width="420%" height="420%" color-interpolation-filters="sRGB"><feDropShadow dx="0" dy="0" stdDeviation="3" flood-color="#0891b2" flood-opacity="0.32"></feDropShadow></filter>
    <filter id="mal-bloom" x="-100%" y="-100%" width="300%" height="300%"><feGaussianBlur stdDeviation="38"></feGaussianBlur></filter>
  </defs>
  <rect x="0" y="0" width="640" height="420" fill="url(#mal-grid)"></rect>
  
  <circle cx="222" cy="210" r="120" fill="url(#mal-halo)"></circle>
  <line x1="262" y1="210" x2="452" y2="82" stroke="url(#mal-line)" stroke-opacity="0.4" stroke-width="1.6"></line><line x1="262" y1="210" x2="552" y2="186" stroke="url(#mal-line)" stroke-opacity="0.4" stroke-width="1.6"></line><line x1="262" y1="210" x2="540" y2="316" stroke="url(#mal-line)" stroke-opacity="0.4" stroke-width="1.6"></line><line x1="262" y1="210" x2="430" y2="372" stroke="url(#mal-line)" stroke-opacity="0.4" stroke-width="1.6"></line><line x1="262" y1="210" x2="360" y2="120" stroke="url(#mal-line)" stroke-opacity="0.32000000000000006" stroke-width="1.4"></line><line x1="262" y1="210" x2="372" y2="300" stroke="url(#mal-line)" stroke-opacity="0.32000000000000006" stroke-width="1.4"></line><line x1="180" y1="328" x2="184" y2="240" stroke="url(#mal-line)" stroke-opacity="0.4" stroke-width="1.6"></line><circle cx="182" cy="284" r="3" fill="#059669" filter="url(#mal-node)"></circle><circle cx="357" cy="146" r="3" fill="#0891b2" filter="url(#mal-node)"></circle><circle cx="442" cy="195" r="3" fill="#0891b2" filter="url(#mal-node)"></circle><circle cx="468" cy="288" r="3" fill="#0891b2" filter="url(#mal-node)"></circle><circle cx="360" cy="120" r="5" fill="url(#mal-body)" stroke="url(#mal-edge)" stroke-width="1.6" filter="url(#mal-node)"></circle><circle cx="360" cy="120" r="2" fill="#7c3aed"></circle><circle cx="372" cy="300" r="5" fill="url(#mal-body)" stroke="url(#mal-edge)" stroke-width="1.6" filter="url(#mal-node)"></circle><circle cx="372" cy="300" r="2" fill="#059669"></circle><g filter="url(#mal-cardglow)"><rect x="423" y="64" width="58" height="36" rx="7" fill="url(#mal-body)" stroke="url(#mal-edge)" stroke-width="1.8"></rect></g>
    <path d="M429 70h46" stroke="#0891b2" stroke-opacity="0.27999999999999997" stroke-width="1.4" stroke-linecap="round"></path>
    <circle cx="440" cy="81" r="6.5" stroke="url(#mal-edge)" stroke-width="1.6" fill="none"></circle><circle cx="440" cy="81" r="2" fill="#0891b2"></circle><circle cx="464" cy="81" r="6.5" stroke="url(#mal-edge)" stroke-width="1.6" fill="none"></circle><circle cx="464" cy="81" r="2" fill="#0891b2"></circle>
    <rect x="439" y="95" width="26" height="3" rx="1.5" fill="url(#mal-gold)" opacity=".9"></rect><g filter="url(#mal-cardglow)"><rect x="523" y="168" width="58" height="36" rx="7" fill="url(#mal-body)" stroke="url(#mal-edge)" stroke-width="1.8"></rect></g>
    <path d="M529 174h46" stroke="#0891b2" stroke-opacity="0.27999999999999997" stroke-width="1.4" stroke-linecap="round"></path>
    <circle cx="540" cy="185" r="6.5" stroke="url(#mal-edge)" stroke-width="1.6" fill="none"></circle><circle cx="540" cy="185" r="2" fill="#0891b2"></circle><circle cx="564" cy="185" r="6.5" stroke="url(#mal-edge)" stroke-width="1.6" fill="none"></circle><circle cx="564" cy="185" r="2" fill="#0891b2"></circle>
    <rect x="539" y="199" width="26" height="3" rx="1.5" fill="url(#mal-gold)" opacity=".9"></rect><g filter="url(#mal-cardglow)"><rect x="511" y="298" width="58" height="36" rx="7" fill="url(#mal-body)" stroke="url(#mal-edge)" stroke-width="1.8"></rect></g>
    <path d="M517 304h46" stroke="#0891b2" stroke-opacity="0.27999999999999997" stroke-width="1.4" stroke-linecap="round"></path>
    <circle cx="528" cy="315" r="6.5" stroke="url(#mal-edge)" stroke-width="1.6" fill="none"></circle><circle cx="528" cy="315" r="2" fill="#0891b2"></circle><circle cx="552" cy="315" r="6.5" stroke="url(#mal-edge)" stroke-width="1.6" fill="none"></circle><circle cx="552" cy="315" r="2" fill="#0891b2"></circle>
    <rect x="527" y="329" width="26" height="3" rx="1.5" fill="url(#mal-gold)" opacity=".9"></rect><g filter="url(#mal-cardglow)"><rect x="401" y="354" width="58" height="36" rx="7" fill="url(#mal-body)" stroke="url(#mal-edge)" stroke-width="1.8"></rect></g>
    <path d="M407 360h46" stroke="#0891b2" stroke-opacity="0.27999999999999997" stroke-width="1.4" stroke-linecap="round"></path>
    <circle cx="418" cy="371" r="6.5" stroke="url(#mal-edge)" stroke-width="1.6" fill="none"></circle><circle cx="418" cy="371" r="2" fill="#0891b2"></circle><circle cx="442" cy="371" r="6.5" stroke="url(#mal-edge)" stroke-width="1.6" fill="none"></circle><circle cx="442" cy="371" r="2" fill="#0891b2"></circle>
    <rect x="417" y="385" width="26" height="3" rx="1.5" fill="url(#mal-gold)" opacity=".9"></rect><g filter="url(#mal-cardglow)"><path d="M70 300 h96 a10 10 0 0 1 10 10 v34 a10 10 0 0 1 -10 10 h-70 l-14 14 v-14 h-12 a10 10 0 0 1 -10 -10 v-34 a10 10 0 0 1 10 -10 Z" fill="url(#mal-body)" stroke="url(#mal-edge)" stroke-width="1.8"></path></g>
    <g stroke="#0891b2" stroke-opacity="0.4" stroke-width="2.4" stroke-linecap="round"><path d="M86 316h64M86 327h64M86 338h40"></path></g>
  <path d="M222.0 116.0L303.4 163.0L303.4 257.0L222.0 304.0L140.6 257.0L140.6 163.0Z" stroke="url(#mal-edge)" stroke-opacity=".26" stroke-width="1.5"></path>
  <path d="M222.0 132.0L289.5 171.0L289.5 249.0L222.0 288.0L154.5 249.0L154.5 171.0Z" fill="url(#mal-core)"></path>
  <path d="M222.0 140.0L282.6 175.0L282.6 245.0L222.0 280.0L161.4 245.0L161.4 175.0Z" fill="url(#mal-body)" stroke="url(#mal-edge)" stroke-width="2.6" filter="url(#mal-glow)"></path>
  <circle cx="222" cy="210" r="34" stroke="url(#mal-edge)" stroke-opacity=".3" stroke-width="1.2" fill="none"></circle>
  <line x1="222" y1="210" x2="222.0" y2="176.0" stroke="url(#mal-edge)" stroke-opacity=".5" stroke-width="2"></line><circle cx="222.0" cy="176.0" r="4.5" fill="#0891b2"></circle><line x1="222" y1="210" x2="251.4" y2="227.0" stroke="url(#mal-edge)" stroke-opacity=".5" stroke-width="2"></line><circle cx="251.4" cy="227.0" r="4.5" fill="#7c3aed"></circle><line x1="222" y1="210" x2="192.6" y2="227.0" stroke="url(#mal-edge)" stroke-opacity=".5" stroke-width="2"></line><circle cx="192.6" cy="227.0" r="4.5" fill="#059669"></circle>
  <circle cx="222" cy="210" r="11" fill="url(#mal-core)"></circle>
  <circle cx="222" cy="210" r="7" fill="url(#mal-bolt)"></circle>
  <circle cx="222" cy="210" r="7" stroke="#0f172a" stroke-opacity="0.35" stroke-width="1.2"></circle>
</svg>