<svg xmlns="http://www.w3.org/2000/svg" viewBox="0 0 1200 630" fill="none">
  <defs>
    <linearGradient id="g" x1="0%" y1="0%" x2="100%" y2="100%">
      <stop offset="0%" stop-color="#00d4ff"/>
      <stop offset="45%" stop-color="#7c3aed"/>
      <stop offset="100%" stop-color="#dc2626"/>
    </linearGradient>
    <linearGradient id="gSoft" x1="0%" y1="100%" x2="100%" y2="0%">
      <stop offset="0%" stop-color="#00d4ff" stop-opacity="0.18"/>
      <stop offset="100%" stop-color="#7c3aed" stop-opacity="0.1"/>
    </linearGradient>
    <linearGradient id="gold" x1="0%" y1="0%" x2="100%" y2="0%">
      <stop offset="0%" stop-color="#fbbf24"/>
      <stop offset="100%" stop-color="#f59e0b"/>
    </linearGradient>
    <filter id="glow" x="-50%" y="-50%" width="200%" height="200%">
      <feGaussianBlur stdDeviation="5" result="b"/>
      <feMerge><feMergeNode in="b"/><feMergeNode in="SourceGraphic"/></feMerge>
    </filter>
    <filter id="softGlow" x="-80%" y="-80%" width="260%" height="260%">
      <feGaussianBlur stdDeviation="14"/>
    </filter>
</defs>
  <rect width="1200" height="630" fill="#0a0e1a"/>
  <rect width="1200" height="630" fill="url(#gSoft)"/>
  <g transform="translate(120,140) scale(1.4)">
  <g filter="url(#glow)" transform="translate(72,140) scale(1.8)" fill="url(#g)">
    <path d="M12 1.8c.38 3.07 1.05 4.96 2.18 6.1 1.13 1.13 3.02 1.8 6.02 2.1-3 .38-4.89 1.05-6.02 2.18-1.13 1.13-1.8 3.02-2.18 6.02-.38-3-1.05-4.89-2.18-6.02-1.13-1.13-3.02-1.8-6.02-2.18 3-.3 4.89-.97 6.02-2.1C10.95 6.76 11.62 4.87 12 1.8Z"/>
  </g>

  <g filter="url(#glow)" transform="translate(200,108)">
    <polygon points="40,0 80,22 80,66 40,88 0,66 0,22" fill="#111827" stroke="url(#g)" stroke-width="1.5"/>
    <text x="40" y="48" text-anchor="middle" fill="#e2e8f0" font-family="ui-monospace,monospace" font-size="11" font-weight="700">MCP</text>
  </g>

  <g filter="url(#glow)" transform="translate(328,96)">
    <rect width="112" height="80" rx="10" fill="#0f172a" stroke="url(#g)" stroke-width="1.25"/>
    <rect x="12" y="12" width="88" height="56" rx="5" fill="#0a0e1a" stroke="#334155"/>
    <path d="M56,28 L56,52 M44,40 L68,40" stroke="url(#g)" stroke-width="2" stroke-linecap="round"/>
  </g>

  <path d="M108,152 C160,152 180,132 240,132" stroke="url(#g)" stroke-width="2" stroke-dasharray="6 8" fill="none" opacity="0.85"/>
  <path d="M280,152 C320,152 340,168 384,168" stroke="url(#g)" stroke-width="2" stroke-dasharray="6 8" fill="none" opacity="0.85"/>
  <circle cx="108" cy="152" r="4" fill="#00d4ff"/>
  <circle cx="240" cy="132" r="4" fill="#7c3aed"/>
  <circle cx="384" cy="168" r="4" fill="#dc2626"/>
</g>
  <text x="640" y="280" fill="#e2e8f0" font-family="system-ui,sans-serif" font-size="56" font-weight="800">Let AI agents control real GPUs</text>
  <text x="640" y="360" fill="#94a3b8" font-family="system-ui,sans-serif" font-size="28">Xcelsior MCP — natural language to compute</text>
  <text x="640" y="480" fill="#00d4ff" font-family="system-ui,sans-serif" font-size="22" font-weight="600">xcelsior.ca/mcp</text>
</svg>
