<svg xmlns="http://www.w3.org/2000/svg" viewBox="0 0 480 160" fill="none">
  <defs>
    <linearGradient id="brand" x1="0%" y1="0%" x2="100%" y2="100%">
      <stop offset="0%" stop-color="#22e0ff"/>
      <stop offset="48%" stop-color="#7c3aed"/>
      <stop offset="100%" stop-color="#f43f5e"/>
    </linearGradient>
    <linearGradient id="brandSoft" x1="0" y1="1" x2="1" y2="0">
      <stop offset="0%" stop-color="#22e0ff" stop-opacity="0.14"/>
      <stop offset="100%" stop-color="#7c3aed" stop-opacity="0.06"/>
    </linearGradient>
    <radialGradient id="spot" cx="50%" cy="34%" r="75%">
      <stop offset="0%" stop-color="#1b2740"/>
      <stop offset="100%" stop-color="#070b15"/>
    </radialGradient>
    <linearGradient id="glass" x1="0" y1="0" x2="0" y2="1">
      <stop offset="0%" stop-color="#ffffff" stop-opacity="0.14"/>
      <stop offset="24%" stop-color="#ffffff" stop-opacity="0.04"/>
      <stop offset="100%" stop-color="#ffffff" stop-opacity="0"/>
    </linearGradient>
    <linearGradient id="panel" x1="0" y1="0" x2="0" y2="1">
      <stop offset="0%" stop-color="#16233c"/>
      <stop offset="100%" stop-color="#0b1322"/>
    </linearGradient>
    <radialGradient id="core" cx="50%" cy="42%" r="62%">
      <stop offset="0%" stop-color="#5eeaff"/>
      <stop offset="42%" stop-color="#2a8cff"/>
      <stop offset="100%" stop-color="#0b1b3a"/>
    </radialGradient>
    <linearGradient id="violet" x1="0" y1="0" x2="1" y2="1">
      <stop offset="0%" stop-color="#a78bfa"/>
      <stop offset="100%" stop-color="#7c3aed"/>
    </linearGradient>
    <linearGradient id="gold" x1="0" y1="0" x2="0" y2="1">
      <stop offset="0%" stop-color="#fde68a"/>
      <stop offset="100%" stop-color="#d4a233"/>
    </linearGradient>
    <linearGradient id="emerald" x1="0" y1="0" x2="1" y2="0">
      <stop offset="0%" stop-color="#34d399"/>
      <stop offset="100%" stop-color="#10b981"/>
    </linearGradient>
    <filter id="glow" x="-60%" y="-60%" width="220%" height="220%">
      <feGaussianBlur stdDeviation="3" result="b"/>
      <feMerge><feMergeNode in="b"/><feMergeNode in="SourceGraphic"/></feMerge>
    </filter>
    <filter id="bloom" x="-120%" y="-120%" width="340%" height="340%">
      <feGaussianBlur stdDeviation="22"/>
    </filter>
    <filter id="cardShadow" x="-40%" y="-40%" width="180%" height="180%">
      <feDropShadow dx="0" dy="9" stdDeviation="13" flood-color="#000" flood-opacity="0.45"/>
    </filter>
    <pattern id="grid" width="24" height="24" patternUnits="userSpaceOnUse">
      <path d="M24 0H0V24" fill="none" stroke="#22e0ff" stroke-opacity="0.06" stroke-width="1"/>
    </pattern>
</defs>
  <rect width="480" height="160" rx="16" fill="url(#spot)"/>
  <rect width="480" height="160" rx="16" fill="url(#grid)"/>
  <circle cx="80" cy="60" r="60" fill="#7c3aed" filter="url(#bloom)" opacity="0.16"/>
  
  <g transform="translate(86,80) scale(0.78)" filter="url(#cardShadow)">
    <polygon points="0,-46 40,-23 40,23 0,46 -40,23 -40,-23" fill="url(#panel)" stroke="url(#brand)" stroke-width="1.75"/>
    <polygon points="0,-46 40,-23 40,23 0,46 -40,23 -40,-23" fill="url(#glass)"/>
    <polygon points="0,-26 22,-13 22,13 0,26 -22,13 -22,-13" fill="none" stroke="#7cf2ff" stroke-opacity="0.5" stroke-width="1.5"/>
    <text x="0" y="6" text-anchor="middle" fill="#eafcff" font-family="ui-monospace,monospace" font-size="14" font-weight="700">MCP</text>
  </g>
  <text x="170" y="74" fill="#eafcff" font-family="system-ui,sans-serif" font-size="20" font-weight="700">Connect AI Agents</text>
  <text x="170" y="100" fill="#9fb3c8" font-family="system-ui,sans-serif" font-size="13">From prompt to compute in seconds</text>
  <rect width="480" height="160" rx="16" fill="url(#brandSoft)"/>
</svg>
