<svg xmlns="http://www.w3.org/2000/svg" viewBox="0 0 480 160" fill="none">
  <defs>
    <linearGradient id="g" x1="0%" y1="0%" x2="100%" y2="100%">
      <stop offset="0%" stop-color="#00d4ff"/>
      <stop offset="45%" stop-color="#7c3aed"/>
      <stop offset="100%" stop-color="#dc2626"/>
    </linearGradient>
    <linearGradient id="gSoft" x1="0%" y1="100%" x2="100%" y2="0%">
      <stop offset="0%" stop-color="#00d4ff" stop-opacity="0.18"/>
      <stop offset="100%" stop-color="#7c3aed" stop-opacity="0.1"/>
    </linearGradient>
    <linearGradient id="gold" x1="0%" y1="0%" x2="100%" y2="0%">
      <stop offset="0%" stop-color="#fbbf24"/>
      <stop offset="100%" stop-color="#f59e0b"/>
    </linearGradient>
    <filter id="glow" x="-50%" y="-50%" width="200%" height="200%">
      <feGaussianBlur stdDeviation="5" result="b"/>
      <feMerge><feMergeNode in="b"/><feMergeNode in="SourceGraphic"/></feMerge>
    </filter>
    <filter id="softGlow" x="-80%" y="-80%" width="260%" height="260%">
      <feGaussianBlur stdDeviation="14"/>
    </filter>
</defs>
  <rect width="480" height="160" rx="16" fill="#0a0e1a"/>
  <rect width="480" height="160" rx="16" fill="url(#gSoft)"/>
  
  <g filter="url(#glow)" transform="translate(72,140) scale(1.8)" fill="url(#g)">
    <path d="M12 1.8c.38 3.07 1.05 4.96 2.18 6.1 1.13 1.13 3.02 1.8 6.02 2.1-3 .38-4.89 1.05-6.02 2.18-1.13 1.13-1.8 3.02-2.18 6.02-.38-3-1.05-4.89-2.18-6.02-1.13-1.13-3.02-1.8-6.02-2.18 3-.3 4.89-.97 6.02-2.1C10.95 6.76 11.62 4.87 12 1.8Z"/>
  </g>

  <g transform="translate(200,36) scale(0.7)">
  <g filter="url(#glow)" transform="translate(200,108)">
    <polygon points="40,0 80,22 80,66 40,88 0,66 0,22" fill="#111827" stroke="url(#g)" stroke-width="1.5"/>
    <text x="40" y="48" text-anchor="middle" fill="#e2e8f0" font-family="ui-monospace,monospace" font-size="11" font-weight="700">MCP</text>
  </g>
</g>
  <text x="300" y="72" fill="#e2e8f0" font-family="system-ui,sans-serif" font-size="20" font-weight="700">Connect AI Agents</text>
  <text x="300" y="98" fill="#94a3b8" font-family="system-ui,sans-serif" font-size="13">From prompt to compute in seconds</text>
</svg>
