<svg xmlns="http://www.w3.org/2000/svg" viewBox="0 0 480 320" fill="none">
  <defs>
    <linearGradient id="brand" x1="0%" y1="0%" x2="100%" y2="100%">
      <stop offset="0%" stop-color="#22e0ff"/>
      <stop offset="48%" stop-color="#7c3aed"/>
      <stop offset="100%" stop-color="#f43f5e"/>
    </linearGradient>
    <linearGradient id="brandSoft" x1="0" y1="1" x2="1" y2="0">
      <stop offset="0%" stop-color="#22e0ff" stop-opacity="0.14"/>
      <stop offset="100%" stop-color="#f43f5e" stop-opacity="0.04"/>
    </linearGradient>
    <radialGradient id="spot" cx="50%" cy="36%" r="72%">
      <stop offset="0%" stop-color="#1b2740"/>
      <stop offset="100%" stop-color="#070b15"/>
    </radialGradient>
    <linearGradient id="glass" x1="0" y1="0" x2="0" y2="1">
      <stop offset="0%" stop-color="#ffffff" stop-opacity="0.14"/>
      <stop offset="24%" stop-color="#ffffff" stop-opacity="0.04"/>
      <stop offset="100%" stop-color="#ffffff" stop-opacity="0"/>
    </linearGradient>
    <linearGradient id="panel" x1="0" y1="0" x2="0" y2="1">
      <stop offset="0%" stop-color="#16233c"/>
      <stop offset="100%" stop-color="#0b1322"/>
    </linearGradient>
    <radialGradient id="core" cx="50%" cy="42%" r="62%">
      <stop offset="0%" stop-color="#5eeaff"/>
      <stop offset="42%" stop-color="#2a8cff"/>
      <stop offset="100%" stop-color="#0b1b3a"/>
    </radialGradient>
    <linearGradient id="emerald" x1="0" y1="0" x2="1" y2="0">
      <stop offset="0%" stop-color="#34d399"/>
      <stop offset="100%" stop-color="#10b981"/>
    </linearGradient>
    <linearGradient id="violet" x1="0" y1="0" x2="1" y2="1">
      <stop offset="0%" stop-color="#a78bfa"/>
      <stop offset="100%" stop-color="#7c3aed"/>
    </linearGradient>
    <linearGradient id="gold" x1="0" y1="0" x2="0" y2="1">
      <stop offset="0%" stop-color="#fde68a"/>
      <stop offset="100%" stop-color="#d4a233"/>
    </linearGradient>
    <filter id="glow" x="-60%" y="-60%" width="220%" height="220%">
      <feGaussianBlur stdDeviation="3" result="b"/>
      <feMerge><feMergeNode in="b"/><feMergeNode in="SourceGraphic"/></feMerge>
    </filter>
    <filter id="bloom" x="-120%" y="-120%" width="340%" height="340%">
      <feGaussianBlur stdDeviation="24"/>
    </filter>
    <filter id="cardShadow" x="-30%" y="-30%" width="160%" height="160%">
      <feDropShadow dx="0" dy="10" stdDeviation="14" flood-color="#000" flood-opacity="0.45"/>
    </filter>
    <pattern id="grid" width="24" height="24" patternUnits="userSpaceOnUse">
      <path d="M24 0H0V24" fill="none" stroke="#22e0ff" stroke-opacity="0.06" stroke-width="1"/>
    </pattern>
</defs>
  <rect width="480" height="320" rx="28" fill="url(#spot)"/>
  <rect width="480" height="320" rx="28" fill="url(#grid)"/>

  <circle cx="360" cy="240" r="76" fill="#34d399" filter="url(#bloom)" opacity="0.12"/>
  <g filter="url(#cardShadow)">
    <!-- server tower -->
    <rect x="150" y="80" width="120" height="170" rx="14" fill="url(#panel)" stroke="url(#brand)" stroke-width="1.5"/>
    <rect x="150" y="80" width="120" height="170" rx="14" fill="url(#glass)"/>
    <g>
      <rect x="166" y="100" width="88" height="30" rx="6" fill="#0c1526" stroke="#26405f"/>
      <rect x="166" y="138" width="88" height="30" rx="6" fill="#0c1526" stroke="#26405f"/>
      <rect x="166" y="176" width="88" height="30" rx="6" fill="#0c1526" stroke="#26405f"/>
      <circle cx="180" cy="115" r="3.5" fill="#34d399"/><circle cx="180" cy="153" r="3.5" fill="#34d399"/><circle cx="180" cy="191" r="3.5" fill="#22e0ff"/>
      <g stroke="#22e0ff" stroke-opacity="0.5" stroke-width="2"><path d="M196,115 H242 M196,153 H242 M196,191 H236"/></g>
    </g>
  </g>
  <!-- upload arrow to cloud -->
  <path d="M286,150 C330,150 330,120 360,120" stroke="url(#brand)" stroke-width="2" stroke-dasharray="2 8" fill="none" opacity="0.6"/>
  <g transform="translate(360,118)">
    <circle r="30" fill="#0c1526" stroke="url(#gold)" stroke-width="1.5"/>
    <circle r="30" fill="url(#glass)"/>
    <path d="M0,-12 V12 M-7,-5 L0,-12 L7,-5" stroke="url(#gold)" stroke-width="2.4" fill="none" stroke-linecap="round" stroke-linejoin="round"/>
  </g>

  <rect width="480" height="320" rx="28" fill="url(#brandSoft)"/>
</svg>
