<svg xmlns="http://www.w3.org/2000/svg" viewBox="0 0 480 320" fill="none">
  <defs>
    <linearGradient id="brand" x1="0%" y1="0%" x2="100%" y2="100%">
      <stop offset="0%" stop-color="#22e0ff"/>
      <stop offset="48%" stop-color="#7c3aed"/>
      <stop offset="100%" stop-color="#f43f5e"/>
    </linearGradient>
    <linearGradient id="brandSoft" x1="0" y1="1" x2="1" y2="0">
      <stop offset="0%" stop-color="#22e0ff" stop-opacity="0.14"/>
      <stop offset="100%" stop-color="#f43f5e" stop-opacity="0.04"/>
    </linearGradient>
    <radialGradient id="spot" cx="50%" cy="36%" r="72%">
      <stop offset="0%" stop-color="#1b2740"/>
      <stop offset="100%" stop-color="#070b15"/>
    </radialGradient>
    <linearGradient id="glass" x1="0" y1="0" x2="0" y2="1">
      <stop offset="0%" stop-color="#ffffff" stop-opacity="0.14"/>
      <stop offset="24%" stop-color="#ffffff" stop-opacity="0.04"/>
      <stop offset="100%" stop-color="#ffffff" stop-opacity="0"/>
    </linearGradient>
    <linearGradient id="panel" x1="0" y1="0" x2="0" y2="1">
      <stop offset="0%" stop-color="#16233c"/>
      <stop offset="100%" stop-color="#0b1322"/>
    </linearGradient>
    <radialGradient id="core" cx="50%" cy="42%" r="62%">
      <stop offset="0%" stop-color="#5eeaff"/>
      <stop offset="42%" stop-color="#2a8cff"/>
      <stop offset="100%" stop-color="#0b1b3a"/>
    </radialGradient>
    <linearGradient id="emerald" x1="0" y1="0" x2="1" y2="0">
      <stop offset="0%" stop-color="#34d399"/>
      <stop offset="100%" stop-color="#10b981"/>
    </linearGradient>
    <linearGradient id="violet" x1="0" y1="0" x2="1" y2="1">
      <stop offset="0%" stop-color="#a78bfa"/>
      <stop offset="100%" stop-color="#7c3aed"/>
    </linearGradient>
    <linearGradient id="gold" x1="0" y1="0" x2="0" y2="1">
      <stop offset="0%" stop-color="#fde68a"/>
      <stop offset="100%" stop-color="#d4a233"/>
    </linearGradient>
    <filter id="glow" x="-60%" y="-60%" width="220%" height="220%">
      <feGaussianBlur stdDeviation="3" result="b"/>
      <feMerge><feMergeNode in="b"/><feMergeNode in="SourceGraphic"/></feMerge>
    </filter>
    <filter id="bloom" x="-120%" y="-120%" width="340%" height="340%">
      <feGaussianBlur stdDeviation="24"/>
    </filter>
    <filter id="cardShadow" x="-30%" y="-30%" width="160%" height="160%">
      <feDropShadow dx="0" dy="10" stdDeviation="14" flood-color="#000" flood-opacity="0.45"/>
    </filter>
    <pattern id="grid" width="24" height="24" patternUnits="userSpaceOnUse">
      <path d="M24 0H0V24" fill="none" stroke="#22e0ff" stroke-opacity="0.06" stroke-width="1"/>
    </pattern>
</defs>
  <rect width="480" height="320" rx="28" fill="url(#spot)"/>
  <rect width="480" height="320" rx="28" fill="url(#grid)"/>

  <circle cx="120" cy="90" r="78" fill="#7c3aed" filter="url(#bloom)" opacity="0.18"/>
  <g filter="url(#cardShadow)">
    <rect x="86" y="92" width="220" height="96" rx="18" fill="url(#panel)" stroke="url(#violet)" stroke-width="1.5"/>
    <rect x="86" y="92" width="220" height="96" rx="18" fill="url(#glass)"/>
    <path d="M120,188 L120,210 L146,188 Z" fill="url(#panel)" stroke="url(#violet)" stroke-width="1.5"/>
    <g fill="#c4b5fd" opacity="0.85"><rect x="110" y="118" width="120" height="8" rx="4"/><rect x="110" y="136" width="170" height="8" rx="4" opacity="0.6"/><rect x="110" y="154" width="92" height="8" rx="4" opacity="0.4"/></g>
  </g>
  <g filter="url(#cardShadow)">
    <rect x="250" y="176" width="150" height="74" rx="18" fill="#0c1526" stroke="url(#brand)" stroke-width="1.5"/>
    <rect x="250" y="176" width="150" height="74" rx="18" fill="url(#glass)"/>
    <g fill="#7cf2ff" opacity="0.85"><rect x="270" y="198" width="92" height="8" rx="4"/><rect x="270" y="216" width="60" height="8" rx="4" opacity="0.6"/></g>
  </g>
  <g transform="translate(360,96)" filter="url(#glow)">
    <path d="M0,-22 L6,-6 L22,0 L6,6 L0,22 L-6,6 L-22,0 L-6,-6 Z" fill="url(#violet)"/>
    <circle r="4" fill="#eafcff"/>
  </g>

  <rect width="480" height="320" rx="28" fill="url(#brandSoft)"/>
</svg>
