<svg xmlns="http://www.w3.org/2000/svg" viewBox="-40 135 3240 635" width="3240" height="650" role="img" aria-label="Canada compute network map">
  <defs>
    <linearGradient id="provinceFill" x1="0%" y1="0%" x2="100%" y2="100%">
      <stop offset="0%" stop-color="#00d4ff" stop-opacity="0.06"/>
      <stop offset="55%" stop-color="#7c3aed" stop-opacity="0.04"/>
      <stop offset="100%" stop-color="#dc2626" stop-opacity="0.03"/>
    </linearGradient>
    <linearGradient id="arcGrad" x1="0%" y1="0%" x2="100%" y2="0%">
      <stop offset="0%" stop-color="#00d4ff"/>
      <stop offset="100%" stop-color="#7c3aed"/>
    </linearGradient>
    <filter id="dotGlow" x="-200%" y="-200%" width="500%" height="500%">
      <feGaussianBlur stdDeviation="4" result="b"/>
      <feMerge><feMergeNode in="b"/><feMergeNode in="SourceGraphic"/></feMerge>
    </filter>
    <filter id="arcGlow" x="-100%" y="-100%" width="300%" height="300%">
      <feGaussianBlur stdDeviation="3" result="b"/>
      <feMerge><feMergeNode in="b"/><feMergeNode in="SourceGraphic"/></feMerge>
    </filter>
    <filter id="bigGlow" x="-300%" y="-300%" width="700%" height="700%">
      <feGaussianBlur stdDeviation="12" result="b"/>
      <feMerge><feMergeNode in="b"/><feMergeNode in="SourceGraphic"/></feMerge>
    </filter>
    <filter id="starGlow" x="-400%" y="-400%" width="900%" height="900%">
      <feGaussianBlur stdDeviation="18" result="b"/>
      <feMerge><feMergeNode in="b"/><feMergeNode in="SourceGraphic"/></feMerge>
    </filter>
    <filter id="cyanGlow" x="-250%" y="-250%" width="600%" height="600%">
      <feGaussianBlur stdDeviation="8" result="b"/>
      <feMerge><feMergeNode in="b"/><feMergeNode in="SourceGraphic"/></feMerge>
    </filter>
    <filter id="purpleGlow" x="-200%" y="-200%" width="500%" height="500%">
      <feGaussianBlur stdDeviation="5" result="b"/>
      <feMerge><feMergeNode in="b"/><feMergeNode in="SourceGraphic"/></feMerge>
    </filter>
    <!-- Transatlantic arc gradients -->
    <!-- Main arc (touches dot): multicolor like city connections -->
    <linearGradient id="transArcMainGrad" x1="0%" y1="0%" x2="100%" y2="0%">
      <stop offset="0%" stop-color="#00d4ff" stop-opacity="0.7"/>
      <stop offset="18%" stop-color="#00d4ff" stop-opacity="0.6"/>
      <stop offset="30%" stop-color="#7c3aed" stop-opacity="0.75"/>
      <stop offset="45%" stop-color="#7c3aed" stop-opacity="0.7"/>
      <stop offset="55%" stop-color="#10b981" stop-opacity="0.6"/>
      <stop offset="70%" stop-color="#7c3aed" stop-opacity="0.7"/>
      <stop offset="82%" stop-color="#00d4ff" stop-opacity="0.55"/>
      <stop offset="100%" stop-color="#7c3aed" stop-opacity="0.65"/>
    </linearGradient>
    <!-- Purple arc (no dot): fades out -->
    <linearGradient id="transArcPurpleGrad" x1="0%" y1="0%" x2="100%" y2="0%">
      <stop offset="0%" stop-color="#7c3aed" stop-opacity="0.75"/>
      <stop offset="35%" stop-color="#7c3aed" stop-opacity="0.55"/>
      <stop offset="70%" stop-color="#7c3aed" stop-opacity="0.25"/>
      <stop offset="100%" stop-color="#7c3aed" stop-opacity="0"/>
    </linearGradient>
    <!-- Cyan arc (no dot): builds intensity left to right -->
    <linearGradient id="transArcCyanGrad" x1="0%" y1="0%" x2="100%" y2="0%">
      <stop offset="0%" stop-color="#00d4ff" stop-opacity="0.3"/>
      <stop offset="35%" stop-color="#00d4ff" stop-opacity="0.35"/>
      <stop offset="65%" stop-color="#00d4ff" stop-opacity="0.5"/>
      <stop offset="100%" stop-color="#00d4ff" stop-opacity="0.6"/>
    </linearGradient>
    <!-- Cyan arc taper overlay: builds width toward right side -->
    <linearGradient id="transArcCyanTaper" x1="0%" y1="0%" x2="100%" y2="0%">
      <stop offset="0%" stop-color="#00d4ff" stop-opacity="0.1"/>
      <stop offset="30%" stop-color="#00d4ff" stop-opacity="0.15"/>
      <stop offset="60%" stop-color="#00d4ff" stop-opacity="0.25"/>
      <stop offset="85%" stop-color="#00d4ff" stop-opacity="0.3"/>
      <stop offset="100%" stop-color="#00d4ff" stop-opacity="0.15"/>
    </linearGradient>
    <!-- Green arc (no dot): fades out -->
    <linearGradient id="transArcGreenGrad" x1="0%" y1="0%" x2="100%" y2="0%">
      <stop offset="0%" stop-color="#10b981" stop-opacity="0.7"/>
      <stop offset="30%" stop-color="#10b981" stop-opacity="0.5"/>
      <stop offset="65%" stop-color="#10b981" stop-opacity="0.2"/>
      <stop offset="100%" stop-color="#10b981" stop-opacity="0"/>
    </linearGradient>
    <!-- Glow gradients for landing dots -->
    <radialGradient id="landingGlow" cx="50%" cy="50%" r="50%">
      <stop offset="0%" stop-color="#10b981" stop-opacity="0.7"/>
      <stop offset="30%" stop-color="#10b981" stop-opacity="0.25"/>
      <stop offset="100%" stop-color="#10b981" stop-opacity="0"/>
    </radialGradient>
    <radialGradient id="cyanLandingGlow" cx="50%" cy="50%" r="50%">
      <stop offset="0%" stop-color="#00d4ff" stop-opacity="0.5"/>
      <stop offset="35%" stop-color="#00d4ff" stop-opacity="0.15"/>
      <stop offset="100%" stop-color="#00d4ff" stop-opacity="0"/>
    </radialGradient>
    <radialGradient id="purpleLandingGlow" cx="50%" cy="50%" r="50%">
      <stop offset="0%" stop-color="#7c3aed" stop-opacity="0.4"/>
      <stop offset="40%" stop-color="#7c3aed" stop-opacity="0.1"/>
      <stop offset="100%" stop-color="#7c3aed" stop-opacity="0"/>
    </radialGradient>
    <!-- Opacity mask gradients (white = visible, black = hidden) -->
    <linearGradient id="topFadeGrad" x1="0" y1="0" x2="0" y2="1">
      <stop offset="0%" stop-color="black"/>
      <stop offset="7%" stop-color="black"/>
      <stop offset="18%" stop-color="#444"/>
      <stop offset="30%" stop-color="#aaa"/>
      <stop offset="42%" stop-color="white"/>
      <stop offset="100%" stop-color="white"/>
    </linearGradient>
    <linearGradient id="leftFadeGrad" x1="0" y1="0" x2="1" y2="0">
      <stop offset="0%" stop-color="black"/>
      <stop offset="55%" stop-color="black"/>
      <stop offset="65%" stop-color="#444"/>
      <stop offset="78%" stop-color="#aaa"/>
      <stop offset="90%" stop-color="white"/>
      <stop offset="100%" stop-color="white"/>
    </linearGradient>
    <linearGradient id="rightFadeGrad" x1="0" y1="0" x2="1" y2="0">
      <stop offset="0%" stop-color="white"/>
      <stop offset="40%" stop-color="white"/>
      <stop offset="75%" stop-color="#333"/>
      <stop offset="100%" stop-color="black"/>
    </linearGradient>
    <mask id="topFade" maskUnits="userSpaceOnUse" x="-200" y="0" width="3600" height="750">
      <rect x="-200" y="0" width="3600" height="750" fill="url(#topFadeGrad)"/>
      <rect x="900" y="0" width="2700" height="750" fill="white"/>
    </mask>
    <mask id="leftFade" maskUnits="userSpaceOnUse" x="-200" y="0" width="3600" height="750">
      <rect x="-200" y="0" width="370" height="750" fill="url(#leftFadeGrad)"/>
      <rect x="170" y="0" width="3430" height="750" fill="white"/>
    </mask>
    <mask id="rightFade" maskUnits="userSpaceOnUse" x="-200" y="0" width="3600" height="750">
      <rect x="-200" y="0" width="3600" height="750" fill="white"/>
    </mask>
    <style>
      .bg{fill:none}
      .land{fill:url(#provinceFill);stroke:currentColor;stroke-width:1.0;stroke-opacity:.38;stroke-linejoin:round;stroke-linecap:round}
      .ghost{fill:none;stroke:#00d4ff;stroke-width:.5;stroke-opacity:.12;stroke-linejoin:round;stroke-linecap:round}
      .ghost-lon{fill:none;stroke:#7c3aed;stroke-width:.4;stroke-opacity:.08;stroke-linejoin:round;stroke-linecap:round}
      .water{fill:none}
      .arc{fill:none;stroke:url(#arcGrad);stroke-width:1.6;opacity:.55;stroke-linecap:round;filter:url(#arcGlow)}
      .core{filter:url(#dotGlow);animation:twinkle ease-in-out infinite}
      .alaska{fill:url(#provinceFill);stroke:currentColor;stroke-width:1.0;stroke-opacity:.38;stroke-linejoin:round;stroke-linecap:round}
      .frame{fill:none;stroke:#00d4ff;stroke-width:.4;stroke-opacity:.08;rx:4}
      .landing-dot{animation:landingPulse 4s ease-in-out infinite}
      .energy-arc{fill:none;stroke-linecap:round;stroke-dasharray:250 5000;animation:energyFlow 16s linear infinite}
      @keyframes twinkle{0%,100%{opacity:1}50%{opacity:.35}}
      @keyframes landingPulse{0%,100%{opacity:1}50%{opacity:.25}}
      @keyframes energyFlow{from{stroke-dashoffset:5250}to{stroke-dashoffset:0}}
    </style>
  </defs>

  <!-- All content wrapped in mask for edge fades -->
  <g mask="url(#topFade)"><g mask="url(#leftFade)"><g mask="url(#rightFade)">
  <rect class="bg" width="1000" height="750"/>




  <!-- Water Bodies -->
  <g>
    <path class="water" d="M521.2,413.7L528.7,441.3L529.1,468.4L544.1,492.8L555.5,508.3L590.8,520.6L615.8,525.5L632.1,534.5L646.6,534.1L660.9,532.1L679.2,570.0L692.2,582.4L703.5,587.8L698.5,567.1L688.5,546.5L678.5,504.3L669.5,485.9L655.0,462.4L630.2,429.8L607.6,404.2L588.8,396.7L572.3,402.5L555.9,410.2L537.4,402.3L521.2,413.7Z">
      <title>Hudson Bay</title>
    </path>
    <path class="water" d="M580.3,660.5L591.8,657.9L607.5,654.8L617.5,649.7L627.7,647.1L638.9,649.6L649.6,649.4L659.2,654.6L661.6,655.6L660.5,650.5L654.3,646.2L648.4,643.0L641.9,637.4L635.5,631.6L625.6,635.5L614.7,634.3L605.4,642.0L595.9,649.6L591.0,652.8L580.3,660.5Z">
      <title>Lake Superior</title>
    </path>
    <path class="water" d="M662.6,660.4L674.4,665.2L687.6,675.8L695.5,686.9L694.7,693.1L689.9,686.5L683.6,682.5L676.2,673.6L670.4,672.0L663.8,666.6L662.6,660.4Z">
      <title>Lake Huron</title>
    </path>
    <path class="water" d="M684.0,710.2L694.8,708.7L705.4,705.9L715.4,701.9L724.7,694.5L729.2,690.2L723.6,689.8L713.8,695.0L704.0,700.1L694.0,705.1L684.0,710.2Z">
      <title>Lake Erie</title>
    </path>
    <path class="water" d="M719.6,686.8L727.7,684.4L738.2,682.6L747.9,678.7L752.2,674.2L753.5,671.5L750.9,669.4L746.3,672.8L736.9,678.0L727.1,682.0L719.6,686.8Z">
      <title>Lake Ontario</title>
    </path>
  </g>

  <!-- Provinces -->
  <g color="#d7e6ff">
    <path class="land" data-name="Quebec" d="M901.8,545.3L889.6,549.9L887.7,553.9L888.9,557.4L887.5,555.8L881.9,566.5L868.5,570.7L869.3,569.3L858.5,569.7L825.2,577.0L820.7,584.1L820.7,590.8L814.0,592.8L812.3,596.0L811.4,594.3L804.1,609.9L789.6,608.4L803.7,610.2L801.4,618.7L793.9,629.9L800.3,625.4L811.2,605.5L828.4,592.1L843.6,587.8L852.8,592.2L848.6,591.3L853.6,595.2L845.9,603.5L839.2,602.1L827.1,609.4L824.2,607.8L817.3,610.1L818.7,614.7L813.5,619.1L811.0,617.5L806.8,628.2L805.9,634.8L807.3,638.3L804.2,643.8L805.5,645.1L798.0,648.3L798.3,651.1L766.2,657.1L769.7,654.0L767.7,652.8L767.6,649.7L748.5,654.3L742.4,650.0L740.6,651.4L733.9,647.8L721.6,647.5L709.3,635.0L698.5,589.1L701.2,591.5L698.4,588.8L696.3,581.1L699.1,579.5L704.6,585.4L703.3,582.2L705.0,580.8L700.6,577.2L705.1,569.9L700.5,565.8L699.0,563.2L700.1,561.4L696.8,559.8L696.8,556.2L693.9,553.1L695.6,552.0L692.8,550.2L694.8,548.4L692.2,546.5L693.4,545.5L690.3,544.9L692.2,543.1L688.9,543.5L686.3,538.0L683.7,537.1L700.1,525.1L707.2,511.8L707.1,506.4L704.3,495.6L699.6,487.1L691.8,479.6L680.1,474.1L678.7,468.4L680.9,468.9L684.8,460.1L682.7,460.0L682.7,454.9L687.4,456.7L684.8,454.8L686.5,452.7L684.9,450.9L689.7,445.8L682.5,448.6L684.2,447.2L680.1,442.6L682.4,440.1L678.4,439.0L680.3,435.1L674.6,436.8L677.2,428.9L675.3,424.5L677.6,422.6L672.2,419.7L668.7,410.0L673.6,403.4L690.4,407.1L688.4,409.5L692.5,405.9L699.9,408.7L697.8,406.3L705.5,400.8L715.9,406.1L715.8,411.3L717.7,411.6L717.0,409.1L723.4,413.0L721.2,415.4L723.5,412.4L727.2,413.8L725.4,417.3L728.1,417.3L726.3,418.2L729.3,421.7L741.6,421.0L742.7,424.5L744.8,425.4L746.9,420.3L749.5,424.6L747.1,430.2L751.1,437.6L739.2,439.8L752.6,441.0L753.7,450.3L758.6,450.9L756.3,452.6L758.3,453.6L758.0,458.4L754.1,454.9L755.7,458.4L752.2,460.1L754.9,459.6L756.8,462.4L761.0,456.3L768.3,457.1L770.8,460.7L771.6,467.6L764.6,474.8L771.6,469.1L772.3,459.9L774.8,463.9L773.7,468.1L775.1,461.3L778.0,469.8L778.2,463.9L784.5,459.2L784.0,453.6L789.6,456.3L789.9,461.0L790.6,456.7L787.3,453.9L789.5,452.2L787.6,451.7L787.9,449.6L792.4,448.3L788.5,447.2L789.8,445.0L788.5,443.2L790.9,444.6L788.1,441.3L793.4,442.3L786.8,437.3L791.3,436.1L788.6,434.3L788.9,427.7L792.0,426.3L789.6,427.4L792.6,429.6L790.4,431.1L793.1,432.7L793.9,439.6L798.1,439.4L798.0,444.5L801.1,447.1L796.6,449.5L809.2,450.2L804.9,452.2L807.9,455.2L804.9,462.2L809.7,466.6L813.7,466.3L816.0,479.9L814.7,482.9L818.2,486.7L815.7,487.2L816.7,489.1L819.3,490.0L818.9,492.2L824.0,492.2L822.6,495.0L830.5,501.5L827.7,504.5L829.4,507.4L829.3,513.0L811.3,515.0L798.8,507.7L802.3,516.2L794.4,512.6L799.9,518.5L795.2,520.2L797.7,524.7L795.9,527.7L800.4,531.1L800.7,533.7L807.1,536.4L808.6,545.6L811.1,545.6L811.2,541.5L813.8,540.5L816.6,551.4L817.5,549.5L823.0,552.3L828.6,549.4L834.8,553.1L834.1,554.4L836.1,556.7L838.0,553.7L836.4,550.8L837.4,548.0L833.5,538.6L836.5,534.2L841.6,539.9L836.3,543.6L841.6,547.6L841.5,549.3L898.7,537.5L901.8,545.3ZM853.9,577.2L873.5,582.7L860.3,584.3L844.6,578.7L853.9,577.2ZM685.7,511.1L684.7,518.5L684.8,510.0L683.9,518.4L683.8,512.6L681.9,518.8L679.6,520.3L680.9,514.6L678.5,519.7L676.9,518.9L680.2,512.6L679.8,508.1L680.0,514.8L681.3,513.5L681.2,506.7L685.7,511.1Z"/>
    <path class="land" data-name="Newfoundland and Labrador" d="M792.0,426.3L793.6,427.1L790.6,427.8L792.1,427.0L793.0,427.5L792.6,428.4L794.1,428.4L791.3,432.0L794.4,429.0L794.8,430.9L793.2,431.5L795.0,431.7L794.5,433.1L796.3,431.0L795.2,430.2L796.5,430.3L795.9,431.8L797.1,432.2L796.7,433.0L797.6,432.4L797.4,435.0L800.6,436.3L799.8,438.7L800.2,436.7L801.4,437.0L800.9,438.6L803.1,438.1L802.9,439.9L800.9,440.7L804.0,440.5L803.9,442.8L805.4,440.6L805.7,442.9L807.1,441.3L807.6,444.0L803.1,446.7L804.0,445.9L805.0,447.5L804.5,446.3L808.1,444.4L810.5,444.7L808.9,445.5L810.9,446.9L809.9,448.3L812.4,447.3L812.2,447.7L813.7,448.6L813.1,450.2L814.5,449.8L814.7,451.7L813.2,453.6L810.4,454.7L812.0,454.6L810.8,457.5L812.6,454.4L814.0,454.2L813.9,455.6L818.3,453.0L817.9,454.3L818.7,456.0L816.9,457.9L819.5,457.2L815.9,459.0L816.3,459.2L814.6,462.2L820.8,457.6L821.1,459.6L821.8,458.6L821.6,459.1L822.8,459.8L820.4,461.9L821.9,461.0L823.0,462.5L822.9,460.6L823.3,461.7L824.6,460.4L825.6,461.4L825.6,463.0L828.4,465.2L825.7,468.8L823.8,468.3L829.6,468.6L830.7,469.4L829.6,469.4L830.6,470.6L829.5,471.4L832.0,472.5L832.8,470.9L832.7,472.2L835.8,472.8L836.7,474.8L835.4,474.6L834.8,477.4L832.9,478.1L833.5,479.5L834.9,478.7L834.1,479.3L835.6,480.4L828.1,479.2L831.5,477.7L827.2,479.2L833.7,480.8L831.2,481.4L836.4,481.6L832.8,483.7L838.2,485.2L834.2,486.0L835.9,486.9L840.5,485.8L840.6,487.3L841.4,487.5L840.6,488.4L842.5,488.2L840.4,489.2L841.5,489.7L843.9,489.1L844.6,490.1L843.6,490.5L844.7,490.8L847.5,490.3L846.7,492.4L849.0,490.5L849.7,494.3L849.9,490.5L851.4,490.4L850.7,493.6L851.8,493.3L852.0,494.9L853.1,494.2L852.6,497.1L853.0,494.8L853.1,495.7L853.5,494.6L854.5,495.5L853.3,496.2L852.4,500.0L854.2,498.3L852.8,502.5L855.5,497.5L855.8,498.9L856.9,497.5L855.9,501.5L858.4,496.2L859.6,498.0L858.2,499.6L861.5,497.4L862.5,498.3L860.3,504.8L864.1,496.5L864.8,497.6L863.7,500.6L865.7,497.4L866.7,498.1L866.5,499.8L867.9,500.1L867.3,501.2L868.2,500.6L868.4,501.5L877.8,501.3L882.8,502.7L882.3,503.3L883.0,503.9L880.5,504.9L882.9,504.6L881.4,506.1L877.4,507.2L876.7,508.1L878.0,507.6L877.3,508.8L873.7,511.2L867.1,514.0L869.8,513.9L876.1,509.4L875.2,512.4L871.8,513.3L872.8,513.5L869.2,516.9L863.8,518.8L865.1,519.6L865.1,522.3L857.3,519.4L857.4,521.1L860.9,520.8L866.0,522.5L863.6,525.0L865.7,524.9L864.2,526.3L866.6,525.9L866.0,525.0L868.3,522.4L867.1,521.8L873.2,518.3L872.8,516.7L873.8,514.2L879.0,510.9L882.0,510.7L877.3,511.3L876.4,510.0L884.3,508.4L889.2,512.8L886.5,516.9L888.6,516.6L888.9,518.7L890.3,514.2L894.5,512.3L895.2,513.2L892.9,514.2L899.3,514.4L899.9,515.4L897.5,515.3L900.7,516.5L900.4,517.2L902.3,517.2L901.7,517.9L903.4,518.3L902.9,519.1L903.9,519.9L902.4,520.6L903.2,521.6L901.1,522.1L903.7,522.4L905.2,524.0L902.4,525.2L906.8,526.5L903.5,527.1L904.9,527.2L905.1,528.3L900.7,528.5L908.7,529.1L909.0,530.0L908.1,530.7L904.0,530.1L908.9,531.0L908.5,532.0L910.0,532.1L908.8,532.3L910.1,533.7L901.8,545.3L898.7,537.5L841.5,549.3L840.4,548.5L842.3,548.7L841.6,547.6L838.4,546.2L837.2,544.6L837.8,544.1L836.3,543.6L837.7,541.2L841.6,539.9L839.1,538.7L838.5,535.8L836.5,534.2L834.7,535.0L835.4,538.0L833.5,538.6L834.7,542.8L836.8,544.9L837.4,548.0L836.3,548.5L836.4,550.8L838.0,553.7L836.1,556.7L834.1,554.4L834.8,553.1L828.6,549.4L825.3,549.6L825.0,551.9L823.0,551.4L823.0,552.3L820.3,551.9L819.8,550.5L817.5,549.5L817.8,552.0L816.6,551.4L815.6,549.9L816.3,548.4L814.2,544.4L814.9,541.8L813.8,540.5L812.3,539.9L811.2,541.5L812.1,544.5L811.1,545.6L810.1,544.6L810.3,545.6L808.6,545.6L807.4,542.2L807.1,536.4L805.4,536.1L804.1,534.0L800.7,533.7L800.4,531.1L795.9,527.7L797.7,524.7L796.2,523.1L795.2,520.2L798.1,520.7L798.4,519.0L799.9,518.5L798.1,518.1L794.4,512.6L802.3,516.2L802.9,515.3L801.0,513.2L801.5,512.7L800.0,511.1L800.2,509.5L798.2,508.0L798.8,507.7L805.1,511.8L808.9,512.4L811.3,515.0L823.0,512.1L829.3,513.0L829.4,507.4L828.0,506.4L827.7,504.5L830.5,501.5L829.1,499.0L826.2,498.4L822.6,495.0L822.2,493.8L824.0,492.2L818.9,492.2L819.3,490.0L816.7,489.1L815.7,487.2L818.2,486.7L814.7,482.9L816.0,479.9L814.9,477.2L815.2,474.4L813.9,474.4L814.7,472.2L813.2,469.1L813.7,466.3L813.3,467.7L810.7,465.9L809.7,466.6L807.1,462.7L804.9,462.2L805.7,457.6L807.9,455.2L806.8,453.8L805.2,454.2L804.9,452.2L809.2,450.2L806.2,448.7L803.6,451.3L801.7,449.3L796.6,449.5L797.3,446.9L801.1,447.1L798.0,444.5L797.1,440.7L798.1,439.4L795.4,440.8L793.9,439.6L792.5,434.8L793.1,432.7L790.4,431.1L792.6,429.6L789.6,427.4L792.0,426.3ZM915.1,550.2L914.0,552.4L912.6,550.4L914.2,553.3L913.1,557.3L912.3,557.4L913.0,557.7L913.1,558.7L912.2,561.0L912.9,564.9L912.1,566.2L913.2,566.2L913.5,568.7L916.7,559.7L917.6,560.6L917.3,562.7L918.7,560.9L921.0,561.9L923.3,560.9L919.7,564.6L919.2,567.0L921.5,565.0L920.3,568.8L922.5,567.0L924.5,568.5L925.2,567.0L925.5,568.6L926.5,566.4L926.3,567.5L927.2,567.0L926.5,568.4L927.6,567.5L928.0,568.7L928.1,567.5L926.8,566.0L928.1,565.5L928.7,572.2L930.0,570.9L929.3,571.3L928.7,570.2L930.2,568.6L929.6,567.7L930.8,568.4L930.6,569.3L931.8,568.1L931.3,566.7L932.3,568.3L934.0,564.2L933.9,565.6L934.6,565.1L935.2,567.8L935.4,565.5L936.9,566.0L937.7,564.2L943.9,565.9L943.2,567.9L943.8,568.9L941.8,569.4L942.8,569.4L940.1,572.9L943.0,571.8L941.7,573.4L943.1,574.5L944.0,573.6L942.9,574.0L943.3,572.8L944.8,573.8L945.6,573.2L943.4,575.6L945.2,575.0L945.2,575.7L942.4,578.0L944.6,576.3L945.2,577.6L945.9,575.0L945.8,576.5L946.5,575.1L946.9,576.6L947.4,573.6L949.4,574.5L949.9,572.0L951.2,573.0L950.7,576.5L949.2,576.4L949.5,577.7L947.7,579.7L945.0,579.4L946.1,581.2L948.2,580.8L946.3,581.9L948.8,581.0L948.9,582.9L948.0,583.1L948.8,583.6L948.6,584.7L947.0,583.9L949.7,586.5L950.2,585.6L951.0,587.4L951.9,587.0L951.7,581.0L954.0,578.1L955.1,578.9L953.9,585.6L954.8,585.5L954.3,586.3L956.0,587.7L957.3,585.5L957.0,582.3L960.0,585.7L959.4,591.1L960.3,591.8L960.2,596.6L959.3,597.1L958.3,596.0L957.5,596.8L957.4,596.0L955.7,597.7L955.6,594.5L954.7,596.0L955.1,593.8L953.8,593.8L954.4,591.9L953.4,590.9L951.9,595.9L949.9,596.7L949.4,591.5L950.2,591.5L949.2,590.6L950.3,588.8L949.1,588.7L948.8,587.2L946.5,584.5L944.0,584.0L945.0,585.4L944.3,589.3L945.0,589.7L943.6,591.2L944.2,587.8L943.5,590.8L941.5,590.8L941.2,594.1L940.2,594.5L941.2,595.3L940.7,596.5L940.1,595.8L940.5,597.5L939.5,598.6L937.9,597.9L936.4,599.4L933.9,598.7L934.3,597.0L937.2,595.5L938.2,591.3L941.4,587.6L938.5,589.3L938.8,586.7L938.3,589.6L937.7,588.6L934.9,588.5L936.2,591.1L935.1,592.6L934.3,592.2L934.1,591.0L932.0,592.8L932.8,590.6L929.6,592.6L933.4,589.3L931.0,590.1L930.8,586.2L930.9,588.4L929.6,589.9L928.0,588.5L929.0,590.8L927.9,591.3L927.2,589.9L927.6,591.5L923.9,592.1L924.6,592.7L924.2,593.3L920.2,592.8L915.1,594.2L913.7,593.4L909.8,595.0L910.0,593.5L909.2,595.3L903.5,597.5L901.6,597.2L901.2,595.4L899.4,593.8L904.0,585.9L906.4,584.1L898.0,586.6L897.9,585.8L900.7,581.9L899.9,584.3L902.2,584.3L902.6,576.5L903.0,577.5L907.3,577.6L904.5,576.4L906.7,575.2L904.8,576.0L905.8,574.6L903.5,575.0L902.5,573.3L903.7,570.7L905.3,572.1L905.0,571.1L906.7,571.3L904.8,570.8L903.5,569.1L903.8,556.4L905.6,555.7L903.0,555.1L905.9,551.3L903.9,550.4L905.6,550.1L904.7,549.8L906.0,548.2L905.7,545.5L910.9,540.2L911.5,540.3L911.8,542.0L914.0,541.8L912.6,540.9L913.3,539.9L915.3,540.0L914.7,541.2L915.5,541.6L915.1,543.9L910.6,544.0L912.8,546.6L913.5,545.2L914.9,545.7L915.1,550.2ZM836.8,475.4L835.7,478.0L837.3,477.6L838.0,479.9L835.4,478.5L835.2,475.2L836.8,475.4ZM791.0,425.5L788.5,424.2L790.2,423.3L791.6,425.0L792.4,424.4L793.0,426.5L791.0,425.5Z"/>
    <path class="land" data-name="British Columbia" d="M317.4,650.0L257.8,651.3L256.1,647.6L260.3,645.4L256.1,646.9L257.7,641.8L253.5,646.2L248.8,642.9L250.2,641.4L251.5,644.6L254.0,641.9L250.4,641.1L252.0,635.8L250.6,634.9L252.1,636.5L250.1,637.8L250.5,640.2L249.6,638.9L247.0,641.5L242.9,638.5L243.8,633.4L247.5,631.0L240.4,633.5L243.6,625.0L239.6,632.3L235.9,631.7L237.7,628.1L234.6,632.2L229.4,631.1L235.1,628.6L237.4,625.1L236.5,622.9L235.8,627.2L232.9,628.7L230.2,628.9L232.2,627.1L230.9,626.1L227.3,626.6L231.2,625.1L228.1,623.2L226.3,626.1L219.6,625.3L219.0,622.9L226.2,624.2L227.1,622.2L216.5,622.0L222.7,619.8L216.9,619.7L220.1,615.6L228.6,614.2L220.9,614.9L222.1,612.1L218.9,614.4L220.5,614.9L218.5,617.9L216.7,614.9L217.2,611.6L224.6,605.7L228.5,610.4L226.7,605.8L228.7,604.7L224.6,604.7L227.6,598.1L220.5,605.9L218.1,607.2L218.6,602.9L216.6,604.6L218.7,601.8L213.3,606.0L218.1,597.0L214.1,598.3L214.4,593.7L211.3,591.6L210.8,587.7L214.8,590.7L218.2,589.2L220.2,592.2L218.5,588.5L214.7,589.4L212.4,586.6L213.3,584.0L216.0,583.4L214.1,582.6L215.3,580.5L211.8,584.3L211.4,582.5L207.4,590.1L201.7,581.8L202.6,578.6L205.2,581.8L203.8,578.2L208.1,577.4L202.1,578.6L201.4,575.0L199.4,575.6L200.6,571.4L203.9,576.0L202.9,575.0L204.2,573.2L202.6,574.5L201.0,571.0L205.3,571.8L203.2,568.3L208.5,565.8L205.2,565.6L210.9,558.5L208.7,559.6L208.3,556.1L207.9,560.4L204.1,565.9L206.3,561.5L205.5,554.1L207.1,548.4L193.3,540.8L191.6,536.5L192.7,533.8L190.3,533.0L191.5,531.1L184.8,510.4L174.6,496.4L175.0,491.3L171.9,487.3L164.4,490.7L165.1,492.1L163.0,493.0L161.1,498.3L153.1,502.6L153.2,496.9L144.9,483.6L302.7,482.6L294.1,582.7L296.3,585.2L294.6,587.0L305.0,592.5L309.2,603.4L311.4,601.6L313.8,602.8L313.5,605.7L317.8,605.8L321.2,612.5L323.8,611.1L332.9,624.1L338.9,627.8L342.2,634.7L341.1,640.9L347.8,648.5L317.4,650.0ZM220.0,640.1L219.1,638.6L220.9,636.1L213.2,636.5L215.0,634.9L213.7,631.7L218.0,633.0L217.1,631.0L218.7,630.0L214.6,629.6L217.0,630.8L212.5,632.0L209.8,627.5L214.8,626.2L237.0,633.7L241.5,645.3L249.2,648.4L252.1,657.7L253.8,655.7L254.5,658.7L251.3,660.6L237.1,655.2L241.0,648.3L239.6,651.5L233.8,652.6L230.4,650.4L233.3,648.8L231.6,649.6L231.9,646.6L229.4,648.0L230.8,645.7L224.3,646.2L224.7,643.7L229.4,642.4L224.8,642.1L223.0,638.6L220.0,640.1ZM176.2,586.9L174.7,584.1L176.1,578.3L180.3,579.2L179.1,581.8L181.7,579.5L183.6,580.9L182.4,584.2L178.3,585.7L181.0,585.9L179.7,587.3L182.9,585.4L183.6,580.3L188.5,578.6L183.3,592.1L178.4,593.4L176.7,591.1L179.7,590.9L176.2,586.9ZM188.8,607.1L186.8,608.5L179.3,596.6L181.4,595.7L177.8,593.6L185.0,592.1L186.2,595.2L182.6,595.0L185.7,596.8L182.3,597.5L185.1,598.7L183.2,600.0L188.8,607.1ZM212.3,600.7L210.7,601.6L212.5,596.3L210.7,600.7L208.1,599.0L210.9,595.3L209.6,593.7L210.6,595.3L207.6,596.8L209.3,591.5L213.3,593.6L212.3,600.7ZM205.6,592.1L200.0,582.7L206.5,589.4L205.6,592.1ZM198.3,586.6L203.0,593.2L196.9,587.6L198.3,586.6Z"/>
    <path class="land" data-name="Nunavut" d="M523.0,265.9L542.5,269.7L534.1,272.9L541.0,278.8L547.4,298.9L550.5,274.5L560.7,281.0L566.1,294.5L562.7,303.6L574.6,322.2L579.6,315.9L581.4,282.9L589.0,275.2L582.4,272.7L577.7,255.2L603.8,257.9L596.4,261.4L612.9,268.1L608.7,276.3L615.9,280.9L606.0,287.0L621.5,308.8L608.9,334.9L602.4,323.9L591.8,324.3L601.2,328.4L605.7,339.5L580.5,334.4L589.0,341.4L579.8,360.5L543.7,351.0L584.0,363.8L577.4,385.3L560.3,387.3L563.4,390.8L559.4,389.9L561.0,397.5L529.1,389.2L558.9,408.8L543.8,415.0L549.3,418.2L542.8,418.9L545.3,427.6L538.8,424.7L542.4,427.3L535.6,432.4L539.3,435.8L532.6,444.3L529.1,468.4L463.5,474.1L459.0,394.8L396.1,386.5L385.5,372.9L370.4,373.6L307.2,320.4L308.8,282.7L346.9,295.6L359.7,309.2L347.0,321.5L389.4,316.7L406.4,332.3L401.5,335.8L413.4,352.9L408.5,344.2L409.5,337.0L414.3,342.4L406.9,313.9L424.1,299.5L399.5,310.0L403.1,301.7L419.4,292.5L434.0,313.4L452.5,320.1L483.4,315.2L481.0,308.4L494.1,317.0L479.4,302.1L485.9,297.2L497.8,301.6L495.5,308.9L502.0,301.8L499.2,321.1L509.5,331.9L500.3,330.5L506.5,340.7L503.6,333.2L510.5,331.6L505.9,306.9L521.1,291.9L516.5,281.6L510.9,289.9L514.7,279.6L512.0,276.2L519.0,273.7L495.8,263.6L491.9,253.4L496.6,241.3L490.3,239.6L489.9,226.5L502.4,209.0L497.6,207.2L509.4,211.3L516.2,222.3L517.1,235.3L531.1,252.7L524.2,251.0L528.2,256.4L523.0,265.9ZM779.5,303.0L769.2,311.1L778.2,316.5L769.3,315.8L777.1,321.0L772.1,319.7L775.9,326.2L767.2,320.2L773.2,341.3L753.2,326.9L758.1,312.6L748.6,323.1L749.4,313.3L746.0,319.6L735.9,310.0L731.1,312.3L736.3,318.0L729.5,314.1L739.1,325.6L724.9,321.9L731.7,323.2L729.4,324.3L734.8,328.3L735.2,335.3L739.5,330.9L749.6,348.0L763.4,350.9L760.4,355.6L773.2,366.6L774.5,374.5L766.1,364.6L776.6,380.7L770.9,379.8L774.4,387.5L757.9,374.7L760.9,381.7L745.7,369.2L749.8,376.1L737.1,370.7L771.8,400.9L748.8,398.1L718.2,385.2L713.3,380.7L719.9,376.4L710.7,376.6L711.4,371.8L699.1,366.3L697.7,358.6L693.1,366.1L691.4,358.0L685.8,355.3L683.5,357.8L688.1,365.9L677.4,362.7L672.7,372.0L657.1,363.6L660.7,347.2L675.1,350.1L680.7,360.0L680.5,352.0L673.2,348.4L692.4,342.8L681.0,329.3L692.8,302.5L677.4,281.5L679.1,278.8L673.3,278.8L673.3,272.2L669.5,276.2L663.2,270.6L663.3,264.0L651.1,275.1L656.6,261.4L642.3,252.8L642.4,245.2L638.6,250.7L635.9,239.8L623.4,228.3L620.6,236.0L629.0,248.5L605.4,245.4L613.3,254.7L595.3,241.7L606.7,249.8L575.9,252.2L568.6,246.7L568.7,239.1L558.6,247.7L542.6,226.6L562.2,227.1L539.2,219.9L535.5,204.1L539.3,162.0L563.0,144.2L566.2,146.4L557.2,178.5L562.0,186.9L562.4,198.8L577.3,217.6L563.6,227.1L579.1,227.0L577.4,207.3L565.1,198.5L579.0,196.6L564.0,172.8L577.2,175.6L564.5,168.8L578.4,168.4L566.1,162.4L589.5,144.4L604.0,172.9L598.3,188.0L603.2,179.7L603.1,197.7L611.2,189.7L606.7,184.4L608.1,179.3L627.1,198.4L616.6,185.9L630.6,187.2L617.6,179.8L622.6,169.9L641.1,174.9L644.6,181.7L636.3,194.1L650.7,186.0L645.5,202.6L649.8,197.0L649.9,211.1L657.1,193.7L653.9,204.3L657.9,198.9L660.8,204.0L659.0,213.2L664.0,206.7L663.2,214.7L665.2,195.6L677.8,204.6L668.6,218.4L672.9,217.2L671.6,223.4L682.8,209.6L676.8,227.7L682.0,224.0L682.3,237.3L689.0,213.6L687.4,224.7L702.9,220.7L691.3,240.2L702.8,230.9L696.2,245.6L708.1,227.3L716.4,239.6L696.2,247.6L721.2,248.6L705.1,250.8L712.6,253.1L707.1,260.0L712.3,254.9L716.6,257.4L710.6,259.7L717.6,263.1L705.0,263.2L727.9,269.9L720.0,275.3L732.4,276.4L730.7,282.5L734.1,284.4L735.2,275.1L737.8,287.2L745.2,277.6L743.7,285.9L747.3,281.1L755.4,291.5L748.5,291.7L755.3,292.4L751.5,299.2L761.2,290.1L759.1,302.1L770.8,294.8L779.5,303.0ZM609.3,-285.2L616.5,-284.2L606.7,-261.5L625.1,-283.5L652.9,-245.7L640.3,-206.9L612.0,-203.1L629.5,-192.9L611.7,-171.0L642.5,-192.7L622.5,-127.2L613.5,-136.8L620.6,-118.0L607.0,-117.7L619.4,-113.2L615.2,-102.6L618.2,-97.1L579.0,-71.2L603.5,-60.3L575.7,-57.0L605.8,-39.2L593.3,-34.7L605.2,-27.7L586.9,-11.0L593.0,4.9L588.0,17.4L565.1,4.5L572.2,18.0L565.7,20.3L569.2,25.4L598.1,35.3L579.9,63.6L580.3,52.8L564.8,39.3L571.1,53.0L519.8,53.7L524.9,32.5L537.3,28.1L523.3,1.9L550.4,22.1L557.1,19.2L554.1,15.2L560.3,-11.1L546.9,12.5L548.7,4.7L541.8,0.5L548.5,-2.2L539.4,-2.7L548.7,-14.3L542.4,-15.1L542.2,-31.8L539.6,-10.0L526.3,-10.1L527.0,-35.6L557.4,-32.5L549.7,-43.7L559.5,-54.7L538.9,-51.7L547.7,-53.3L523.7,-85.1L530.3,-93.7L520.2,-112.0L565.3,-83.8L540.4,-115.2L577.0,-148.2L562.2,-147.7L570.5,-181.4L552.0,-134.4L527.7,-123.8L517.0,-127.6L539.4,-162.3L512.3,-128.7L498.3,-143.5L524.3,-167.2L496.8,-148.3L491.4,-156.9L508.0,-177.3L478.8,-184.7L498.8,-214.5L520.8,-203.0L505.1,-221.5L513.7,-240.8L553.1,-202.0L527.8,-237.3L539.1,-247.5L531.8,-266.6L549.8,-257.9L536.9,-271.8L541.7,-278.1L565.6,-253.8L565.1,-243.8L568.3,-255.7L553.4,-280.8L609.3,-285.2ZM387.8,200.8L387.4,185.1L394.1,191.7L404.5,223.8L408.6,215.2L404.4,208.6L400.5,174.2L417.3,180.8L430.5,222.9L429.0,235.5L458.4,259.0L459.8,268.8L439.8,272.6L443.6,277.1L442.6,286.4L448.0,277.0L454.0,284.6L445.6,294.1L428.0,293.0L415.9,278.8L398.4,298.7L364.8,307.4L362.7,289.7L344.1,287.7L335.7,273.0L389.2,267.8L387.8,200.8ZM467.7,-151.5L480.2,-159.9L509.0,-100.6L511.4,-100.5L506.5,-115.7L512.4,-117.1L511.8,-102.0L519.9,-91.7L519.0,-73.3L536.6,-62.4L523.0,-32.2L519.7,-39.2L519.8,-52.1L517.4,-46.7L518.2,-32.1L521.7,-27.8L515.6,-29.9L517.8,-10.2L507.9,-29.2L513.7,-10.1L496.4,-10.7L489.4,-21.8L497.8,-25.1L478.8,-42.9L502.3,-58.0L471.3,-57.0L467.0,-65.7L475.1,-80.3L465.8,-73.9L457.8,-95.7L473.2,-91.2L470.2,-96.8L474.0,-101.8L457.4,-108.7L474.2,-119.8L462.1,-134.7L470.8,-147.8L467.7,-151.5ZM470.8,42.1L495.5,49.3L494.5,63.0L510.7,51.4L514.9,57.8L507.4,57.5L524.6,65.4L508.2,66.3L518.6,72.7L513.2,81.3L520.1,74.4L529.7,94.1L581.6,76.3L593.8,86.2L590.3,101.1L598.8,105.1L584.1,121.3L569.7,108.1L571.0,120.0L559.7,123.1L536.8,125.1L534.9,111.7L514.0,121.7L506.2,103.9L506.4,81.3L497.9,64.2L482.7,69.6L486.1,65.8L470.4,52.2L474.6,50.6L470.8,42.1ZM451.1,170.2L447.0,165.4L455.8,167.0L450.1,157.9L458.8,152.3L456.6,150.8L477.6,151.5L480.0,158.3L475.4,163.4L479.4,167.1L471.4,182.5L479.6,179.0L488.4,194.4L484.3,197.5L488.0,211.6L475.1,210.2L477.7,220.7L473.2,228.1L440.5,189.1L445.4,177.8L457.1,187.5L459.7,181.4L455.3,172.8L460.9,173.1L451.1,170.2ZM590.3,374.6L592.8,346.0L600.5,360.4L602.4,354.4L625.9,368.2L631.8,377.3L629.4,381.8L645.5,384.2L639.2,391.4L620.1,379.0L602.9,402.5L598.9,390.3L586.5,394.5L593.7,384.1L590.3,374.6ZM490.9,168.2L489.1,154.4L496.8,156.3L490.8,147.3L494.5,142.4L527.5,145.9L518.3,181.8L501.9,182.8L509.1,191.2L506.1,205.4L497.6,205.9L500.5,201.0L492.6,185.6L490.9,168.2ZM455.8,81.4L443.9,62.6L466.4,61.8L469.1,84.3L466.9,88.9L472.5,100.6L458.1,116.3L448.5,104.2L460.6,91.1L433.4,95.6L446.4,88.0L436.7,73.1L438.2,65.1L455.8,81.4ZM393.8,67.7L396.9,74.2L394.4,83.2L400.3,84.7L398.1,92.4L406.0,96.7L407.1,81.8L416.2,95.6L413.2,116.8L385.7,126.0L384.9,102.0L392.7,96.0L384.4,89.7L389.0,83.7L383.6,67.6L391.2,52.6L393.8,67.7ZM417.9,-22.3L422.1,-28.1L406.3,-46.3L431.6,-44.0L452.5,-0.5L447.2,11.8L411.8,-16.8L422.2,-21.2L417.9,-22.3ZM594.9,142.9L619.6,145.9L632.9,164.1L608.5,171.7L596.5,155.8L594.9,142.9ZM471.3,286.2L482.8,275.5L479.6,271.6L482.0,264.0L506.1,287.9L496.8,298.6L471.3,286.2ZM483.4,118.3L478.2,111.7L488.2,90.8L501.2,115.8L483.4,118.3ZM456.0,-34.0L477.4,-16.9L474.8,-9.7L478.9,-2.5L465.5,9.3L460.2,0.1L465.7,-4.6L454.3,-19.2L456.0,-34.0ZM666.8,286.7L669.3,299.9L664.2,307.4L655.2,308.3L651.0,298.9L653.6,284.7L666.8,286.7ZM422.0,184.1L408.3,168.2L426.4,165.5L422.0,184.1ZM631.7,401.6L634.8,406.4L627.6,417.0L618.7,413.9L631.7,401.6ZM491.6,11.3L471.2,17.1L491.6,11.3ZM658.9,420.4L657.1,424.9L651.4,415.7L657.4,409.7L658.9,420.4ZM513.2,15.7L516.5,23.9L505.8,21.8L513.2,15.7ZM409.9,15.7L419.5,36.5L407.0,17.3L409.9,15.7ZM447.1,-73.4L437.1,-91.2L445.1,-94.0L447.1,-73.4ZM676.2,560.5L681.3,566.9L667.2,564.0L676.2,560.5Z"/>
    <path class="land" data-name="Northwest Territories" d="M463.5,474.1L267.8,482.8L264.8,466.2L245.5,470.2L244.4,457.1L228.3,444.6L230.1,438.3L226.2,430.9L228.0,427.4L224.2,423.3L227.4,419.0L223.9,414.8L225.8,412.6L208.9,392.0L211.8,387.7L208.8,383.6L214.4,376.0L212.1,370.4L214.1,367.5L204.5,367.7L205.7,361.2L204.0,360.3L206.4,354.8L203.8,346.2L205.8,345.1L188.7,345.1L192.4,301.3L207.7,305.6L205.6,297.9L219.8,281.8L245.7,269.5L233.6,284.0L225.8,284.9L213.5,301.8L217.1,305.7L214.1,301.8L220.5,303.0L218.5,296.5L231.2,285.6L229.5,290.6L231.4,283.5L231.6,289.0L232.5,282.8L232.7,294.6L237.9,280.5L249.1,273.3L246.9,277.1L247.9,280.9L259.5,266.7L254.9,262.4L256.7,257.1L273.2,289.5L275.9,286.1L271.9,287.0L275.8,285.2L274.2,279.9L278.3,279.3L275.1,277.1L280.1,272.6L276.1,271.8L281.7,270.9L280.0,268.2L282.0,268.2L280.6,278.9L284.0,280.0L280.5,288.1L288.4,286.7L292.1,276.0L307.4,280.4L308.8,282.7L307.2,320.4L370.4,373.6L385.5,372.9L396.1,386.5L459.0,394.8L463.5,474.1ZM333.4,270.5L378.4,260.7L359.7,250.5L332.8,254.8L327.5,246.9L351.5,228.8L329.1,233.9L327.6,232.1L332.2,225.6L322.5,227.0L322.4,219.1L329.5,209.7L326.6,202.2L335.1,189.4L354.8,174.5L359.2,181.9L359.2,191.3L355.0,198.9L363.0,195.3L366.0,185.1L378.9,193.0L374.2,204.2L375.4,208.6L382.8,197.2L387.8,200.8L389.2,267.8L336.0,270.3L340.1,279.3L333.4,270.5ZM342.6,48.7L345.3,51.5L341.2,52.5L344.4,61.4L335.2,78.2L330.4,72.7L331.9,57.2L328.4,59.1L328.6,67.3L324.3,69.6L327.1,75.6L323.6,85.0L319.5,76.1L321.0,89.2L318.5,93.4L314.6,95.1L311.8,81.3L309.0,92.0L297.7,86.0L323.0,37.5L336.7,38.3L339.1,34.3L335.8,31.6L340.4,27.4L347.2,37.0L340.8,44.4L342.6,48.7ZM381.4,10.1L375.7,13.2L380.8,16.4L380.5,27.6L368.9,35.5L361.3,27.7L360.1,16.7L373.9,3.4L381.4,10.1ZM377.3,-25.7L380.0,-22.3L380.6,-7.0L359.3,-6.3L377.3,-25.7ZM197.0,298.0L199.4,297.7L197.3,291.8L200.4,295.7L198.2,290.3L208.6,286.4L208.7,280.1L213.5,284.7L205.4,297.9L207.7,305.5L197.0,298.0ZM333.2,83.5L329.5,102.3L321.5,102.3L333.2,83.5ZM354.6,20.9L348.4,10.4L358.4,15.9L354.6,20.9Z"/>
    <path class="land" data-name="New Brunswick" d="M813.5,619.1L818.7,614.7L817.3,610.1L819.6,609.7L819.4,608.7L824.2,607.8L827.1,609.4L835.6,604.7L841.6,605.9L844.2,609.0L847.1,605.9L850.8,605.0L850.9,605.9L852.6,605.7L851.3,608.4L852.0,610.9L848.9,615.0L854.2,613.9L854.2,616.9L855.9,618.2L855.5,619.1L856.8,618.7L857.6,621.0L858.8,621.7L858.4,622.9L859.5,622.1L860.2,623.9L867.8,623.6L865.4,624.9L865.9,625.6L864.4,627.9L863.4,627.7L862.9,629.6L861.7,627.7L858.8,625.9L861.5,628.2L861.5,630.0L853.1,637.6L851.5,638.5L849.2,637.8L849.7,635.6L848.5,637.5L850.0,638.2L848.9,639.6L847.7,639.3L848.6,639.7L847.2,641.1L846.3,640.2L843.0,642.1L843.0,641.1L841.8,640.6L841.5,642.0L839.4,640.3L840.2,641.7L838.8,641.3L838.3,642.1L836.5,640.5L835.6,636.8L831.8,636.4L826.3,619.7L821.0,616.9L815.3,620.2L813.5,619.1ZM853.5,603.1L852.3,605.6L852.1,604.1L853.5,603.1Z"/>
    <path class="land" data-name="Nova Scotia" d="M865.9,625.6L870.1,627.0L871.6,625.9L872.4,626.1L871.6,626.8L874.2,626.2L872.9,627.1L873.9,627.4L875.9,626.6L875.3,626.0L879.5,625.7L878.8,626.0L880.1,626.2L879.0,627.1L879.6,627.6L880.5,626.5L881.9,627.2L885.9,622.8L887.1,625.1L889.8,625.4L890.9,624.3L893.9,626.0L892.5,628.3L897.3,628.1L893.4,630.6L891.0,630.8L891.9,631.7L890.2,631.8L882.4,638.3L880.2,638.1L880.6,639.1L879.6,638.0L878.7,640.2L876.9,640.0L877.4,640.9L874.8,639.8L877.0,642.1L876.2,643.0L873.1,642.7L872.8,640.6L871.4,641.5L872.4,642.9L871.8,643.6L870.6,642.4L869.5,642.9L869.4,644.4L871.1,645.1L869.8,645.4L871.0,646.2L869.2,645.7L870.1,646.5L868.3,648.2L869.0,648.9L867.6,649.5L868.3,650.2L866.9,651.2L867.4,652.4L865.9,652.1L866.4,653.5L865.4,652.8L866.0,654.1L865.3,653.7L865.2,654.7L863.6,653.4L863.7,655.0L862.9,654.0L863.7,656.5L862.5,656.2L863.3,657.2L862.6,656.6L862.6,657.8L861.5,656.7L860.2,657.8L857.7,654.6L856.2,654.4L856.6,656.2L855.4,655.9L853.2,651.9L853.1,648.9L854.8,645.7L852.1,648.2L854.9,644.3L856.2,644.9L858.0,642.5L855.3,644.0L865.5,634.4L864.5,634.3L866.1,634.3L866.3,636.3L867.7,636.2L869.0,637.7L868.3,635.3L874.9,631.8L863.5,633.5L862.1,635.3L860.4,635.2L865.9,625.6ZM896.6,616.6L897.6,614.7L896.5,617.8L893.0,620.4L896.0,618.6L895.8,620.1L893.6,621.1L895.2,621.4L893.8,623.6L895.7,622.3L896.9,622.8L896.8,623.7L897.7,623.0L897.3,621.6L899.3,618.6L897.1,620.4L896.0,619.9L899.1,615.9L896.6,618.3L898.3,614.8L899.9,615.4L899.5,616.5L900.5,615.1L903.8,615.5L903.0,617.4L904.7,618.2L902.2,619.6L903.0,620.3L902.1,621.7L898.7,624.1L896.5,623.7L893.2,625.6L890.9,624.0L888.7,620.4L892.5,607.2L894.5,606.4L894.3,608.0L896.3,608.4L896.2,610.7L897.0,611.3L896.6,616.6ZM845.1,644.8L845.7,646.3L844.6,647.3L845.1,644.8ZM896.6,624.8L896.2,626.1L894.8,625.3L896.6,624.8Z"/>
    <path class="land" data-name="Saskatchewan" d="M463.5,474.1L467.3,543.1L479.2,641.2L389.2,647.0L391.1,478.9L463.5,474.1Z"/>
    <path class="land" data-name="Alberta" d="M347.5,648.9L341.1,640.9L342.2,634.7L338.9,627.8L337.0,628.3L332.9,624.1L333.3,622.5L327.3,617.8L323.8,611.1L321.2,612.5L317.8,605.8L313.5,605.7L313.8,602.8L311.4,601.6L309.2,603.4L308.4,598.0L305.0,592.5L294.6,587.0L296.3,585.2L294.1,582.7L302.7,482.6L391.1,478.9L389.2,647.0L347.5,648.9Z"/>
    <path class="land" data-name="Prince Edward Island" d="M864.7,620.7L863.2,620.7L862.9,618.0L859.5,618.1L861.6,612.8L862.7,614.8L862.1,616.3L865.1,617.8L864.7,619.7L867.1,619.7L867.0,618.0L871.6,619.3L882.9,616.1L879.8,618.1L880.1,619.2L879.0,619.4L879.8,619.9L878.4,620.0L880.2,621.5L879.3,622.3L880.4,622.4L878.0,623.7L874.9,622.9L875.8,621.6L873.5,621.2L874.5,619.7L872.6,620.7L872.1,621.8L873.4,621.6L872.5,622.4L867.9,622.0L866.5,621.2L866.8,620.2L864.7,620.7Z"/>
    <path class="land" data-name="Yukon Territory" d="M269.5,483.3L144.9,483.6L143.4,482.0L145.1,477.4L130.0,477.9L163.2,282.2L175.6,285.5L192.6,300.7L188.9,328.8L190.3,333.6L188.7,345.1L205.8,345.1L203.8,346.2L206.4,354.8L204.0,360.3L205.7,361.2L204.5,367.7L214.1,367.5L212.1,370.4L214.4,376.0L208.8,383.6L211.8,387.7L208.9,392.0L215.3,398.0L213.9,401.1L219.3,400.1L220.5,408.0L225.8,412.6L223.9,414.8L227.4,419.0L224.2,423.3L228.0,427.4L226.2,430.9L230.1,438.3L228.3,444.6L234.4,445.1L238.1,453.1L244.4,457.1L245.5,470.2L264.8,466.2L263.9,471.4L269.5,483.3Z"/>
    <path class="land" data-name="Manitoba" d="M463.5,474.1L529.1,468.4L531.6,479.5L530.9,484.1L529.0,484.9L530.8,484.6L531.8,488.3L535.0,490.0L536.9,488.4L536.5,498.3L537.2,488.9L546.7,488.6L556.6,510.8L553.2,518.2L570.0,510.6L588.1,515.0L587.6,519.0L538.5,582.3L544.3,635.3L479.2,641.2L467.3,543.1L463.5,474.1Z"/>
    <path class="land" data-name="Ontario" d="M698.5,589.1L709.3,635.0L718.5,645.6L733.9,647.8L740.6,651.4L742.4,650.0L748.5,654.3L753.7,654.4L764.8,649.2L767.6,649.7L767.7,652.8L769.7,654.0L755.6,666.5L746.3,671.9L746.9,670.4L740.2,672.2L747.6,671.1L746.0,673.4L748.2,673.2L745.4,674.6L739.0,673.5L725.2,678.3L719.5,685.3L726.9,684.9L729.6,688.8L716.4,692.2L714.4,694.7L718.2,695.1L704.9,695.8L694.2,706.1L687.2,705.3L687.5,702.4L693.9,700.9L691.2,699.0L692.1,694.7L698.7,688.2L696.6,679.6L700.2,672.5L698.3,668.3L693.9,665.3L698.3,664.8L700.5,668.7L702.6,667.8L701.2,670.5L703.6,669.8L703.6,672.2L706.3,670.2L712.9,672.3L711.8,668.1L716.6,668.2L710.9,664.4L710.6,661.3L707.5,661.8L701.9,655.8L666.5,655.8L664.6,653.2L661.1,654.6L660.0,650.3L661.9,649.2L657.1,648.6L658.5,644.4L653.0,640.9L654.0,636.4L643.4,637.4L635.5,627.9L616.1,627.4L618.2,629.9L617.6,632.4L614.3,635.2L616.1,630.5L614.2,629.5L612.6,636.2L610.7,637.1L612.0,633.4L608.2,635.2L606.8,640.2L601.2,642.5L592.2,642.3L590.6,640.3L583.6,643.9L578.2,640.4L574.9,642.6L568.1,637.9L559.5,640.3L550.9,638.5L547.3,630.6L543.9,630.3L538.5,582.3L587.6,519.0L588.1,515.0L591.0,514.8L600.7,520.4L605.2,526.9L622.0,529.5L630.8,533.9L629.0,539.6L632.1,534.5L657.7,533.2L660.2,537.7L659.9,547.4L664.1,553.0L665.9,560.5L665.2,565.2L675.2,573.4L671.6,575.6L675.2,574.4L685.6,580.4L688.5,585.0L683.7,590.3L688.8,585.2L698.5,589.1ZM679.7,658.5L683.7,660.1L685.5,657.3L687.4,659.0L689.5,656.9L691.5,659.8L692.3,657.4L693.5,658.6L691.5,662.5L689.9,662.2L692.0,660.1L689.2,662.3L676.5,660.1L679.7,658.5Z"/>
  </g>

  <!-- Alaska -->
  <g color="#d7e6ff">
    <path class="alaska" d="M144.1,483.5L153.4,502.7L161.0,498.5L164.5,490.7L173.4,489.1L185.0,511.2L193.3,541.0L207.0,548.6L205.6,561.2L197.2,568.8L198.8,548.9L188.0,557.0L194.6,547.0L181.0,531.5L180.7,523.9L185.0,525.2L182.2,520.8L185.1,520.0L178.7,516.8L181.2,509.4L177.8,514.2L173.6,510.4L171.7,493.9L170.5,513.8L164.4,511.3L164.4,504.1L166.4,502.8L164.3,500.3L162.7,505.1L157.3,500.4L163.2,510.4L158.0,513.8L136.6,491.4L140.4,484.3L140.9,490.3L144.0,486.4L141.1,483.3L132.4,488.5L126.1,481.2L104.6,482.7L100.2,477.0L103.0,471.1L93.2,474.2L95.6,471.2L89.2,469.6L90.3,463.9L92.8,462.8L79.5,465.5L82.4,460.6L74.9,467.6L76.4,470.3L72.8,473.6L77.8,473.7L72.3,482.4L65.6,480.1L50.5,494.6L43.3,494.2L52.0,485.6L46.2,485.3L54.3,468.5L61.9,463.7L71.2,466.6L65.3,461.0L71.3,455.2L39.9,476.2L41.3,481.4L26.4,495.5L30.0,502.5L1.6,524.9L-1.7,530.8L-18.7,540.5L-21.2,546.5L-48.9,559.8L-50.5,556.4L-58.3,564.6L-62.5,563.3L-71.2,570.4L-69.0,565.8L-50.3,551.9L-38.6,552.4L-39.6,549.3L-35.7,544.0L-5.6,522.8L-3.9,513.7L-0.0,511.2L-1.4,507.4L7.4,495.3L-5.4,504.4L-6.6,500.4L-2.7,498.0L-8.2,498.3L-12.3,508.1L-19.8,497.4L-37.2,505.9L-30.1,497.3L-32.7,497.0L-28.7,489.0L-29.0,476.8L-22.6,468.9L-31.3,477.3L-32.1,482.3L-44.4,486.6L-51.4,474.2L-44.5,467.3L-37.8,472.1L-34.2,468.7L-37.5,467.3L-34.6,466.1L-46.7,466.8L-43.6,463.2L-49.2,463.9L-50.4,453.8L-37.0,437.1L-33.4,436.4L-30.9,428.0L-25.8,421.7L-18.1,424.4L-8.1,414.6L1.9,412.0L4.6,400.3L2.3,396.5L8.1,389.2L2.5,388.6L-6.2,397.4L-7.9,391.9L-8.9,396.6L-30.0,394.7L-31.9,383.0L-25.2,379.6L-37.1,372.9L-5.0,350.6L0.1,351.0L-4.4,358.7L-3.0,361.7L14.5,359.9L8.4,344.2L10.2,343.1L12.4,354.0L21.0,355.1L12.0,348.6L14.6,341.5L3.7,339.4L2.7,327.8L-9.3,309.8L-6.4,308.3L-2.7,297.3L15.1,291.0L31.6,261.9L29.4,266.3L43.7,255.4L43.6,263.6L47.8,257.3L44.1,254.4L47.4,250.3L58.7,248.7L70.3,234.1L74.3,242.0L70.5,249.5L76.8,242.6L81.4,250.9L93.6,249.8L91.6,255.0L95.7,257.6L94.1,260.3L153.0,272.1L163.2,281.9L129.9,478.0L145.0,477.5L144.1,483.5Z"/>
  </g>

  <!-- Ghost internal borders -->
  <g class="ghost">
  </g>

  <!-- Connection Arcs -->
  <g>
    <!-- Original arcs -->
    <path class="arc" d="M257.4,647.5 Q292.6,603.2 348.7,620.8"/>
    <path class="arc" d="M348.7,620.8 Q557.5,534.4 722.7,680.8"/>
    <path class="arc" d="M722.7,680.8 Q741.4,647.2 776.0,648.9"/>
    <path class="arc" d="M776.0,648.9 Q827.0,608.7 875.9,640.5"/>
    <path class="arc" d="M257.4,647.5 Q500.8,491.9 722.7,680.8" stroke-dasharray="6 8"/>
    <!-- Whitehorse to Yellowknife -->
    <path class="arc" d="M178.2,471.1 Q258.7,394.6 353.5,435.8"/>
    <!-- Whitehorse to Winnipeg -->
    <path class="arc" d="M178.2,471.1 Q333.8,420.2 522.4,625.2" stroke-dasharray="6 8"/>

    <!-- Winnipeg to Goose Bay (Labrador) -->
    <path class="arc" d="M522.4,625.2 Q689.2,447.7 864.6,525.7"/>
    <!-- Vancouver to Goose Bay (Labrador) -->
    <path class="arc" d="M257.4,647.5 Q548.4,375.0 864.6,525.7" stroke-dasharray="6 8"/>
    <!-- Quebec City to Goose Bay -->
    <path class="arc" d="M794.5,629.0 Q837.8,542.7 864.6,525.7"/>
    <!-- Thunder Bay to Montreal -->
    <path class="arc" d="M607.2,636.7 Q687.8,578.6 776.0,648.9"/>
    <!-- Purple arc from Vancouver going left -->
    <path d="M257.4,647.5 Q150,560 -40,590" fill="none" stroke="#7c3aed" stroke-width="1.6" stroke-opacity="0.65" stroke-linecap="round" filter="url(#arcGlow)"/>

    <!-- === Transatlantic arcs === -->
    <!-- MAIN ARC (multicolor, touches green dot): huge arch from Goose Bay, top goes above viewport -->
    <path d="M864.6,525.7 Q1900,-300 3000,460" fill="none" stroke="url(#transArcMainGrad)" stroke-width="2.6" stroke-linecap="round" filter="url(#arcGlow)"/>
    <!-- PURPLE ARC (no dot): from Halifax, 8° CCW rotation, accentuated arch (shortened 1/3) -->
    <path d="M875.9,640.5 Q1423,267 2027,164" fill="none" stroke="url(#transArcPurpleGrad)" stroke-width="1.8" stroke-linecap="round" filter="url(#arcGlow)"/>
    <!-- CYAN ARC (no dot): from Goose Bay, gentle arch like others, exits off viewport bottom-right -->
    <path d="M864.6,525.7 Q1600,280 2500,850" fill="none" stroke="url(#transArcCyanGrad)" stroke-width="1.5" stroke-linecap="round" filter="url(#arcGlow)"/>
    <!-- Cyan arc taper overlay (adds 1-2px width toward right) -->
    <path d="M864.6,525.7 Q1600,280 2500,850" fill="none" stroke="url(#transArcCyanTaper)" stroke-width="3.5" stroke-linecap="round" filter="url(#arcGlow)"/>
    <!-- GREEN ARC (no dot): from Halifax, accentuated arch, crosses other arcs (2x longer) -->
    <path d="M875.9,640.5 Q1624,240 2724,280" fill="none" stroke="url(#transArcGreenGrad)" stroke-width="1.6" stroke-linecap="round" filter="url(#arcGlow)"/>
    <!-- Energy flow overlays (streaming light streaks) -->
    <path class="energy-arc" d="M864.6,525.7 Q1900,-300 3000,460" stroke="url(#transArcMainGrad)" stroke-width="2.5" stroke-opacity="0.55" filter="url(#arcGlow)"/>
    <path class="energy-arc" d="M875.9,640.5 Q1624,240 2724,280" stroke="url(#transArcGreenGrad)" stroke-width="2" stroke-opacity="0.45" filter="url(#arcGlow)" style="animation-delay:4s;animation-duration:20s"/>
  </g>

  <!-- Touchdown cluster: star formation + three colored dots -->
  <g>
    <!-- Star spikes radiating from touchdown -->
    <line x1="3000" y1="460" x2="3000" y2="400" stroke="#10b981" stroke-width="1.2" stroke-opacity="0.35" stroke-linecap="round" filter="url(#arcGlow)"/>
    <line x1="3000" y1="460" x2="3000" y2="520" stroke="#10b981" stroke-width="1.2" stroke-opacity="0.35" stroke-linecap="round" filter="url(#arcGlow)"/>
    <line x1="3000" y1="460" x2="2940" y2="460" stroke="#10b981" stroke-width="1.2" stroke-opacity="0.35" stroke-linecap="round" filter="url(#arcGlow)"/>
    <line x1="3000" y1="460" x2="3060" y2="460" stroke="#10b981" stroke-width="1.2" stroke-opacity="0.35" stroke-linecap="round" filter="url(#arcGlow)"/>
    <line x1="3000" y1="460" x2="3042" y2="418" stroke="#10b981" stroke-width="0.8" stroke-opacity="0.25" stroke-linecap="round" filter="url(#arcGlow)"/>
    <line x1="3000" y1="460" x2="2958" y2="502" stroke="#10b981" stroke-width="0.8" stroke-opacity="0.25" stroke-linecap="round" filter="url(#arcGlow)"/>
    <line x1="3000" y1="460" x2="3042" y2="502" stroke="#10b981" stroke-width="0.8" stroke-opacity="0.25" stroke-linecap="round" filter="url(#arcGlow)"/>
    <line x1="3000" y1="460" x2="2958" y2="418" stroke="#10b981" stroke-width="0.8" stroke-opacity="0.25" stroke-linecap="round" filter="url(#arcGlow)"/>
    <!-- Outer glow halo -->
    <circle cx="3000" cy="460" r="50" fill="url(#landingGlow)"/>
    <!-- Main green touchdown dot -->
    <circle class="landing-dot" cx="3000" cy="460" r="4.5" fill="#10b981" filter="url(#starGlow)"/>
    <circle class="landing-dot" cx="3000" cy="460" r="3" fill="#10b981" opacity="0.95"/>
    <!-- Cyan companion dot (nearby, strong glow) -->
    <circle cx="2920" cy="500" r="28" fill="url(#cyanLandingGlow)"/>
    <circle class="landing-dot" cx="2920" cy="500" r="3.5" fill="#00d4ff" filter="url(#cyanGlow)" style="animation-delay:1.2s"/>
    <circle class="landing-dot" cx="2920" cy="500" r="2" fill="#00d4ff" opacity="0.85" style="animation-delay:1.2s"/>
    <!-- Purple companion dot (halfway between current and viewport bottom) -->
    <circle cx="2960" cy="632" r="22" fill="url(#purpleLandingGlow)"/>
    <circle class="landing-dot" cx="2960" cy="632" r="2.5" fill="#7c3aed" filter="url(#purpleGlow)" style="animation-delay:2.4s"/>
    <circle class="landing-dot" cx="2960" cy="632" r="1.5" fill="#7c3aed" opacity="0.75" style="animation-delay:2.4s"/>
  </g>

  <!-- Cities -->
  <g>
    <!-- West (purple) -->
    <circle class="core" cx="257.4" cy="647.5" r="4.5" fill="#7c3aed" style="animation-duration:2.8s"/>
    <circle class="core" cx="178.2" cy="471.1" r="3" fill="#7c3aed" style="animation-duration:3.4s;animation-delay:.5s"/>
    <!-- Middle (cyan) -->
    <circle class="core" cx="348.7" cy="620.8" r="3" fill="#00d4ff" style="animation-duration:2.6s;animation-delay:1.1s"/>
    <circle class="core" cx="356.0" cy="584.7" r="2" fill="#00d4ff" style="animation-duration:3.2s;animation-delay:.3s"/>
    <circle class="core" cx="353.5" cy="435.8" r="3" fill="#00d4ff" style="animation-duration:2.9s;animation-delay:1.5s"/>
    <circle class="core" cx="522.4" cy="625.2" r="3" fill="#00d4ff" style="animation-duration:3.1s;animation-delay:.7s"/>
    <circle class="core" cx="607.2" cy="636.7" r="2" fill="#00d4ff" style="animation-duration:2.7s;animation-delay:1.2s"/>
    <circle class="core" cx="722.7" cy="680.8" r="4.5" fill="#00d4ff" style="animation-duration:3.5s;animation-delay:.2s"/>
    <circle class="core" cx="755.0" cy="653.6" r="3" fill="#00d4ff" style="animation-duration:2.4s;animation-delay:.9s"/>
    <circle class="core" cx="776.0" cy="648.9" r="4.5" fill="#00d4ff" style="animation-duration:3s;animation-delay:1.4s"/>
    <circle class="core" cx="704.8" cy="691.8" r="2" fill="#00d4ff" style="animation-duration:2.5s;animation-delay:.6s"/>
    <!-- East (green) -->
    <circle class="core" cx="794.5" cy="629.0" r="3" fill="#10b981" style="animation-duration:3.3s;animation-delay:1.1s"/>
    <circle class="core" cx="864.6" cy="525.7" r="3" fill="#10b981" style="animation-duration:2.8s;animation-delay:.4s"/>
    <circle class="core" cx="875.9" cy="640.5" r="3" fill="#10b981" style="animation-duration:3.1s;animation-delay:1.3s"/>
  </g>

  </g></g></g><!-- end mask groups -->

</svg>