<svg xmlns="http://www.w3.org/2000/svg" viewBox="0 0 128 128" fill="none">
  <defs>
    <linearGradient id="bolt-light-fill" x1="28" y1="18" x2="100" y2="112" gradientUnits="userSpaceOnUse">
      <stop stop-color="#0891b2"></stop>
      <stop offset=".56" stop-color="#7c3aed"></stop>
      <stop offset="1" stop-color="#059669"></stop>
    </linearGradient>
    <linearGradient id="bolt-light-rail" x1="18" y1="96" x2="110" y2="96" gradientUnits="userSpaceOnUse">
      <stop stop-color="#0891b2" stop-opacity=".08"></stop>
      <stop offset=".5" stop-color="#0891b2" stop-opacity=".7"></stop>
      <stop offset="1" stop-color="#7c3aed" stop-opacity=".1"></stop>
    </linearGradient>
    <filter id="bolt-light-shadow" x="-20%" y="-20%" width="140%" height="150%" color-interpolation-filters="sRGB">
      <feDropShadow dx="0" dy="9" stdDeviation="10" flood-color="#0f172a" flood-opacity=".2"></feDropShadow>
      <feDropShadow dx="0" dy="0" stdDeviation="4" flood-color="#0891b2" flood-opacity=".32"></feDropShadow>
    </filter>
  </defs>
  <path d="M18 96h26l10-10h20l9 10h27" stroke="url(#bolt-light-rail)" stroke-width="3" stroke-linecap="round"></path>
  <path d="M27 106h74" stroke="#0f172a" stroke-opacity=".14" stroke-width="2" stroke-linecap="round"></path>
  <g stroke="#0891b2" stroke-opacity=".45" stroke-width="2" stroke-linecap="round">
    <path d="M42 99v12M64 99v17M86 99v12"></path>
    <circle cx="42" cy="115" r="2.5" fill="#0891b2" fill-opacity=".65"></circle>
    <circle cx="64" cy="120" r="2.5" fill="#7c3aed" fill-opacity=".65"></circle>
    <circle cx="86" cy="115" r="2.5" fill="#059669" fill-opacity=".65"></circle>
  </g>
  <path d="M71 8 27 70h31l-8 50 51-69H70l1-43Z" fill="url(#bolt-light-fill)" filter="url(#bolt-light-shadow)"></path>
  <path d="M71 8 27 70h31l-8 50 51-69H70l1-43Z" stroke="#0f172a" stroke-opacity=".42" stroke-width="2.4" stroke-linejoin="round"></path>
  <path d="M66 25 43 60h28l-5 31 22-31H62l4-35Z" fill="#ffffff" fill-opacity=".18"></path>
</svg>