<svg xmlns="http://www.w3.org/2000/svg" viewBox="0 0 128 128" fill="none">
  <defs>
    <linearGradient id="server-dark-body" x1="28" y1="14" x2="97" y2="112" gradientUnits="userSpaceOnUse">
      <stop stop-color="#152033"/>
      <stop offset=".52" stop-color="#0b1220"/>
      <stop offset="1" stop-color="#06111c"/>
    </linearGradient>
    <linearGradient id="server-dark-edge" x1="25" y1="18" x2="103" y2="110" gradientUnits="userSpaceOnUse">
      <stop stop-color="#38dbff"/>
      <stop offset=".62" stop-color="#9b6dff"/>
      <stop offset="1" stop-color="#34d399"/>
    </linearGradient>
    <filter id="server-dark-glow" x="-25%" y="-25%" width="150%" height="150%" color-interpolation-filters="sRGB">
      <feDropShadow dx="0" dy="0" stdDeviation="4" flood-color="#38dbff" flood-opacity=".48"/>
      <feDropShadow dx="0" dy="12" stdDeviation="16" flood-color="#9b6dff" flood-opacity=".28"/>
    </filter>
  </defs>
  <path d="M23 108h82l8 6H31l-8-6Z" fill="#38dbff" fill-opacity=".1"/>
  <path d="M29 20 64 10l36 10v86l-36 12-35-12V20Z" fill="url(#server-dark-body)" stroke="url(#server-dark-edge)" stroke-width="2.4" stroke-linejoin="round" filter="url(#server-dark-glow)"/>
  <path d="M64 10v108M29 20l35 10 36-10" stroke="#38dbff" stroke-opacity=".32" stroke-width="2"/>
  <path d="M38 33h18M38 44h18M38 58h18M38 69h18M38 83h18M38 94h18" stroke="#38dbff" stroke-width="4" stroke-linecap="round"/>
  <g fill="#34d399">
    <circle cx="49" cy="35" r="2.5"/>
    <circle cx="54" cy="60" r="2.5"/>
    <circle cx="44" cy="85" r="2.5"/>
  </g>
  <g stroke="#9b6dff" stroke-width="2" stroke-linecap="round" opacity=".8">
    <path d="M75 34h12M75 45h16M75 80h15M75 92h10"/>
    <path d="M88 52 78 72h9l-4 19 17-27h-9l4-12h-7Z" fill="#38dbff" fill-opacity=".18" stroke="#38dbff"/>
  </g>
  <path d="M32 111c16 7 47 7 68 0" stroke="#38dbff" stroke-opacity=".38" stroke-width="2" stroke-linecap="round"/>
</svg>
