<svg width="64" height="64" viewBox="0 0 256 256" fill="none" xmlns="http://www.w3.org/2000/svg">
<path d="M230.721 172.7C230.183 170.7 229.3 168.8 228.2 167.008C228.396 166.1 228.6 165.2 228.7 164.217C229.543 158.2 227.5 152.8 223.6 148.537C221.452 146.2 219.2 144.7 216.8 143.761C218.36 137 219.2 130.1 219.2 123.193C219.161 120 219 116.9 218.7 113.88C218.526 112.4 218.3 110.8 218.1 109.32C217.428 104.8 216.4 100.4 215.1 96.11C214.183 93.3 213.2 90.5 212 87.736C210.281 83.7 208.3 79.8 206 75.982C204.465 73.5 202.8 71 201.1 68.72C200.197 67.5 199.3 66.4 198.4 65.274C195.58 61.9 192.6 58.7 189.3 55.788C188.25 54.8 187.2 53.9 186 52.926C184.893 52 183.8 51.1 182.6 50.222C180.241 48.5 177.8 46.8 175.3 45.315C161.543 37 145.4 32.1 128.1 32.145C77.817 32.1 37.1 72.9 37.1 123.196C37.055 130.2 37.9 137.2 39.5 144.02C37.317 145 35.2 146.4 33.3 148.535C29.424 152.8 27.4 158.2 28.2 164.193C28.306 165.1 28.5 166.1 28.8 167.006C27.5811 168.8 26.7 170.7 26.2 172.7C24.974 177.3 25.4 181.4 26.9 184.978C25.236 189.7 25.6 194.7 27.8 199.065C29.379 202.2 31.6 204.7 34.4 206.916C37.689 209.5 41.8 211.8 46.8 213.892C52.715 216.4 60 218.8 63.2 219.671C71.755 221.9 79.9 223.3 88.2 223.337C99.954 223.4 110.1 220.7 117.4 213.59C120.924 214 124.5 214.2 128.1 214.244C131.906 214.2 135.7 214 139.5 213.529C146.711 220.7 156.9 223.5 168.7 223.343C176.977 223.3 185.1 221.9 193.6 219.676C196.932 218.8 204.2 216.4 210.1 213.897C215.077 211.8 219.2 209.5 222.5 206.922C225.263 204.7 227.5 202.3 229.1 199.071C231.26 194.7 231.7 189.7 230 184.983C231.527 181.4 231.9 177.3 230.7 172.7ZM222.281 184.673C223.952 187.8 224.1 191.4 222.6 194.764C220.349 199.8 214.8 203.8 204 208.082C197.3 210.7 191.2 212.4 191.1 212.458C182.232 214.8 174.2 215.9 167.3 215.928C155.76 215.9 147.2 212.8 141.8 206.486C132.594 208.1 123.2 208.1 114 206.644C108.591 212.8 100.1 215.9 88.7 215.928C81.729 215.9 73.7 214.8 64.8 212.458C64.779 212.4 58.6 210.7 51.9 208.082C41.143 203.8 35.6 199.8 33.4 194.764C31.878 191.4 32 187.8 33.7 184.673C33.81 184.4 34 184.1 34.1 183.813C33.1516 182.3 32.5 180.6 32.2 178.827C31.8842 177 32 175.2 32.4 173.472C33.089 170.9 34.5 168.8 36.3 167.344C35.425 165.9 34.8 164.2 34.6 162.522C34.056 158.8 35.3 155.1 38.1 152.076C40.222 149.7 43.3 148.4 46.7 148.428H46.745C44.1965 140.3 42.9 131.8 42.9 123.193C42.913 76.5 80.8 38.7 127.4 38.683C174.104 38.7 211.9 76.5 211.9 123.193C211.947 131.8 210.7 140.3 208.1 148.492C208.489 148.4 208.9 148.4 209.3 148.431C212.662 148.4 215.7 149.7 217.9 152.079C220.647 155.1 221.9 158.8 221.3 162.525C221.1 164.2 220.5 165.9 219.6 167.347C221.477 168.8 222.8 170.9 223.5 173.475C223.97 175.2 224.1 177.1 223.8 178.831C223.458 180.6 222.8 182.3 221.8 183.816C221.961 184.1 222.1 184.4 222.3 184.673Z" fill="white"/>
<path d="M221.784 183.816C222.786 182.3 223.5 180.6 223.8 178.831C224.053 177.1 224 175.2 223.5 173.475C222.848 170.9 221.5 168.8 219.6 167.347C220.512 165.9 221.1 164.2 221.3 162.525C221.881 158.8 220.7 155.1 217.9 152.079C215.716 149.7 212.7 148.4 209.3 148.431C208.889 148.4 208.5 148.4 208.1 148.492C210.643 140.3 211.9 131.8 211.9 123.195C211.933 76.5 174.1 38.7 127.4 38.6851C80.75 38.7 42.9 76.5 42.9 123.195C42.9015 131.8 44.2 140.3 46.7 148.43H46.6519C43.2719 148.4 40.2 149.7 38.1 152.077C35.287 155.1 34 158.8 34.6 162.523C34.8346 164.2 35.4 165.9 36.3 167.346C34.4579 168.8 33.1 170.9 32.4 173.473C31.9642 175.2 31.9 177.1 32.2 178.83C32.4781 180.6 33.1 182.3 34.1 183.816C33.9739 184.1 33.8 184.4 33.6 184.676C31.9849 187.8 31.9 191.4 33.4 194.767C35.588 199.8 41.1 203.8 51.9 208.085C58.6359 210.8 64.8 212.4 64.8 212.461C73.705 214.8 81.7 215.9 88.7 215.931C100.081 215.9 108.6 212.8 114 206.647C123.222 208.1 132.6 208.1 141.8 206.489C147.201 212.8 155.8 215.9 167.3 215.931C174.208 215.9 182.2 214.8 191.1 212.461C191.158 212.4 197.3 210.8 204 208.085C214.795 203.8 220.3 199.8 222.6 194.767C224.059 191.4 223.9 187.8 222.3 184.676C222.129 184.4 222 184.1 221.8 183.816ZM110.137 196.997C109.669 197.8 109.2 198.6 108.6 199.391C107.23 201.4 105.4 203 103.2 204.188C99.1369 206.4 94 207.2 88.7 207.205C80.346 207.2 71.8 205.3 67 204.015C66.787 203.9 37.7 195.7 41.4 188.739C41.993 187.6 43 187.1 44.3 187.092C49.4849 187.1 58.9 194.8 63 194.816C63.8959 194.8 64.5 194.4 64.8 193.488C66.5269 187.3 38.5 184.7 40.9 175.692C41.2799 174.1 42.4 173.5 44 173.456C50.856 173.5 66.2 185.5 69.5 185.516C69.714 185.5 69.9 185.4 70 185.291C70.0009 185.3 70 185.2 70 185.222C71.539 182.7 70.7 180.9 60.3 174.573L59.3269 173.968C47.9359 167.1 39.9 162.9 44.5 157.975C45.0109 157.4 45.8 157.2 46.6 157.151C47.7219 157.2 49 157.5 50.4 158.108C56.4549 160.7 64.8 167.6 68.3 170.581C68.8239 171.1 69.4 171.5 69.9 172.022C69.9089 172 74.3 176.6 77 176.608C77.599 176.6 78.1 176.4 78.5 175.768C80.364 172.6 60.9 157.8 59.8 151.755C59.0689 147.6 60.3 145.6 62.7 145.546C63.7879 145.6 65.2 146 66.6 146.971C71.2949 149.9 80.3 165.3 83.6 171.352C84.6619 173.4 86.5 174.2 88.2 174.213C91.6009 174.2 94.2 170.9 88.5 166.622C80.0029 160.2 83 149.8 87.1 149.139C87.252 149.1 87.4 149.1 87.6 149.097C91.3109 149.1 93 155.5 93 155.486C92.9459 155.5 97.7 167.5 106 175.753C113.447 183.2 114.5 189.3 110.1 196.997ZM136.766 198.407L136.339 198.458L135.611 198.541C135.228 198.6 134.8 198.6 134.5 198.654L134.084 198.688L133.741 198.717L133.255 198.756L132.718 198.795L132.182 198.83L132.063 198.838C131.923 198.8 131.8 198.8 131.6 198.862L131.462 198.872C131.296 198.9 131.1 198.9 131 198.896L130.381 198.921L129.854 198.939L129.502 198.949H129.323C129.213 198.9 129.1 199 129 198.956H128.82C128.71 199 128.6 199 128.5 198.961L128.043 198.967H127.418C126.927 199 126.4 199 126 198.952L125.553 198.943C125.44 198.9 125.3 198.9 125.2 198.934L124.796 198.922L124.275 198.902L123.805 198.881L123.684 198.876L123.237 198.853C123.112 198.8 123 198.8 122.9 198.831L122.576 198.814C122.213 198.8 121.8 198.8 121.5 198.738L121.107 198.707C120.947 198.7 120.8 198.7 120.6 198.666C120.441 198.7 120.2 198.6 120.1 198.614C119.754 198.6 119.4 198.6 119.1 198.519H119.113C123.683 188.3 121.4 178.8 112.1 169.575C106.08 163.5 102 154.6 101.2 152.633C99.5229 146.8 95 140.4 87.6 140.375C86.979 140.4 86.3 140.4 85.7 140.523C82.472 141 79.6 142.9 77.6 145.733C75.396 143 73.3 140.8 71.3 139.605C68.422 137.8 65.5 136.8 62.7 136.824C59.1579 136.8 56 138.3 53.8 140.904L53.7459 140.971C53.7039 140.8 53.7 140.6 53.6 140.451L53.6179 140.428C53.1992 138.6 52.9 136.8 52.6 135.016C52.5639 135 52.6 135 52.6 134.98C52.5359 134.8 52.5 134.7 52.5 134.568C52.4334 134.2 52.4 133.8 52.3 133.348C52.2979 133.2 52.3 133 52.2 132.793L52.1809 132.238C52.1589 132.1 52.1 131.9 52.1 131.709L52.115 131.665C52.0351 130.9 52 130.2 51.9 129.503L51.8829 129.226L51.8479 128.754C51.8379 128.6 51.8 128.5 51.8 128.365C51.8209 128.3 51.8 128.3 51.8 128.275C51.7895 127.9 51.8 127.5 51.8 127.187C51.7399 127 51.7 126.8 51.7 126.62L51.7019 126.124L51.6969 125.974L51.6809 125.517L51.6709 125.128C51.6709 125 51.7 124.8 51.7 124.663C51.6579 124.5 51.6 124.3 51.6 124.174C51.6509 124 51.6 123.8 51.6 123.685C51.6439 123.5 51.6 123.4 51.6 123.195C51.6479 81.3 85.6 47.4 127.4 47.4111C169.292 47.4 203.2 81.3 203.2 123.195V124.174C203.222 124.3 203.2 124.5 203.2 124.663C203.214 124.8 203.2 124.9 203.2 125.068C203.204 125.2 203.2 125.3 203.2 125.425C203.195 125.6 203.2 125.7 203.2 125.884V125.896L203.16 126.427C203.153 126.6 203.2 126.7 203.1 126.893L203.134 127.003L203.107 127.499C203.048 128.6 203 129.6 202.9 130.683V130.696C202.849 130.9 202.8 131 202.8 131.218L202.768 131.629L202.679 132.433L202.628 132.84L202.565 133.319C202.542 133.5 202.5 133.7 202.5 133.841C202.467 134 202.4 134.2 202.4 134.424L202.34 134.883L202.258 135.403C202.23 135.6 202.2 135.8 202.2 135.92C202.135 136.1 202.1 136.3 202.1 136.437C202.019 136.8 202 137.1 201.9 137.468C201.789 138 201.7 138.5 201.6 139.005L201.47 139.512C201.434 139.7 201.4 139.8 201.4 140.02C199.224 137.9 196.4 136.8 193.3 136.818C190.457 136.8 187.6 137.8 184.6 139.598C182.711 140.8 180.6 143 178.4 145.726C176.346 142.9 173.5 141 170.2 140.516C169.621 140.4 169 140.4 168.4 140.368C160.925 140.4 156.4 146.8 154.8 152.626C153.917 154.6 149.9 163.5 143.8 169.577C134.596 178.8 132.3 188.2 136.8 198.407ZM215.007 177.998L214.977 178.087C214.901 178.3 214.8 178.5 214.7 178.674C214.639 178.8 214.6 178.9 214.5 179.082C214.303 179.3 214.1 179.6 213.9 179.793C213.875 179.8 213.8 179.9 213.8 179.948C213.707 180 213.6 180.1 213.6 180.175C212.213 181.5 210.2 182.7 207.8 183.752C207.578 183.9 207.3 184 207 184.11L206.774 184.229C206.595 184.3 206.4 184.4 206.2 184.463C206.049 184.5 205.9 184.6 205.7 184.695L205.119 184.925C203.814 185.5 202.5 186 201.2 186.479L200.615 186.696L200.064 186.912C199.697 187.1 199.3 187.2 199 187.341L198.448 187.555L197.926 187.768L197.67 187.876C197.499 187.9 197.3 188 197.2 188.089C193.328 189.7 190.6 191.4 191.2 193.489C191.163 193.6 191.2 193.6 191.2 193.659C191.253 193.8 191.3 194 191.4 194.095C191.465 194.2 191.5 194.2 191.6 194.323C192.274 195 193.5 194.9 195.1 194.357C195.3 194.3 195.5 194.2 195.7 194.104L195.872 194.048C196.23 193.9 196.6 193.7 197 193.542C197.093 193.5 197.2 193.4 197.3 193.401C199.203 192.5 201.4 191.2 203.5 190.058C204.385 189.6 205.3 189.2 206.1 188.733C208.18 187.8 210.1 187.1 211.6 187.094C212.359 187.1 213 187.2 213.5 187.582L213.618 187.641C213.952 187.9 214.2 188.2 214.4 188.528C214.482 188.6 214.5 188.7 214.6 188.739C215.322 190.2 214.7 191.7 213.2 193.147C211.763 194.6 209.5 195.9 207 197.215C206.819 197.3 206.6 197.4 206.4 197.498C198.91 201.2 189.1 204 188.9 204.016C186.284 204.7 182.5 205.6 178.3 206.26L177.666 206.358L177.563 206.373C177.089 206.4 176.6 206.5 176.1 206.574C175.655 206.6 175.2 206.7 174.7 206.753L174.586 206.763C172.806 207 171 207.1 169.2 207.169H169.202C168.554 207.2 167.9 207.2 167.3 207.204H166.512C165.524 207.2 164.5 207.2 163.6 207.07C163.53 207.1 163.5 207.1 163.5 207.064C163.129 207 162.8 207 162.4 206.965C162.06 206.9 161.7 206.9 161.3 206.833C161.094 206.8 160.9 206.8 160.6 206.726C160.376 206.7 160.1 206.7 159.9 206.605L159.564 206.543L159.539 206.538C159.192 206.5 158.8 206.4 158.5 206.319C158.303 206.3 158.1 206.2 157.9 206.176L157.788 206.146C157.69 206.1 157.6 206.1 157.5 206.07L157.445 206.056L157.137 205.966C157.025 205.9 156.9 205.9 156.8 205.868L156.762 205.857L156.471 205.768C156.361 205.7 156.2 205.7 156.1 205.662L155.874 205.573L155.677 205.504C155.487 205.4 155.3 205.4 155.1 205.296L154.933 205.226L154.786 205.168C154.502 205.1 154.2 204.9 153.9 204.81L153.756 204.72L153.725 204.706C153.659 204.7 153.6 204.6 153.5 204.617C153.399 204.6 153.3 204.5 153.1 204.426L153.105 204.407L152.921 204.31C152.594 204.1 152.3 204 152 203.764L151.788 203.658C151.702 203.6 151.6 203.6 151.5 203.494L151.308 203.346L151.067 203.18L150.923 203.077C150.771 203 150.6 202.9 150.5 202.742L150.243 202.563C150.15 202.5 150.1 202.4 150 202.335C149.89 202.3 149.8 202.2 149.7 202.14L149.734 202.135C149.653 202.1 149.6 202 149.5 201.92C149.417 201.8 149.3 201.8 149.3 201.704L149.254 201.695C149.174 201.6 149.1 201.5 149 201.463C148.942 201.4 148.9 201.3 148.8 201.227C148.713 201.2 148.6 201.1 148.6 200.984C148.488 200.9 148.4 200.8 148.3 200.746L148.327 200.719C148.259 200.6 148.2 200.6 148.1 200.481C147.983 200.3 147.8 200.1 147.7 199.956C147.575 199.8 147.4 199.6 147.3 199.405L147.191 199.221C147.027 199 146.9 198.7 146.7 198.493C146.596 198.3 146.5 198.1 146.4 197.957C146.302 197.8 146.2 197.7 146.2 197.618L146.138 197.572C146.073 197.5 146 197.3 145.9 197.245C145.911 197.2 145.9 197.1 145.8 197.066C145.812 197 145.8 196.9 145.7 196.878L145.682 196.779L145.647 196.715C145.58 196.6 145.5 196.5 145.4 196.352C145.42 196.3 145.4 196.2 145.4 196.192L145.271 196.019L145.181 195.848C144.956 195.4 144.7 194.9 144.5 194.48L144.472 194.311C144.426 194.2 144.4 194.1 144.3 193.975C144.315 193.9 144.3 193.9 144.3 193.814C144.167 193.5 144.1 193.3 144 192.975C143.942 192.9 143.9 192.8 143.9 192.675C143.808 192.4 143.7 192.2 143.7 191.988C143.614 191.7 143.6 191.4 143.5 191.175C143.487 191.1 143.5 191.1 143.5 191.012C143.415 190.8 143.4 190.5 143.3 190.206C143.332 190.2 143.3 190.1 143.3 190.047L143.303 189.885C143.281 189.7 143.3 189.5 143.2 189.247C143.254 189.2 143.2 189.1 143.2 189.087C143.242 189 143.2 188.9 143.2 188.769C143.183 184.5 145.3 180.4 150 175.767C158.203 167.5 163 155.5 163 155.501C162.997 155.5 163.1 155 163.4 154.269C163.431 154.2 163.5 154.1 163.5 153.955C163.67 153.6 163.8 153.2 164 152.758L164.08 152.683C164.246 152.3 164.4 152 164.6 151.712C164.67 151.6 164.7 151.6 164.8 151.494C164.912 151.3 165.1 151.1 165.2 150.86C165.319 150.8 165.4 150.6 165.5 150.532C165.552 150.5 165.6 150.4 165.6 150.408C166.108 149.9 166.7 149.5 167.3 149.299L167.348 149.273C167.4 149.3 167.4 149.2 167.5 149.225C167.566 149.2 167.6 149.2 167.7 149.182L167.719 149.176C167.849 149.2 168 149.1 168.1 149.124H168.125C168.194 149.1 168.3 149.1 168.3 149.117C168.424 149.1 168.5 149.1 168.6 149.126C168.684 149.1 168.8 149.1 168.9 149.158C169.605 149.3 170.3 149.7 170.9 150.4C171.15 150.7 171.4 150.9 171.5 151.236C171.66 151.4 171.8 151.6 171.9 151.845C171.923 151.9 172 152 172 152.104C172.108 152.3 172.2 152.6 172.3 152.795C172.479 153.3 172.6 153.9 172.7 154.487C172.807 155 172.9 155.5 172.9 156.013C172.881 156.3 172.9 156.6 172.9 156.842C172.819 158.1 172.6 159.4 172.1 160.634C172.044 160.8 172 160.9 171.9 160.969C171.86 161.2 171.8 161.4 171.7 161.634C171.569 161.8 171.5 162 171.4 162.13C171.332 162.2 171.3 162.3 171.2 162.46C171.045 162.7 170.9 163 170.7 163.277L170.571 163.439C170.129 164.1 169.6 164.6 169.1 165.167C168.569 165.7 168 166.2 167.4 166.637C166.798 167.1 166.2 167.6 165.7 168.114C164.208 169.7 163.9 171.1 164.2 172.138C164.25 172.3 164.3 172.5 164.4 172.617C164.508 172.8 164.6 172.9 164.8 173.097L164.817 173.152L164.871 173.206C164.925 173.3 165 173.3 165 173.359L165.103 173.407C165.248 173.5 165.4 173.6 165.6 173.707C165.61 173.7 165.7 173.8 165.7 173.781C165.879 173.9 166.1 173.9 166.2 173.998C166.293 174 166.3 174 166.4 174.046L166.461 174.063L166.551 174.087L166.628 174.106L166.712 174.124L166.795 174.141L166.874 174.154C166.932 174.2 167 174.2 167.1 174.181L167.109 174.19L167.213 174.2L167.277 174.207L167.382 174.214H167.444L167.554 174.22H167.9L167.999 174.214L168.113 174.207L168.252 174.194L168.382 174.179C168.412 174.2 168.4 174.2 168.5 174.165C168.872 174.1 169.3 174 169.6 173.849L169.798 173.782C169.887 173.7 170 173.7 170.1 173.658C170.235 173.6 170.4 173.5 170.6 173.361C170.799 173.2 171 173 171.2 172.858C171.265 172.8 171.3 172.8 171.4 172.725C171.381 172.7 171.4 172.7 171.4 172.658C171.469 172.6 171.5 172.6 171.6 172.52C171.878 172.2 172.2 171.8 172.4 171.363C174.34 167.8 176.4 164.3 178.5 160.849L178.828 160.378L179.125 159.907C179.273 159.7 179.4 159.4 179.6 159.199L179.722 158.965C180.22 158.2 180.7 157.4 181.2 156.641L181.546 156.185C182.158 155.3 182.8 154.4 183.4 153.558L183.674 153.143C184.332 152.2 185 151.3 185.7 150.482L186.01 150.144C186.057 150.1 186.1 150 186.2 149.978C186.244 149.9 186.3 149.8 186.4 149.657C186.474 149.6 186.5 149.6 186.6 149.5L186.834 149.198L186.968 149.051C187.103 148.9 187.2 148.8 187.4 148.634C187.455 148.5 187.5 148.5 187.6 148.371C188.131 147.8 188.7 147.4 189.3 146.985L189.433 146.895C189.567 146.8 189.7 146.7 189.8 146.645C192.212 145.3 194.2 145.2 195.3 146.331C195.978 147 196.4 148.1 196.3 149.718C196.335 149.8 196.3 149.9 196.3 149.929V150.006C196.33 150.1 196.3 150.2 196.3 150.223C196.318 150.3 196.3 150.4 196.3 150.492C196.29 150.6 196.3 150.7 196.3 150.729C196.276 150.8 196.3 150.8 196.3 150.798C196.262 150.9 196.2 150.9 196.2 151.009C196.243 151 196.2 151.1 196.2 151.074C196.224 151.2 196.2 151.3 196.2 151.357C196.183 151.4 196.2 151.5 196.2 151.619L196.126 151.768C196.1 151.9 196.1 152.1 196 152.188C195.948 152.4 195.8 152.7 195.7 152.946C195.588 153.3 195.4 153.6 195.2 153.933C195.125 154.1 195 154.3 194.9 154.459C194.793 154.6 194.7 154.8 194.6 155.002C194.233 155.4 193.9 155.9 193.6 156.33L193.408 156.527C192.852 157.2 192.3 157.9 191.7 158.562L191.499 158.772C191.247 159.1 191 159.3 190.7 159.62L190.532 159.834C190.401 160 190.3 160.1 190.1 160.264C190.001 160.4 189.9 160.6 189.7 160.697L189.315 161.13L188.898 161.566L188.478 162.002C188.196 162.3 187.9 162.6 187.6 162.878C183.573 167 179.3 171.2 177.8 173.766C177.758 173.9 177.7 174.1 177.6 174.285C177.387 174.8 177.3 175.2 177.4 175.482C177.379 175.6 177.4 175.7 177.5 175.785C177.552 175.9 177.7 176.1 177.8 176.172C177.819 176.2 177.9 176.3 177.9 176.316C178.232 176.5 178.6 176.6 179 176.627H179.071L179.188 176.618L179.305 176.605L179.402 176.591C179.415 176.6 179.4 176.6 179.4 176.583L179.531 176.566L179.554 176.561L179.653 176.54L179.688 176.531C179.723 176.5 179.8 176.5 179.8 176.503C179.827 176.5 179.9 176.5 179.9 176.466C180.093 176.4 180.3 176.3 180.4 176.278C180.523 176.2 180.6 176.2 180.7 176.161C180.741 176.1 180.8 176.1 180.8 176.098L180.962 176.032C181.282 175.9 181.6 175.7 181.9 175.491L182.031 175.401C182.076 175.4 182.1 175.3 182.2 175.312L182.297 175.223L182.368 175.174L182.56 175.039C182.739 174.9 182.9 174.8 183.1 174.66L183.09 174.648L183.359 174.44C183.726 174.2 184.1 173.9 184.4 173.583L184.6 173.399L184.619 173.381L184.729 173.284C184.987 173.1 185.2 172.8 185.4 172.658L185.487 172.581C185.556 172.5 185.6 172.5 185.7 172.403L185.788 172.292L185.828 172.253L185.839 172.242L185.956 172.125L186.03 172.048L186.039 172.041L186.074 172.009L186.118 171.969L186.132 171.956L186.169 171.922L186.373 171.743L186.487 171.641C186.548 171.6 186.6 171.5 186.7 171.479L186.802 171.358C186.827 171.3 186.8 171.3 186.9 171.294L187.019 171.169L187.229 170.984L187.341 170.887C187.776 170.5 188.3 170.1 188.9 169.537L189.162 169.326L189.573 168.981L189.994 168.63C190.544 168.2 191.1 167.7 191.8 167.185L192.173 166.855C192.523 166.6 192.9 166.3 193.2 166.006C193.393 165.9 193.5 165.8 193.7 165.662C194.066 165.4 194.4 165.1 194.8 164.803C195.675 164.2 196.6 163.5 197.5 162.874L197.84 162.606C198.109 162.4 198.4 162.2 198.7 162.054L198.888 161.89C199.367 161.6 199.8 161.2 200.3 160.939L200.586 160.786L200.827 160.636C201.069 160.5 201.3 160.3 201.6 160.196L201.787 160.053L202.265 159.775L202.734 159.506L202.829 159.454L203.2 159.25C203.355 159.2 203.5 159.1 203.7 159.006L203.892 158.888L204.115 158.776C204.193 158.7 204.3 158.7 204.3 158.663C204.848 158.4 205.4 158.2 205.9 157.979C206.021 157.9 206.2 157.9 206.3 157.818L206.71 157.674C206.833 157.6 206.9 157.6 207.1 157.559L207.108 157.547C207.17 157.5 207.2 157.5 207.3 157.493L207.311 157.488C207.439 157.4 207.6 157.4 207.7 157.389H207.7C208.054 157.3 208.4 157.2 208.8 157.206C208.944 157.2 209.1 157.2 209.3 157.181H209.363C209.475 157.2 209.6 157.2 209.7 157.199C209.739 157.2 209.8 157.2 209.8 157.215H209.856C209.904 157.2 209.9 157.2 210 157.239C210.047 157.2 210.1 157.3 210.1 157.267H210.156C210.203 157.3 210.2 157.3 210.3 157.303C210.548 157.4 210.8 157.5 211 157.628C211.121 157.7 211.2 157.8 211.3 157.868L211.344 157.894C211.362 157.9 211.4 157.9 211.4 157.944L211.444 157.997C211.846 158.4 212.2 158.9 212.4 159.427L212.466 159.517C212.551 159.7 212.6 159.9 212.7 160.135C212.808 160.8 212.8 161.5 212.5 162.07C212.415 162.3 212.3 162.6 212.2 162.785C211.858 163.3 211.5 163.8 211.1 164.237L210.981 164.332C210.848 164.5 210.7 164.6 210.6 164.752C210.501 164.8 210.4 164.9 210.4 164.94L210.162 165.129L210.055 165.224C209.797 165.4 209.5 165.7 209.3 165.893C209.1 166 208.9 166.2 208.8 166.281C208.184 166.7 207.6 167.2 207 167.578C206.612 167.8 206.2 168.1 205.9 168.321C204.95 168.9 204 169.5 203.1 170.084C201.115 171.3 198.9 172.6 196.6 173.995L196.007 174.36C195.348 174.8 194.7 175.2 194.1 175.512L193.845 175.697L193.287 176.055C192.917 176.3 192.6 176.5 192.2 176.77L191.882 176.966C191.737 177.1 191.6 177.2 191.4 177.252L191.308 177.342L190.876 177.633L190.647 177.79L190.379 177.976L190.13 178.149C189.713 178.4 189.3 178.7 189 178.992L188.834 179.094C188.624 179.2 188.4 179.4 188.2 179.58C187.902 179.8 187.6 180.1 187.4 180.296L187.243 180.409C187.172 180.5 187.1 180.5 187 180.603C186.989 180.7 186.9 180.7 186.9 180.736L186.834 180.8C186.691 180.9 186.6 181.1 186.4 181.242L186.35 181.318C186.203 181.5 186.1 181.7 186 181.81L185.913 181.881C185.825 182 185.7 182.1 185.7 182.277C185.652 182.3 185.6 182.3 185.6 182.379L185.569 182.481L185.536 182.555L185.515 182.605L185.498 182.65L185.475 182.711C185.413 182.9 185.4 183.1 185.3 183.234L185.337 183.296L185.331 183.354V183.669C185.331 183.7 185.3 183.7 185.3 183.749L185.343 183.797C185.343 183.8 185.3 183.8 185.3 183.876C185.357 183.9 185.4 183.9 185.4 183.986V183.991C185.379 184 185.4 184.1 185.4 184.095C185.404 184.1 185.4 184.2 185.4 184.206C185.443 184.3 185.5 184.3 185.5 184.417C185.508 184.5 185.5 184.5 185.5 184.541C185.54 184.6 185.6 184.6 185.6 184.566L185.586 184.647L185.636 184.758C185.69 184.9 185.8 185 185.8 185.094L185.879 185.208L185.947 185.322C185.959 185.3 186 185.4 186 185.376L186.01 185.399L186.035 185.422L186.061 185.442C186.099 185.5 186.1 185.5 186.2 185.505C186.206 185.5 186.2 185.5 186.2 185.525C186.831 185.7 188 185.2 189.6 184.346C189.682 184.3 189.8 184.2 189.9 184.196L190.355 183.934L190.589 183.804C190.756 183.7 190.9 183.6 191.1 183.515L191.417 183.336C193.5 182.1 196 180.6 198.6 179.093C198.801 178.9 199 178.8 199.3 178.672L199.771 178.361C200.335 178 200.9 177.7 201.5 177.404C202.188 177 202.9 176.6 203.6 176.254L204.115 176.013C204.431 175.9 204.7 175.7 205.1 175.557C205.651 175.3 206.3 175 206.9 174.748L207.203 174.612L207.243 174.596C209.018 173.9 210.6 173.5 211.9 173.459C212.21 173.5 212.5 173.5 212.8 173.528H212.778C212.867 173.5 212.9 173.6 213 173.582H213.046C213.259 173.6 213.5 173.7 213.7 173.812C213.937 173.9 214.2 174.1 214.4 174.371C214.489 174.5 214.6 174.6 214.7 174.714C214.789 174.9 214.9 175.2 215 175.406C215.01 175.5 215 175.6 215.1 175.693C215.278 176.4 215.3 177.2 215 177.998Z" fill="#FF9D00"/>
<path fill-rule="evenodd" clip-rule="evenodd" d="M203.21 123.685V123.194C203.21 81.3 169.3 47.4 127.4 47.411C85.5791 47.4 51.6 81.3 51.6 123.194V123.358C51.646 123.5 51.6 123.6 51.6 123.685C51.6529 123.8 51.6 124 51.6 124.174L51.6581 124.534L51.661 124.663C51.661 124.7 51.7 124.8 51.7 124.842C51.6681 124.9 51.7 125 51.7 125.128L51.681 125.517L51.697 125.974L51.702 126.124L51.722 126.597V126.62C51.73 126.8 51.7 127 51.8 127.173L51.75 127.187C51.76 127.4 51.8 127.6 51.8 127.753C51.7921 127.9 51.8 128.1 51.8 128.275L51.8171 128.306C51.8258 128.5 51.8 128.6 51.9 128.754L51.85 128.794L51.883 129.226L51.8861 129.254C51.8921 129.3 51.9 129.4 51.9 129.503C51.9658 130.2 52 130.9 52.1 131.664L52.12 131.709L52.181 132.238L52.2491 132.793L52.299 133.17L52.322 133.347C52.3753 133.8 52.4 134.2 52.5 134.568L52.4991 134.595L52.558 134.979C52.8435 136.8 53.2 138.6 53.6 140.429L53.6231 140.451L53.655 140.586L53.746 140.971L53.802 140.904C56.002 138.3 59.2 136.8 62.7 136.824C65.519 136.8 68.4 137.8 71.3 139.605C73.2621 140.8 75.4 143 77.6 145.733C79.6241 142.9 82.5 141 85.7 140.523C86.3513 140.4 87 140.4 87.6 140.375C95.0441 140.4 99.5 146.8 101.2 152.633C102.051 154.6 106.1 163.5 112.2 169.568C121.392 178.8 123.7 188.3 119.1 198.511H119.148C119.459 198.6 119.8 198.6 120.1 198.607C120.274 198.6 120.5 198.6 120.7 198.659L120.714 198.665L121.127 198.7L121.507 198.73C121.869 198.8 122.2 198.8 122.6 198.807L122.885 198.824L123.114 198.838L123.256 198.846L123.703 198.869L123.825 198.874L124.294 198.895L124.816 198.915L125.235 198.927L125.305 198.929C125.394 198.9 125.5 198.9 125.6 198.936L125.668 198.939C126.258 198.9 126.8 199 127.4 198.959H128.063L128.51 198.954C128.62 198.9 128.7 198.9 128.8 198.949H129.014L129.165 198.945C129.224 198.9 129.3 198.9 129.3 198.941H129.522L129.873 198.932L130.401 198.914L130.982 198.888C131.15 198.9 131.3 198.9 131.5 198.865L131.661 198.854L131.927 198.84L132.083 198.831L132.201 198.823L132.738 198.788L133.274 198.749L133.761 198.71L134.103 198.681L134.479 198.647C135.107 198.6 135.7 198.5 136.4 198.45L136.786 198.399C132.287 188.2 134.6 178.8 143.8 169.577C149.876 163.5 153.9 154.6 154.8 152.625C156.438 146.8 160.9 140.4 168.3 140.368C168.981 140.4 169.6 140.4 170.2 140.516C173.486 141 176.3 142.9 178.4 145.726C180.566 143 182.7 140.8 184.6 139.597C187.539 137.8 190.4 136.8 193.3 136.817C196.388 136.8 199.2 137.9 201.3 140.02C201.384 139.8 201.4 139.7 201.5 139.512L201.568 139.006C201.607 138.8 201.7 138.6 201.7 138.451C201.749 138.1 201.8 137.8 201.9 137.467C201.944 137.1 202 136.8 202.1 136.437L202.098 136.251C202.117 136.1 202.1 136 202.2 135.92C202.19 135.8 202.2 135.6 202.2 135.402L202.257 135.336L202.328 134.883L202.398 134.424V134.42C202.449 134.1 202.5 133.7 202.5 133.403L202.553 133.319L202.616 132.841L202.667 132.433L202.757 131.629L202.792 131.306L202.801 131.218C202.82 131 202.8 130.9 202.8 130.696V130.682C202.867 130.5 202.9 130.4 202.9 130.266C202.964 129.5 203 128.7 203.1 127.891C203.081 127.8 203.1 127.6 203.1 127.499V127.493L203.122 127.002L203.128 126.892C203.144 126.6 203.2 126.2 203.2 125.896V125.884L203.174 125.754C203.179 125.6 203.2 125.5 203.2 125.425L203.185 125.381C203.189 125.3 203.2 125.2 203.2 125.067L203.196 124.977C203.199 124.9 203.2 124.8 203.2 124.663L203.204 124.574C203.207 124.4 203.2 124.3 203.2 124.174V123.685ZM108.638 199.391C114.64 190.6 114.2 184 106 175.754C97.7441 167.5 93 155.5 93 155.487C92.951 155.5 91.2 148.5 87.1 149.138C83.0021 149.8 80 160.2 88.5 166.622C97.0941 173 86.8 177.3 83.6 171.352C80.2761 165.3 71.3 149.9 66.6 146.972C61.991 144 58.7 145.7 59.8 151.757C60.36 154.8 65.4 159.9 70.2 164.743C74.9671 169.6 79.4 174.2 78.5 175.768C76.581 179 69.9 172 69.9 172.023C69.9141 172 49 153 44.5 157.976C40.304 162.5 46.8 166.4 56.7 172.397C57.5671 172.9 58.4 173.4 59.3 173.969C70.7231 180.9 71.6 182.7 70 185.293C69.395 186.3 65.6 184 60.9 181.153C52.897 176.3 42.4 170 40.9 175.688C39.5781 180.6 47.3 183.6 54.4 186.32C60.228 188.6 65.6 190.7 64.8 193.484C63.9821 196.4 59.5 194 54.7 191.305C49.2771 188.3 43.3 185 41.4 188.735C37.6901 195.7 66.8 203.9 67 204.015C76.4231 206.4 100.3 211.6 108.6 199.391ZM147.303 199.391C141.301 190.6 141.7 184 150 175.754C158.197 167.5 163 155.5 163 155.487C162.99 155.5 164.8 148.5 168.9 149.138C172.939 149.8 175.9 160.2 167.4 166.622C158.847 173 169.1 177.3 172.4 171.352C175.666 165.3 184.6 149.9 189.3 146.972C193.945 144 197.2 145.7 196.1 151.757C195.578 154.8 190.5 159.9 185.8 164.744C180.97 169.6 176.5 174.2 177.5 175.768C179.355 179 186 172 186 172.019C186.027 172 206.9 153 211.4 157.973C215.637 162.5 209.2 166.4 199.2 172.394C198.348 172.9 197.5 173.4 196.6 173.966C185.218 180.9 184.3 182.7 185.9 185.289C186.546 186.2 190.4 184 195.1 181.149C203.044 176.3 213.6 170 215.1 175.685C216.364 180.6 208.6 183.6 201.6 186.317C195.713 188.6 190.3 190.7 191.1 193.481C191.957 196.4 196.4 194 201.2 191.301C206.66 188.3 212.6 185 214.6 188.732C218.248 195.7 189.2 203.9 188.9 204.007C179.515 206.4 155.6 211.6 147.3 199.391Z" fill="#FFD21E"/>
<path fill-rule="evenodd" clip-rule="evenodd" d="M152.047 102.567C153.229 103 154.1 104.3 154.9 105.468C156.074 107.1 157.1 108.6 158.7 107.769C160.644 106.8 162.2 105.2 163.2 103.302C164.246 101.4 164.7 99.2 164.5 97.096C164.321 95.5 163.8 93.9 163 92.5548C162.161 91.2 161 90 159.7 89.0862C158.361 88.2 156.8 87.6 155.2 87.3569C153.65 87.1 152 87.2 150.5 87.699C148.934 88.2 147.5 89 146.3 90.0455C145.119 91.1 144.2 92.5 143.6 93.946C142.936 95.4 142.7 97 142.7 98.652C142.804 100.3 143.2 101.8 144 103.26C144.74 104.7 146.4 104 148.2 103.302C149.525 102.8 151 102.2 152.1 102.567ZM100.672 102.567C99.49 103 98.6 104.3 97.8 105.468C96.645 107.1 95.6 108.6 94 107.769C91.5845 106.5 89.8 104.4 88.8 101.838C87.9075 99.3 88 96.5 89 93.9841C90.0324 91.5 92 89.5 94.4 88.2855C96.856 87.1 99.7 86.9 102.2 87.701C104.307 88.3 106.1 89.5 107.5 91.2065C108.885 92.9 109.7 94.9 110 97.049C110.165 99.2 109.7 101.4 108.7 103.26C107.979 104.7 106.3 104 104.6 103.303C103.193 102.8 101.8 102.2 100.7 102.567ZM144.099 149.318C152.242 142.9 155.2 132.4 155.2 125.977C155.233 120.9 151.8 122.5 146.3 125.202L145.999 125.355C140.957 127.8 134.2 131.2 126.9 131.177C119.508 131.2 112.8 127.8 107.8 125.354C102.084 122.5 98.5 120.8 98.5 125.978C98.527 132.6 101.7 143.6 110.4 149.912C111.596 147.6 113.2 145.5 115.2 143.813C117.202 142.1 119.5 140.9 122 140.126C122.89 139.9 123.8 141.4 124.7 142.904C125.594 144.4 126.5 145.9 127.4 145.902C128.406 145.9 129.4 144.4 130.3 142.95C131.299 141.4 132.3 139.9 133.2 140.237C137.864 141.7 141.8 145 144.1 149.318Z" fill="#32343D"/>
<path d="M144.097 149.317C139.856 152.7 134.2 154.9 126.9 154.9C119.981 154.9 114.6 152.9 110.4 149.911C111.596 147.6 113.2 145.5 115.2 143.812C117.202 142.1 119.5 140.9 122 140.125C123.73 139.6 125.5 145.9 127.4 145.901C129.433 145.9 131.4 139.7 133.2 140.236C137.863 141.7 141.8 145 144.1 149.317Z" fill="#FF323D"/>
<path fill-rule="evenodd" clip-rule="evenodd" d="M81.2 111.64C80.2312 112.3 79.1 112.7 78 112.801C76.7971 112.9 75.6 112.7 74.5 112.295C73.6893 111.9 72.9 111.4 72.2 110.759C71.5903 110.1 71.1 109.3 70.7 108.458C70.267 107.4 70.1 106.2 70.2 105.051C70.3228 103.9 70.7 102.8 71.4 101.808C72.1488 100.6 73.3 99.7 74.5 99.1967C75.8466 98.7 77.3 98.5 78.7 98.7935C80.0223 99.1 81.3 99.7 82.3 100.734C83.2675 101.7 83.9 103 84.2 104.365C84.4883 105.7 84.3 107.2 83.8 108.46C83.2748 109.8 82.4 110.9 81.2 111.64ZM182.613 111.64C181.644 112.3 180.5 112.7 179.4 112.801C178.209 112.9 177 112.7 176 112.295C175.101 111.9 174.3 111.4 173.7 110.759C173.003 110.1 172.5 109.3 172.1 108.458C171.68 107.4 171.5 106.2 171.6 105.051C171.736 103.9 172.1 102.8 172.8 101.808C173.364 100.9 174.1 100.2 175 99.6658C175.931 99.1 176.9 98.8 178 98.6917C179.025 98.6 180.1 98.7 181.1 99.0728C182.051 99.4 182.9 100 183.7 100.736C184.68 101.7 185.3 103 185.6 104.365C185.902 105.7 185.8 107.2 185.2 108.46C184.687 109.8 183.8 110.9 182.6 111.64Z" fill="#FFAD03"/>
</svg>
