<?xml version="1.0" encoding="UTF-8"?>
<!-- Uploaded to: SVG Repo, www.svgrepo.com, Generator: SVG Repo Mixer Tools -->
<svg width="64" height="64" viewBox="-22 0 300 300" version="1.1" xmlns="http://www.w3.org/2000/svg" xmlns:xlink="http://www.w3.org/1999/xlink" preserveAspectRatio="xMidYMid">
		<g>
				<path d="M10.5838307,156.4 L10.5838307,156.2 L10.5838307,123.7 L17.7200527,123.7 L17.7200527,158.9 C18.0516208,161.8 17.8,164.6 17,167.4 C16.19722,170.1 14.8,172.7 13,174.9 C9.6624625,177.8 5.3,179.4 0.9,179.3 L0.145805038,174 C3.01718628,174 5.8,172.9 7.9,171 C9.83826599,168.8 10.6,165.7 10.6,156.4 Z M63.8037763,152.2 C63.8037763,156.2 63.8,159.8 64.1,162.9 L57.7859014,162.9 L57.3598815,156.5 C56.0343268,158.8 54.1,160.6 51.9,161.9 C49.5925854,163.2 47,163.8 44.4,163.8 C38.2412071,163.8 30.9,160.4 30.9,146.7 L30.8919752,124 L38.0281972,124 L38.0281972,145.3 C38.0281972,152.7 40.3,157.6 46.8,157.6 C48.0878176,157.7 49.4,157.4 50.6,156.9 C51.8582911,156.4 53,155.7 53.9,154.7 C54.8485056,153.8 55.6,152.7 56.1,151.4 C56.5909282,150.2 56.8,148.9 56.8,147.6 L56.8273268,123.7 L63.9634889,123.7 L63.9634889,152 L63.8037763,152.2 Z M77.330762,136.7 C77.330762,131.7 77.3,127.7 77,124 L83.4018876,124 L83.7213726,130.6 C85.1452074,128.2 87.2,126.3 89.7,124.9 C92.1093944,123.6 94.9,123 97.7,123.1 C107.153723,123.1 114.3,131 114.3,142.8 C114.289945,156.8 105.7,163.7 96.4,163.7 C94.0776877,163.8 91.7,163.3 89.6,162.2 C87.4831127,161.2 85.7,159.6 84.4,157.6 L84.3604623,178.9 L77.330762,178.9 L77.330762,136.8 L77.330762,136.7 Z M84.3604623,147 C84.3797833,148 84.5,149 84.7,149.9 C85.2842232,152.3 86.7,154.4 88.6,155.9 C90.5178913,157.4 92.9,158.2 95.3,158.2 C102.840047,158.2 107.3,152 107.3,143.2 C107.260258,135.4 103.1,128.7 95.6,128.7 C92.6257387,129 89.8,130.3 87.8,132.4 C85.7076111,134.6 84.5,137.4 84.4,140.4 L84.3604623,147 Z M127.004503,123.9 L135.578617,146.9 C136.483954,149.5 137.4,152.5 138.1,154.8 C138.827183,152.5 139.6,149.5 140.6,146.7 L148.359872,123.9 L155.868876,123.9 L145.21784,151.6 C139.892293,165 136.6,171.8 131.7,176 C129.27643,178.2 126.3,179.8 123,180.6 L121.252929,174.6 C123.530581,173.8 125.6,172.7 127.5,171.1 C130.081872,169 132.1,166.3 133.5,163.2 C133.792288,162.7 134,162.1 134.1,161.5 C134.026892,160.9 133.9,160.3 133.6,159.7 L119.122716,123.8 L126.897968,123.8 L127.004503,123.9 Z M174.813541,112.8 L174.813541,124 L185.038557,124 L185.038557,129.3 L174.813541,129.3 L174.813541,150.3 C174.813541,155.1 176.2,157.8 180.1,157.8 C181.538758,157.8 182.9,157.7 184.3,157.3 L184.612537,162.7 C182.57671,163.4 180.4,163.7 178.3,163.6 C176.849069,163.7 175.4,163.5 174.1,163 C172.754744,162.5 171.5,161.7 170.6,160.6 C168.383883,157.7 167.4,154.1 167.8,150.5 L167.783854,129.2 L161.712742,129.2 L161.712742,123.9 L167.890329,123.9 L167.890329,114.4 L174.813541,112.8 Z M198.184399,144.6 C198.03988,146.5 198.3,148.3 198.9,150 C199.541179,151.7 200.5,153.2 201.8,154.5 C203.091285,155.8 204.6,156.8 206.3,157.4 C208.035975,158 209.9,158.3 211.7,158.1 C215.311153,158.2 218.9,157.5 222.3,156.1 L223.533958,161.4 C219.400274,163.1 215,163.9 210.5,163.8 C207.881107,164 205.3,163.6 202.8,162.7 C200.385023,161.8 198.2,160.3 196.3,158.5 C194.51022,156.6 193.1,154.4 192.2,151.9 C191.331104,149.4 191,146.8 191.2,144.2 C191.207978,132.5 198.2,123.2 209.6,123.2 C222.362314,123.2 225.6,134.4 225.6,141.6 C225.625954,142.7 225.6,143.8 225.6,144.9 L198.024687,144.9 L198.184399,144.6 Z M219.06051,139.3 C219.266043,137.9 219.2,136.4 218.8,135.1 C218.358433,133.7 217.7,132.4 216.7,131.3 C215.786941,130.2 214.6,129.3 213.3,128.7 C212.013656,128.1 210.6,127.8 209.2,127.8 C206.228949,128 203.5,129.3 201.5,131.5 C199.448402,133.6 198.3,136.4 198.2,139.3 L219.06051,139.3 Z M236.385366,136.1 C236.385366,131.5 236.4,127.5 236.1,123.9 L242.456492,123.9 L242.456492,131.5 L242.775977,131.5 C243.446769,129.2 244.8,127.1 246.7,125.6 C248.64999,124 251,123.1 253.4,123 C254.098762,122.9 254.8,122.9 255.5,123 L255.450756,129.7 C254.63688,129.6 253.8,129.6 253,129.7 C250.58353,129.8 248.3,130.7 246.5,132.4 C244.774238,134.1 243.7,136.3 243.5,138.7 C243.269171,139.8 243.2,140.9 243.1,142 L243.148819,162.7 L236.11909,162.7 L236.11909,136.1 L236.385366,136.1 Z" fill="#4E4E4E">

</path>
				<path d="M233.257943,17 C233.476636,20.5 232.6,24.1 230.8,27.2 C228.999898,30.3 226.3,32.8 223.1,34.3 C219.85034,35.9 216.2,36.4 212.7,35.9 C209.134702,35.4 205.8,33.9 203.2,31.5 C200.491421,29.1 198.6,25.9 197.7,22.5 C196.855323,19 197,15.3 198.2,12 C199.461041,8.6 201.7,5.6 204.5,3.5 C207.423803,1.4 210.9,0.2 214.5,0 C216.806708,-0.1 219.2,0.2 221.4,1 C223.591922,1.8 225.6,3 227.4,4.6 C229.12701,6.2 230.5,8.1 231.6,10.2 C232.563283,12.3 233.1,14.6 233.3,17 Z" fill="#767677">

</path>
				<path d="M127.952969,225.5 C80.0236372,225.5 37.9,208.3 16.1,182.9 C24.5683135,205.8 39.8,225.5 59.8,239.4 C79.8070981,253.4 103.6,260.8 128,260.8 C152.318411,260.8 176.1,253.4 196.1,239.4 C216.0886,225.5 231.3,205.8 239.8,182.9 C218.061379,208.3 176.1,225.5 128,225.5 Z" fill="#F37726">

</path>
				<path d="M127.952969,60.4 C175.882898,60.4 218,77.6 239.8,103 C231.337863,80.1 216.1,60.4 196.1,46.5 C176.098839,32.5 152.3,25.1 128,25.1 C103.588124,25.1 79.8,32.5 59.8,46.5 C39.8176362,60.4 24.6,80.1 16.1,103 C37.8984531,77.5 79.8,60.4 128,60.4 Z" fill="#F37726">

</path>
				<path d="M61.9716874,275 C62.2528294,279.5 61.2,284 58.9,287.9 C56.6284936,291.8 53.2,294.9 49.2,296.9 C45.1113611,298.8 40.6,299.5 36.1,298.9 C31.6125362,298.3 27.4,296.3 24.1,293.3 C20.7160636,290.3 18.3,286.3 17.2,282 C16.1223339,277.6 16.3,273 17.9,268.7 C19.3913284,264.5 22.1,260.8 25.8,258.1 C29.4129289,255.4 33.8,253.9 38.3,253.7 C41.2280121,253.5 44.2,253.9 47,254.9 C49.7659364,255.9 52.3,257.4 54.5,259.4 C56.7364042,261.4 58.5,263.8 59.8,266.5 C61.0776558,269.1 61.8,272 62,275 Z" fill="#9E9E9E">

</path>
				<path d="M21.5641016,54.6 C18.9814831,54.6 16.4,53.9 14.2,52.6 C12.0567996,51.2 10.3,49.2 9.3,46.9 C8.19768984,44.5 7.9,41.9 8.3,39.3 C8.69771827,36.8 9.9,34.4 11.6,32.5 C13.3892752,30.6 15.7,29.3 18.2,28.7 C20.6997394,28.1 23.3,28.3 25.8,29.2 C28.1787154,30.1 30.3,31.7 31.8,33.8 C33.3191879,35.9 34.2,38.4 34.3,40.9 C34.3930308,44.4 33.1,47.8 30.7,50.4 C28.3470417,52.9 25.1,54.4 21.6,54.6 Z" fill="#616262">

</path>
		</g>
</svg>