<svg version="1.2" xmlns="http://www.w3.org/2000/svg" viewBox="0 0 349 349" width="64" height="64">
	<title>Ubuntu-logo-2022-svg</title>
	<style>
		.s0 { fill: #e9500e } 
		.s1 { fill: #ffffff } 
	</style>
	<path id="Layer" class="s0" d="m0 0h348.3v348.9h-348.3z"/>
	<path id="Layer" class="s1" d="m76 206.3c-20.3 0-36.6-16.4-36.6-36.6 0-20.2 16.3-36.5 36.6-36.5 20.2 0 36.5 16.3 36.5 36.5 0 20.2-16.3 36.6-36.5 36.6zm152.2-80.1c-20.2 0-36.6-16.3-36.6-36.5 0-20.2 16.4-36.6 36.6-36.6 20.2 0 36.5 16.4 36.5 36.6 0 20.2-16.3 36.5-36.5 36.5zm-69.8 137.5c-6.5-1.3-12.7-3.4-18.7-6.2-6-2.7-11.6-6.1-16.9-10.1-5.2-4-10-8.5-14.2-13.6-4.2-5-7.9-10.5-10.9-16.3q-3.7 1.6-7.5 2.7-3.9 1.1-7.8 1.6-4 0.5-8 0.3-4-0.1-8-0.8c3.7 9 8.4 17.5 14.1 25.3 5.7 7.9 12.4 15 19.8 21.2 7.5 6.3 15.6 11.6 24.4 15.8 8.7 4.3 17.9 7.4 27.4 9.4q3.2 0.7 6.4 1.2 3.3 0.5 6.5 0.9 3.3 0.3 6.5 0.5 3.3 0.1 6.6 0.1-2.5-3.3-4.5-6.9-2-3.6-3.3-7.5-1.4-3.9-2.1-8-0.8-4-0.8-8.1-4.6-0.5-9-1.5zm61.5 36.7c-20.2 0-36.5-16.3-36.5-36.5 0-20.2 16.3-36.5 36.5-36.5 20.2 0 36.6 16.3 36.6 36.5 0 20.2-16.4 36.5-36.6 36.5zm50.9-49.9c7.8-9.8 14-20.8 18.3-32.5 4.4-11.8 6.9-24.1 7.5-36.6 0.5-12.5-0.9-25-4.3-37.1-3.4-12.1-8.6-23.5-15.5-34q-1.6 3.7-3.7 7.1-2.1 3.5-4.7 6.5-2.7 3.1-5.7 5.7-3.1 2.6-6.5 4.8c3.7 6.8 6.4 14.1 8.2 21.7 1.7 7.6 2.5 15.4 2.2 23.1-0.2 7.8-1.5 15.5-3.8 22.9-2.2 7.5-5.4 14.6-9.5 21.2q3.2 2.6 5.9 5.7 2.8 3.1 5 6.5 2.2 3.5 3.9 7.3 1.6 3.7 2.7 7.7zm-197.7-133.1q1.4-0.1 2.8-0.1 3.7 0 7.3 0.5 3.6 0.5 7.1 1.5 3.5 1 6.9 2.5 3.3 1.5 6.4 3.4c4.1-5.8 8.7-11.1 14-15.8 5.3-4.7 11.1-8.7 17.3-12.1 6.2-3.3 12.8-5.9 19.6-7.6 6.9-1.8 13.9-2.8 20.9-2.9q0.2-4 1.1-7.9 0.8-4 2.2-7.7 1.4-3.8 3.4-7.3 1.9-3.5 4.4-6.7c-11.3-0.9-22.6-0.1-33.7 2.2-11 2.3-21.7 6.2-31.7 11.5-10 5.3-19.2 12-27.3 19.8-8.1 7.9-15.1 16.9-20.7 26.7z"/>
</svg>