<?xml version="1.0" encoding="UTF-8" standalone="no"?>
<svg
   xmlns:dc="http://purl.org/dc/elements/1.1/"
   xmlns:cc="http://creativecommons.org/ns#"
   xmlns:rdf="http://www.w3.org/1999/02/22-rdf-syntax-ns#"
   xmlns:svg="http://www.w3.org/2000/svg"
   xmlns="http://www.w3.org/2000/svg"
   viewBox="170 340 1020 500"
   xml:space="preserve"
   id="svg2"
   version="1.1"><metadata
     id="metadata8"><rdf:RDF><cc:Work
         rdf:about=""><dc:format>image/svg+xml</dc:format><dc:type
           rdf:resource="http://purl.org/dc/dcmitype/StillImage" /></cc:Work></rdf:RDF></metadata><defs
     id="defs6">
    <linearGradient id="provinceFill" x1="0%" y1="0%" x2="100%" y2="100%">
      <stop offset="0%" stop-color="#0f766e" stop-opacity="1"/>
      <stop offset="55%" stop-color="#5b21b6" stop-opacity="1"/>
      <stop offset="100%" stop-color="#ea580c" stop-opacity="1"/>
    </linearGradient>
    <linearGradient id="cornerFill" x1="0%" y1="0%" x2="100%" y2="100%">
      <stop offset="0%" stop-color="#0891b2" stop-opacity="0.18"/>
      <stop offset="55%" stop-color="#6d28d9" stop-opacity="0.12"/>
      <stop offset="100%" stop-color="#ea580c" stop-opacity="0.10"/>
    </linearGradient>
    <linearGradient id="arcHighlight" x1="0%" y1="0%" x2="100%" y2="0%">
      <stop offset="0%" stop-color="#0f766e"/>
      <stop offset="100%" stop-color="#5b21b6"/>
    </linearGradient>
  </defs><g
     transform="matrix(1.3333333,0,0,-1.3333333,0,1333.3333)"
     id="g10"><g
       transform="scale(0.1)"
       id="g12"><path
         id="path44"
         style="fill:url(#cornerFill);stroke:url(#provinceFill);stroke-width:30;stroke-opacity:0.9;stroke-linejoin:round;stroke-linecap:round"
         d="m 5374.78,4265.8 h -25.3 v 103.33 h 25.3 z m -41.12,0 h -25.3 v 103.33 h 25.3 z m -41.12,0 h -25.3 v 103.33 h 25.3 z m -41.12,0 h -25.3 v 103.33 h 25.3 z m -41.12,0 h -25.31 v 103.33 h 25.31 z m -41.12,0 h -25.31 v 103.33 h 25.31 z m -41.12,0 h -25.31 v 103.33 h 25.31 z m -41.12,0 h -25.31 v 103.33 h 25.31 z m -41.12,0 h -25.31 v 103.33 h 25.31 z m -41.13,0 h -25.3 v 103.33 h 25.3 z m -41.12,0 h -25.3 v 103.33 h 25.3 z m -41.12,0 h -25.3 v 103.33 h 25.3 z m -41.12,0 h -25.3 v 103.33 h 25.3 z m -41.12,0 h -25.3 v 103.33 h 25.3 z m -41.12,0 h -25.31 v 103.33 h 25.31 z m -41.12,0 h -25.31 v 103.33 h 25.31 z m -41.12,0 h -25.31 v 103.33 h 25.31 z m -41.12,0 h -25.31 v 103.33 h 25.31 z m -41.12,0 h -25.31 v 103.33 h 25.31 z m -41.12,0 h -25.31 v 103.33 h 25.31 z m -41.13,0 h -25.3 v 103.33 h 25.3 z m -41.12,0 h -25.3 v 103.33 h 25.3 z m -41.12,0 h -25.3 v 103.33 h 25.3 z m -41.12,0 h -25.3 v 103.33 h 25.3 z m -41.12,0 h -25.31 v 103.33 h 25.31 z m -41.12,0 h -25.31 v 103.33 h 25.31 z m -41.12,0 h -25.31 v 103.33 h 25.31 z m -41.12,0 h -25.31 v 103.33 h 25.31 z m -41.12,0 h -25.31 v 103.33 h 25.31 z m -41.12,0 h -25.31 v 103.33 h 25.31 z m -41.13,0 h -25.3 v 103.33 h 25.3 z m -112.81,0 h -25.31 v 103.33 h 25.31 z m -41.13,0 h -25.3 v 103.33 h 25.3 z m -41.12,0 h -25.3 v 103.33 h 25.3 z m -41.12,0 h -25.3 v 103.33 h 25.3 z m -41.12,0 h -25.3 v 103.33 h 25.3 z m -41.12,0 h -25.3 v 103.33 h 25.3 z m -41.12,0 h -25.31 v 103.33 h 25.31 z m 1991.47,171.34 h -147.06 c -50.01,0 -90.55,40.54 -90.55,90.56 v 1.82 c 0,50.02 40.54,90.56 90.55,90.56 H 3438.93 v -265.97 c 0,-8.01 6.5,-14.5 14.5,-14.5 h 152.36 c 8.01,0 14.5,6.49 14.5,14.5 v 114.77 c 0,34.59 28.04,62.63 62.63,62.63 h 1.26 c 34.59,0 62.63,-28.04 62.63,-62.63 v -203.08 -11.59 h 9.49 25.31 15.82 25.3 15.82 25.3 15.82 25.3 15.82 25.3 15.82 25.3 15.82 25.31 9.48 v 11.59 40.07 58.21 c 0,16.72 13.56,30.27 30.28,30.27 h 0.61 c 16.72,0 30.27,-13.55 30.27,-30.27 v -44.5 -53.78 -11.59 h 16.87 25.3 15.82 25.31 15.81 25.31 15.81 25.31 15.81 25.31 15.81 25.31 15.81 25.31 15.82 25.3 15.82 25.3 15.82 25.3 15.82 25.3 15.82 25.31 15.81 25.31 15.81 25.31 15.81 25.31 15.81 25.31 15.81 25.31 15.82 25.3 15.82 25.3 15.82 25.3 15.82 25.3 15.82 25.3 15.82 25.31 15.81 25.31 15.81 25.31 15.81 25.31 15.81 25.31 15.82 25.3 15.82 25.3 15.82 25.3 15.82 25.3 20.04 v 11.59 98.28 c 0,16.72 13.55,30.27 30.27,30.27 h 0.61 c 16.72,0 30.27,-13.55 30.27,-30.27 v -60.32 h 328.18 c 8,0 14.5,6.49 14.5,14.5 v 93.31 c 0,14.12 -11.45,25.57 -25.57,25.57" /><path
         id="path46"
         style="fill:url(#cornerFill);stroke:url(#provinceFill);stroke-width:30;stroke-opacity:0.9;stroke-linejoin:round;stroke-linecap:round"
         d="m 2581.72,7425.79 h -354.27 c -26.21,0 -47.45,-21.24 -47.45,-47.44 0,-26.21 21.24,-47.45 47.45,-47.45 h 306.82 V 4317.47 c 0,-26.21 21.25,-47.45 47.45,-47.45 26.2,0 47.45,21.24 47.45,47.45 v 3060.88 c 0,26.2 -21.25,47.44 -47.45,47.44" /><path
         id="path48"
         style="fill:url(#cornerFill);stroke:url(#provinceFill);stroke-width:30;stroke-opacity:0.9;stroke-linejoin:round;stroke-linecap:round"
         d="m 6728.52,5943.03 c -8.89,35.12 -27.09,68.37 -54.57,95.84 -12.55,12.55 -26.28,23.14 -40.84,31.78 v 0 c -31.12,18.55 -67.5,29.19 -106.36,29.19 -17.75,0 -34.95,-2.22 -51.35,-6.41 v 0 c -35.12,-8.9 -68.37,-27.1 -95.85,-54.58 -12.55,-12.54 -23.14,-26.27 -31.78,-40.83 l 0.01,-0.01 c -18.55,-31.12 -29.19,-67.5 -29.19,-106.36 0,-17.74 2.22,-34.94 6.41,-51.35 v 0 c 8.89,-35.12 27.09,-68.37 54.57,-95.85 12.55,-12.54 26.28,-23.13 40.84,-31.77 v 0 c 31.12,-18.55 67.5,-29.19 106.36,-29.19 17.75,0 34.95,2.22 51.35,6.41 v 0 c 35.12,8.9 68.37,27.1 95.85,54.57 12.55,12.55 23.14,26.28 31.78,40.84 v 0.01 c 18.54,31.12 29.18,67.5 29.18,106.36 0,17.74 -2.22,34.94 -6.4,51.35 h -0.01" /><path
         id="path50"
         style="fill:url(#cornerFill);stroke:url(#provinceFill);stroke-width:30;stroke-opacity:0.9;stroke-linejoin:round;stroke-linecap:round"
         d="m 4580.45,5789.81 0.01,-0.01 c -8.28,-19.35 -19.09,-38 -32.5,-55.51 -29.38,-38.35 -67.39,-66.2 -109.22,-82.89 v -0.01 c -19.53,-7.83 -40.37,-13.37 -62.23,-16.27 -47.89,-6.34 -94.46,0.84 -135.84,18.62 l -0.01,-0.01 c -19.35,8.28 -38,19.09 -55.51,32.5 -38.35,29.39 -66.2,67.39 -82.89,109.22 v 0 c -7.84,19.53 -13.38,40.37 -16.28,62.23 -6.34,47.9 0.84,94.46 18.62,135.84 l -0.01,0.01 c 8.28,19.35 19.09,38 32.51,55.51 29.38,38.35 67.38,66.2 109.21,82.89 v 0 c 19.54,7.84 40.37,13.38 62.24,16.28 47.89,6.34 94.45,-0.84 135.83,-18.62 l 0.01,0.01 c 19.35,-8.28 38,-19.09 55.51,-32.5 38.35,-29.39 66.2,-67.39 82.89,-109.22 v 0 c 7.84,-19.53 13.38,-40.37 16.28,-62.24 6.34,-47.89 -0.84,-94.45 -18.62,-135.83 z m 460.01,-21.88 c 90.67,18.04 154.71,100.8 147.1,192.92 -1.16,14 -2.66,28.03 -4.53,42.1 -10.96,82.83 -33.54,161.23 -65.87,233.86 -15.35,34.45 -62.5,39.86 -85.11,9.67 -159.6,-213.08 -357.83,-252.29 -448.75,-258.4 69.28,26.17 200.76,100.64 340.53,310.05 51.22,76.72 37.68,180.35 -32.7,239.99 -10.71,9.07 -21.7,17.93 -32.97,26.57 -66.32,50.81 -137.72,90.28 -211.94,118.77 -35.21,13.52 -72.38,-16 -67.02,-53.33 37.81,-263.53 -74.63,-431.42 -134.59,-500.04 30.45,67.45 70.73,212.92 21.65,459.52 -18.04,90.66 -100.8,154.7 -192.92,147.09 -13.99,-1.16 -28.03,-2.67 -42.1,-4.53 -82.83,-10.96 -161.23,-33.54 -233.86,-65.88 -34.45,-15.34 -39.86,-62.49 -9.67,-85.1 213.08,-159.6 252.29,-357.83 258.4,-448.75 -26.17,69.28 -100.64,200.75 -310.04,340.53 -76.72,51.21 -180.36,37.68 -240,-32.7 -9.07,-10.71 -17.93,-21.7 -26.57,-32.97 -50.81,-66.32 -90.28,-137.72 -118.77,-211.94 -13.52,-35.21 16,-72.38 53.33,-67.03 263.53,37.82 431.42,-74.62 500.04,-134.58 -67.45,30.45 -212.92,70.73 -459.51,21.65 -90.67,-18.04 -154.71,-100.8 -147.1,-192.92 1.16,-14 2.67,-28.03 4.53,-42.1 10.96,-82.83 33.54,-161.23 65.88,-233.86 15.34,-34.45 62.49,-39.86 85.1,-9.67 159.6,213.08 357.83,252.28 448.75,258.4 -69.28,-26.17 -200.75,-100.64 -340.53,-310.05 -51.22,-76.72 -37.68,-180.35 32.7,-239.99 10.71,-9.07 21.7,-17.93 32.97,-26.57 66.32,-50.81 137.73,-90.29 211.94,-118.77 35.21,-13.52 72.38,16 67.02,53.33 -37.81,263.53 74.63,431.42 134.6,500.04 -30.46,-67.45 -70.74,-212.92 -21.66,-459.51 18.04,-90.67 100.8,-154.71 192.93,-147.1 13.99,1.16 28.02,2.67 42.09,4.53 82.83,10.96 161.23,33.54 233.86,65.87 34.45,15.35 39.86,62.5 9.67,85.11 -213.08,159.6 -252.28,357.83 -258.4,448.75 26.17,-69.28 100.64,-200.75 310.04,-340.53 76.73,-51.21 180.36,-37.68 240,32.7 9.07,10.71 17.93,21.7 26.57,32.97 50.81,66.32 90.29,137.72 118.77,211.94 13.52,35.21 -16,72.38 -53.33,67.02 -263.53,-37.81 -431.42,74.63 -500.04,134.59 67.45,-30.45 212.92,-70.73 459.51,-21.65" /><path
         id="path52"
         style="fill:url(#cornerFill);stroke:url(#provinceFill);stroke-width:30;stroke-opacity:0.9;stroke-linejoin:round;stroke-linecap:round"
         d="m 4535.81,5969.06 h -0.01 c -13.42,33.65 -35.83,64.22 -66.68,87.86 -14.08,10.79 -29.09,19.49 -44.65,26.14 h -0.01 c -33.28,14.3 -70.74,20.08 -109.27,14.97 -17.59,-2.32 -34.35,-6.78 -50.06,-13.08 v -0.01 c -33.65,-13.42 -64.22,-35.83 -87.86,-66.68 -10.79,-14.08 -19.49,-29.09 -26.14,-44.65 v -0.01 c -14.3,-33.28 -20.07,-70.75 -14.97,-109.27 2.32,-17.59 6.78,-34.35 13.09,-50.06 v 0 c 13.43,-33.65 35.83,-64.22 66.68,-87.86 14.08,-10.79 29.09,-19.49 44.66,-26.14 v 0 c 33.28,-14.3 70.75,-20.08 109.27,-14.98 17.59,2.33 34.35,6.79 50.06,13.09 v 0.01 c 33.65,13.42 64.22,35.83 87.86,66.68 10.79,14.08 19.49,29.09 26.14,44.65 v 0.01 c 14.3,33.28 20.08,70.74 14.98,109.27 -2.33,17.59 -6.79,34.35 -13.09,50.06" /><path
         id="path54"
         style="fill:url(#cornerFill);stroke:url(#provinceFill);stroke-width:30;stroke-opacity:0.9;stroke-linejoin:round;stroke-linecap:round"
         d="m 6785.54,5891.68 c 0,-48.31 -13.22,-93.53 -36.28,-132.22 h 0.01 c -10.75,-18.1 -23.91,-35.17 -39.51,-50.77 -34.16,-34.16 -75.49,-56.78 -119.15,-67.84 v 0 c -20.39,-5.21 -41.77,-7.97 -63.83,-7.97 -48.31,0 -93.53,13.23 -132.22,36.29 l -0.01,-0.01 c -18.1,10.74 -35.17,23.91 -50.76,39.51 -34.16,34.15 -56.79,75.49 -67.84,119.15 l -0.01,-0.01 c -5.2,20.4 -7.96,41.78 -7.96,63.84 0,48.31 13.22,93.53 36.28,132.22 v 0 c 10.74,18.1 23.9,35.17 39.5,50.77 34.16,34.16 75.49,56.78 119.15,67.84 v 0 c 20.4,5.21 41.78,7.97 63.83,7.97 48.31,0 93.54,-13.23 132.22,-36.29 l 0.01,0.01 c 18.1,-10.74 35.17,-23.91 50.77,-39.51 34.16,-34.16 56.78,-75.49 67.83,-119.15 l 0.01,0.01 c 5.2,-20.4 7.96,-41.78 7.96,-63.84 z m 370.84,326.64 c 60.85,69.34 61.02,173.85 -0.92,242.21 -9.43,10.4 -19.16,20.62 -29.2,30.66 -59.07,59.08 -124.68,107.59 -194.52,145.57 -33.13,18.02 -73.85,-6.37 -73.44,-44.08 2.9,-266.21 -130.6,-417.89 -199.05,-478.05 39.04,62.87 98.06,201.8 81.78,452.7 -5.99,92.25 -79.63,166.59 -171.96,171.14 -14.02,0.69 -28.13,1.04 -42.33,1.04 -83.54,0 -164.23,-12.09 -240.47,-34.62 -36.17,-10.69 -47.73,-56.72 -20.77,-83.1 190.3,-186.19 203.15,-387.84 197.28,-478.78 -16.85,72.11 -73.42,212.22 -262.67,378.27 -69.34,60.84 -173.85,61.03 -242.21,-0.92 -10.4,-9.42 -20.63,-19.16 -30.67,-29.19 -59.07,-59.08 -107.58,-124.69 -145.56,-194.52 -18.02,-33.14 6.36,-73.86 44.08,-73.45 266.21,2.91 417.89,-130.6 478.04,-199.05 -62.87,39.05 -201.79,98.07 -452.69,81.78 -92.25,-5.99 -166.6,-79.62 -171.14,-171.95 -0.69,-14.03 -1.04,-28.14 -1.04,-42.33 0,-83.55 12.09,-164.24 34.62,-240.48 10.68,-36.17 56.72,-47.72 83.1,-20.76 186.18,190.29 387.84,203.14 478.77,197.28 -72.11,-16.86 -212.22,-73.43 -378.27,-262.68 -60.84,-69.34 -61.02,-173.85 0.92,-242.21 9.43,-10.4 19.16,-20.63 29.2,-30.66 59.07,-59.08 124.68,-107.59 194.52,-145.57 33.13,-18.02 73.85,6.37 73.44,44.08 -2.9,266.21 130.6,417.89 199.05,478.05 -39.04,-62.87 -98.06,-201.8 -81.77,-452.7 5.98,-92.25 79.62,-166.59 171.95,-171.14 14.02,-0.69 28.13,-1.04 42.33,-1.04 83.54,0 164.24,12.09 240.47,34.62 36.18,10.68 47.73,56.72 20.77,83.1 -190.3,186.19 -203.15,387.84 -197.28,478.78 16.86,-72.12 73.43,-212.23 262.67,-378.27 69.34,-60.85 173.85,-61.03 242.21,0.92 10.41,9.42 20.63,19.15 30.67,29.19 59.07,59.08 107.58,124.68 145.56,194.52 18.02,33.13 -6.36,73.86 -44.08,73.45 -266.21,-2.91 -417.89,130.6 -478.04,199.04 62.87,-39.04 201.79,-98.06 452.69,-81.77 92.25,5.99 166.6,79.62 171.14,171.95 0.69,14.02 1.04,28.14 1.04,42.33 0,83.55 -12.09,164.24 -34.61,240.48 -10.69,36.17 -56.73,47.72 -83.1,20.76 -186.19,-190.29 -387.85,-203.14 -478.78,-197.28 72.11,16.86 212.22,73.43 378.27,262.68" /><path
         id="path56"
         style="fill:url(#cornerFill);stroke:url(#provinceFill);stroke-width:30;stroke-opacity:0.9;stroke-linejoin:round;stroke-linecap:round"
         d="m 6526.11,4988.07 c -491.19,0.35 -902.59,411.76 -902.94,902.94 -0.35,499.56 404.69,904.6 904.24,904.25 491.19,-0.35 902.59,-411.76 902.94,-902.94 0.36,-499.56 -404.68,-904.6 -904.24,-904.25 z m -2065.64,7.73 c -486.99,-64.12 -948.83,289.74 -1013.63,776.63 -65.92,495.19 282.46,949.88 777.74,1015.1 486.99,64.12 948.83,-289.74 1013.64,-776.63 65.91,-495.19 -282.47,-949.88 -777.75,-1015.1 z m 3375.99,1749.17 -311.48,311.48 c -27.88,27.88 -65.68,43.54 -105.11,43.54 H 2692.43 V 4683.34 h 4727.44 c 39.43,0 77.23,15.66 105.11,43.54 l 311.48,311.48 c 27.88,27.88 43.54,65.68 43.54,105.11 v 1496.39 c 0,39.42 -15.66,77.23 -43.54,105.11" /></g></g></svg>