<svg xmlns="http://www.w3.org/2000/svg" viewBox="0 0 360 220" fill="none">
  <defs>
    <linearGradient id="brand" x1="0%" y1="0%" x2="100%" y2="100%">
      <stop offset="0%" stop-color="#22e0ff"/><stop offset="48%" stop-color="#7c3aed"/><stop offset="100%" stop-color="#f43f5e"/>
    </linearGradient>
    <linearGradient id="emerald" x1="0" y1="0" x2="1" y2="0">
      <stop offset="0%" stop-color="#34d399"/><stop offset="100%" stop-color="#10b981"/></linearGradient>
    <linearGradient id="gold" x1="0" y1="0" x2="0" y2="1">
      <stop offset="0%" stop-color="#fde68a"/><stop offset="100%" stop-color="#d4a233"/></linearGradient>
    <radialGradient id="core" cx="50%" cy="40%" r="62%">
      <stop offset="0%" stop-color="#5eeaff"/><stop offset="42%" stop-color="#2a8cff"/><stop offset="100%" stop-color="#0b1b3a"/></radialGradient>
    <linearGradient id="glassHi" x1="0" y1="0" x2="0" y2="1">
      <stop offset="0%" stop-color="#ffffff" stop-opacity="0.5"/><stop offset="40%" stop-color="#ffffff" stop-opacity="0.03"/><stop offset="100%" stop-color="#ffffff" stop-opacity="0"/></linearGradient>
    <linearGradient id="panel" x1="0" y1="0" x2="0" y2="1"><stop offset="0%" stop-color="#ffffff"/><stop offset="100%" stop-color="#eef4fb"/></linearGradient><filter id="depth" x="-40%" y="-40%" width="180%" height="180%"><feDropShadow dx="0" dy="6" stdDeviation="7" flood-color="#1e3a5f" flood-opacity="0.18"/></filter><filter id="bloom" x="-120%" y="-120%" width="340%" height="340%"><feGaussianBlur stdDeviation="20"/></filter>
    <!--detail:#3b6fb0--></defs>
  <circle cx="300" cy="60" r="76" fill="#7c3aed" filter="url(#bloom)" opacity="0.14"/>
  <g filter="url(#depth)">
    <!-- PCB -->
    <rect x="30" y="56" width="300" height="120" rx="16" fill="url(#panel)" stroke="url(#brand)" stroke-width="2"/>
    <rect x="30" y="56" width="300" height="120" rx="16" fill="url(#glassHi)"/>
    <!-- bracket -->
    <rect x="18" y="44" width="14" height="132" rx="3" fill="url(#panel)" stroke="url(#brand)" stroke-width="1.5"/>
    <!-- shroud -->
    <rect x="44" y="70" width="272" height="78" rx="10" fill="#0c1526" opacity="0.0"/>
    <!-- fans -->
    <g>
      <circle cx="108" cy="110" r="38" fill="none" stroke="url(#brand)" stroke-width="2"/>
      <circle cx="108" cy="110" r="9" fill="url(#core)"/>
      <g stroke="url(#brand)" stroke-width="3" stroke-linecap="round" opacity="0.8">
        <path d="M108,110 C118,96 132,98 130,110"/><path d="M108,110 C122,120 120,134 108,132"/><path d="M108,110 C94,120 80,118 82,108"/><path d="M108,110 C98,96 96,84 108,86"/>
      </g>
      <circle cx="220" cy="110" r="38" fill="none" stroke="url(#brand)" stroke-width="2"/>
      <circle cx="220" cy="110" r="9" fill="url(#core)"/>
      <g stroke="url(#brand)" stroke-width="3" stroke-linecap="round" opacity="0.8">
        <path d="M220,110 C230,96 244,98 242,110"/><path d="M220,110 C234,120 232,134 220,132"/><path d="M220,110 C206,120 192,118 194,108"/><path d="M220,110 C210,96 208,84 220,86"/>
      </g>
    </g>
    <!-- gold pin edge -->
    <rect x="30" y="168" width="300" height="8" rx="2" fill="url(#gold)" opacity="0.85"/>
    <!-- earning glow -->
    <circle cx="300" cy="78" r="8" fill="#34d399" filter="url(#depth)"/>
  </g>
</svg>
