<svg xmlns="http://www.w3.org/2000/svg" viewBox="0 0 128 128" fill="none">
<defs>
    <linearGradient id="gd-body" x1="16" y1="40" x2="114" y2="94" gradientUnits="userSpaceOnUse"><stop stop-color="#17243d"></stop><stop offset=".55" stop-color="#0c1526"></stop><stop offset="1" stop-color="#070f1c"></stop></linearGradient>
    <linearGradient id="gd-edge" x1="8" y1="38" x2="116" y2="96" gradientUnits="userSpaceOnUse"><stop stop-color="#38dbff"></stop><stop offset=".6" stop-color="#9b6dff"></stop><stop offset="1" stop-color="#34d399"></stop></linearGradient>
    <linearGradient id="gd-gold" x1="0" y1="0" x2="0" y2="1"><stop stop-color="#fde68a"></stop><stop offset="1" stop-color="#d4a233"></stop></linearGradient>
    <radialGradient id="gd-sh" cx="50%" cy="50%" r="50%"><stop offset="0%" stop-color="#38dbff" stop-opacity="0.28"></stop><stop offset="100%" stop-color="#38dbff" stop-opacity="0"></stop></radialGradient>
    <filter id="gd-glow" x="-35%" y="-35%" width="170%" height="170%" color-interpolation-filters="sRGB"><feDropShadow dx="0" dy="0" stdDeviation="4.5" flood-color="#38dbff" flood-opacity=".55"></feDropShadow><feDropShadow dx="0" dy="9" stdDeviation="13" flood-color="#9b6dff" flood-opacity=".3"></feDropShadow></filter>
  </defs>
  <ellipse cx="64" cy="110" rx="48" ry="6" fill="url(#gd-sh)"></ellipse>
  <rect x="7" y="38" width="9" height="58" rx="2.5" fill="url(#gd-body)" stroke="url(#gd-edge)" stroke-width="2"></rect>
  <g stroke="url(#gd-edge)" stroke-width="2" stroke-linecap="round" opacity=".8"><path d="M10 50h5M10 62h5M10 74h5"></path></g>
  <rect x="16" y="40" width="98" height="54" rx="10" fill="url(#gd-body)" stroke="url(#gd-edge)" stroke-width="2.4" filter="url(#gd-glow)"></rect>
  <rect x="20.5" y="44.5" width="89" height="45" rx="6" fill="#ecfeff" fill-opacity="0.05"></rect>
  <g stroke="#38dbff" stroke-opacity="0.32" stroke-width="2" stroke-linecap="round"><path d="M104 50v34M110 54v26"></path></g>
  
    <circle cx="46" cy="67" r="16" stroke="url(#gd-edge)" stroke-width="2.2" fill="none"></circle>
    <g transform="translate(46,67) scale(0.6)" stroke="url(#gd-edge)" stroke-width="3" stroke-linecap="round" opacity="0.9" fill="none">
      <path d="M0 0C10 -14 24 -12 22 0"></path><path d="M0 0C14 10 12 24 0 22"></path><path d="M0 0C-14 10 -28 8 -26 -2"></path><path d="M0 0C-10 -14 -12 -26 0 -24"></path>
    </g>
    <circle cx="46" cy="67" r="4.5" fill="#38dbff"></circle>
    <circle cx="46" cy="67" r="4.5" stroke="#ecfeff" stroke-opacity="0.45" stroke-width="1"></circle>
  
    <circle cx="86" cy="67" r="16" stroke="url(#gd-edge)" stroke-width="2.2" fill="none"></circle>
    <g transform="translate(86,67) scale(0.6)" stroke="url(#gd-edge)" stroke-width="3" stroke-linecap="round" opacity="0.9" fill="none">
      <path d="M0 0C10 -14 24 -12 22 0"></path><path d="M0 0C14 10 12 24 0 22"></path><path d="M0 0C-14 10 -28 8 -26 -2"></path><path d="M0 0C-10 -14 -12 -26 0 -24"></path>
    </g>
    <circle cx="86" cy="67" r="4.5" fill="#38dbff"></circle>
    <circle cx="86" cy="67" r="4.5" stroke="#ecfeff" stroke-opacity="0.45" stroke-width="1"></circle>
  <rect x="28" y="94" width="48" height="7" rx="1.5" fill="url(#gd-gold)"></rect>
  <g stroke="#0c1526" stroke-width="2"><path d="M36 94v6M46 94v6M56 94v6M66 94v6"></path></g>
</svg>