<svg xmlns="http://www.w3.org/2000/svg" viewBox="0 -140 640 720" fill="none">
<defs>
    <linearGradient id="md-body" x1="382" y1="156" x2="442" y2="216" gradientUnits="userSpaceOnUse"><stop stop-color="#17243d"></stop><stop offset=".55" stop-color="#0c1526"></stop><stop offset="1" stop-color="#070f1c"></stop></linearGradient>
    <linearGradient id="md-edge" x1="40" y1="60" x2="600" y2="380" gradientUnits="userSpaceOnUse"><stop stop-color="#38dbff"></stop><stop offset=".6" stop-color="#9b6dff"></stop><stop offset="1" stop-color="#34d399"></stop></linearGradient>
    <linearGradient id="md-bolt" x1="403" y1="168" x2="421" y2="204" gradientUnits="userSpaceOnUse"><stop stop-color="#38dbff"></stop><stop offset="1" stop-color="#9b6dff"></stop></linearGradient>
    <linearGradient id="md-line" x1="40" y1="60" x2="600" y2="380" gradientUnits="userSpaceOnUse"><stop stop-color="#38dbff"></stop><stop offset=".5" stop-color="#9b6dff"></stop><stop offset="1" stop-color="#34d399"></stop></linearGradient>
    <radialGradient id="md-core" cx="50%" cy="42%" r="60%"><stop offset="0%" stop-color="#38dbff"></stop><stop offset="55%" stop-color="#9b6dff" stop-opacity=".45"></stop><stop offset="100%" stop-color="#0c1526" stop-opacity="0"></stop></radialGradient>
    <linearGradient id="md-horizon" x1="0" y1="0" x2="640" y2="0" gradientUnits="userSpaceOnUse"><stop stop-color="#38dbff" stop-opacity="0"></stop><stop offset=".5" stop-color="#38dbff" stop-opacity="0.4"></stop><stop offset="1" stop-color="#9b6dff" stop-opacity="0"></stop></linearGradient>
    <filter id="md-glow" x="-35%" y="-35%" width="170%" height="170%" color-interpolation-filters="sRGB"><feDropShadow dx="0" dy="0" stdDeviation="4.5" flood-color="#38dbff" flood-opacity=".55"></feDropShadow><feDropShadow dx="0" dy="9" stdDeviation="13" flood-color="#9b6dff" flood-opacity=".3"></feDropShadow></filter>
    <filter id="md-nglow" x="-140%" y="-140%" width="380%" height="380%" color-interpolation-filters="sRGB"><feDropShadow dx="0" dy="0" stdDeviation="3" flood-color="#38dbff" flood-opacity="0.7"></feDropShadow></filter>
    <filter id="md-bloom" x="-100%" y="-100%" width="300%" height="300%"><feGaussianBlur stdDeviation="36"></feGaussianBlur></filter>
    <linearGradient id="md-fade-top" x1="0" y1="-140" x2="0" y2="20" gradientUnits="userSpaceOnUse">
        <stop offset="0%" stop-color="#05070e" stop-opacity="1"/>
        <stop offset="100%" stop-color="#05070e" stop-opacity="0"/>
    </linearGradient>
    <linearGradient id="md-fade-bottom" x1="0" y1="580" x2="0" y2="420" gradientUnits="userSpaceOnUse">
        <stop offset="0%" stop-color="#05070e" stop-opacity="1"/>
        <stop offset="100%" stop-color="#05070e" stop-opacity="0"/>
    </linearGradient>
  </defs>
  <circle cx="140" cy="140" r="150" fill="#38dbff" opacity=".06" filter="url(#md-bloom)"></circle><circle cx="470" cy="300" r="160" fill="#9b6dff" opacity=".06" filter="url(#md-bloom)"></circle>
  <path d="M106 300h8M110 296v8" stroke="#38dbff" stroke-opacity="0.4" stroke-width="1.4" stroke-linecap="round"></path><path d="M356 60h8M360 56v8" stroke="#38dbff" stroke-opacity="0.4" stroke-width="1.4" stroke-linecap="round"></path><path d="M466 250h8M470 246v8" stroke="#38dbff" stroke-opacity="0.4" stroke-width="1.4" stroke-linecap="round"></path><path d="M186 400h8M190 396v8" stroke="#38dbff" stroke-opacity="0.4" stroke-width="1.4" stroke-linecap="round"></path>
  <g stroke="url(#md-line)" stroke-opacity="0.4" stroke-width="1.5"><line x1="66" y1="150" x2="138" y2="80"></line><line x1="66" y1="150" x2="150" y2="246"></line><line x1="138" y1="80" x2="232" y2="150"></line><line x1="138" y1="80" x2="322" y2="120"></line><line x1="232" y1="150" x2="150" y2="246"></line><line x1="232" y1="150" x2="308" y2="210"></line><line x1="150" y1="246" x2="88" y2="336"></line><line x1="88" y1="336" x2="224" y2="362"></line><line x1="224" y1="362" x2="306" y2="294"></line><line x1="150" y1="246" x2="306" y2="294"></line><line x1="306" y1="294" x2="308" y2="210"></line><line x1="306" y1="294" x2="440" y2="352"></line><line x1="322" y1="120" x2="308" y2="210"></line><line x1="412" y1="186" x2="322" y2="120"></line><line x1="412" y1="186" x2="308" y2="210"></line><line x1="412" y1="186" x2="506" y2="104"></line><line x1="412" y1="186" x2="306" y2="294"></line><line x1="412" y1="186" x2="566" y2="196"></line><line x1="412" y1="186" x2="440" y2="352"></line><line x1="412" y1="186" x2="232" y2="150"></line><line x1="506" y1="104" x2="566" y2="196"></line><line x1="506" y1="104" x2="600" y2="118"></line><line x1="566" y1="196" x2="540" y2="312"></line><line x1="540" y1="312" x2="440" y2="352"></line><line x1="566" y1="196" x2="600" y2="118"></line><line x1="540" y1="312" x2="412" y2="186"></line></g>
  <circle cx="464" cy="141" r="3" fill="#38dbff"></circle><circle cx="354" cy="245" r="3" fill="#38dbff"></circle><circle cx="187" cy="203" r="3" fill="#38dbff"></circle><circle cx="269" cy="325" r="3" fill="#38dbff"></circle><circle cx="106" cy="112" r="3" fill="#38dbff"></circle><circle cx="427" cy="277" r="3" fill="#38dbff"></circle><circle cx="539" cy="155" r="3" fill="#38dbff"></circle>
  <circle cx="412" cy="186" r="42" stroke="url(#md-edge)" stroke-opacity=".28" stroke-width="1.5" fill="none"></circle>
  <circle cx="412" cy="186" r="30" fill="url(#md-core)"></circle>
  <circle cx="412" cy="186" r="24" fill="url(#md-body)" stroke="url(#md-edge)" stroke-width="2.6" filter="url(#md-glow)"></circle>
  <path transform="translate(412,186) scale(0.92)" d="M3 -20 L-9 3 L0 3 L-4 20 L9 -3 L0 -3 Z" fill="url(#md-bolt)"></path>
  <circle cx="66" cy="150" r="7" fill="url(#md-body)" stroke="url(#md-edge)" stroke-width="2" filter="url(#md-nglow)"></circle><circle cx="66" cy="150" r="4" fill="#38dbff"></circle><circle cx="138" cy="80" r="6" fill="url(#md-body)" stroke="url(#md-edge)" stroke-width="2" filter="url(#md-nglow)"></circle><circle cx="138" cy="80" r="3" fill="#9b6dff"></circle><circle cx="232" cy="150" r="15" stroke="url(#md-edge)" stroke-opacity=".38" stroke-width="1.5" fill="none"></circle><circle cx="232" cy="150" r="8" fill="url(#md-body)" stroke="url(#md-edge)" stroke-width="2" filter="url(#md-nglow)"></circle><circle cx="232" cy="150" r="5" fill="#34d399"></circle><circle cx="150" cy="246" r="6" fill="url(#md-body)" stroke="url(#md-edge)" stroke-width="2" filter="url(#md-nglow)"></circle><circle cx="150" cy="246" r="3" fill="#38dbff"></circle><circle cx="88" cy="336" r="7" fill="url(#md-body)" stroke="url(#md-edge)" stroke-width="2" filter="url(#md-nglow)"></circle><circle cx="88" cy="336" r="4" fill="#9b6dff"></circle><circle cx="224" cy="362" r="6" fill="url(#md-body)" stroke="url(#md-edge)" stroke-width="2" filter="url(#md-nglow)"></circle><circle cx="224" cy="362" r="3" fill="#34d399"></circle><circle cx="306" cy="294" r="15" stroke="url(#md-edge)" stroke-opacity=".38" stroke-width="1.5" fill="none"></circle><circle cx="306" cy="294" r="8" fill="url(#md-body)" stroke="url(#md-edge)" stroke-width="2" filter="url(#md-nglow)"></circle><circle cx="306" cy="294" r="5" fill="#38dbff"></circle><circle cx="322" cy="120" r="6" fill="url(#md-body)" stroke="url(#md-edge)" stroke-width="2" filter="url(#md-nglow)"></circle><circle cx="322" cy="120" r="3" fill="#9b6dff"></circle><circle cx="308" cy="210" r="5" fill="url(#md-body)" stroke="url(#md-edge)" stroke-width="2" filter="url(#md-nglow)"></circle><circle cx="308" cy="210" r="2" fill="#34d399"></circle><circle cx="506" cy="104" r="7" fill="url(#md-body)" stroke="url(#md-edge)" stroke-width="2" filter="url(#md-nglow)"></circle><circle cx="506" cy="104" r="4" fill="#34d399"></circle><circle cx="566" cy="196" r="6" fill="url(#md-body)" stroke="url(#md-edge)" stroke-width="2" filter="url(#md-nglow)"></circle><circle cx="566" cy="196" r="3" fill="#38dbff"></circle><circle cx="540" cy="312" r="15" stroke="url(#md-edge)" stroke-opacity=".38" stroke-width="1.5" fill="none"></circle><circle cx="540" cy="312" r="8" fill="url(#md-body)" stroke="url(#md-edge)" stroke-width="2" filter="url(#md-nglow)"></circle><circle cx="540" cy="312" r="5" fill="#9b6dff"></circle><circle cx="440" cy="352" r="6" fill="url(#md-body)" stroke="url(#md-edge)" stroke-width="2" filter="url(#md-nglow)"></circle><circle cx="440" cy="352" r="3" fill="#38dbff"></circle><circle cx="600" cy="118" r="5" fill="url(#md-body)" stroke="url(#md-edge)" stroke-width="2" filter="url(#md-nglow)"></circle><circle cx="600" cy="118" r="2" fill="#9b6dff"></circle>
  <path d="M40 406H600" stroke="url(#md-horizon)" stroke-width="2" stroke-linecap="round"></path>
  <rect x="0" y="-140" width="640" height="160" fill="url(#md-fade-top)"/>
  <rect x="0" y="400" width="640" height="180" fill="url(#md-fade-bottom)"/>
</svg>