<svg xmlns="http://www.w3.org/2000/svg" width="4200" height="700" viewBox="0 0 4200 700" fill="none">
  <defs>
    <linearGradient id="bg" x1="472" y1="32" x2="3742" y2="676" gradientUnits="userSpaceOnUse">
      <stop offset="0%" stop-color="#FFFFFF"/>
      <stop offset="56%" stop-color="#F8FBFF"/>
      <stop offset="100%" stop-color="#EEF5FF"/>
    </linearGradient>

    <radialGradient id="topBlueGlow" cx="0" cy="0" r="1" gradientUnits="userSpaceOnUse" gradientTransform="translate(1460 82) rotate(90) scale(404 1560)">
      <stop offset="0%" stop-color="#0A66C2" stop-opacity="0.14"/>
      <stop offset="100%" stop-color="#0A66C2" stop-opacity="0"/>
    </radialGradient>

    <radialGradient id="topSkyGlow" cx="0" cy="0" r="1" gradientUnits="userSpaceOnUse" gradientTransform="translate(2720 74) rotate(90) scale(356 1480)">
      <stop offset="0%" stop-color="#38BDF8" stop-opacity="0.10"/>
      <stop offset="100%" stop-color="#38BDF8" stop-opacity="0"/>
    </radialGradient>

    <radialGradient id="topIndigoGlow" cx="0" cy="0" r="1" gradientUnits="userSpaceOnUse" gradientTransform="translate(3354 98) rotate(90) scale(318 1260)">
      <stop offset="0%" stop-color="#4F46E5" stop-opacity="0.08"/>
      <stop offset="100%" stop-color="#4F46E5" stop-opacity="0"/>
    </radialGradient>

    <pattern id="majorGrid" width="84" height="84" patternUnits="userSpaceOnUse">
      <path d="M84 0H0V84" stroke="#CBD5E1" stroke-opacity="0.34" stroke-width="1.4"/>
    </pattern>

    <pattern id="minorGrid" width="28" height="28" patternUnits="userSpaceOnUse">
      <path d="M28 0H0V28" stroke="#E2E8F0" stroke-opacity="0.42" stroke-width="1.1"/>
    </pattern>

    <linearGradient id="gridVerticalFade" x1="0" y1="18" x2="0" y2="656" gradientUnits="userSpaceOnUse">
      <stop offset="0%" stop-color="#FFFFFF"/>
      <stop offset="56%" stop-color="#FFFFFF" stop-opacity="0.84"/>
      <stop offset="82%" stop-color="#FFFFFF" stop-opacity="0.38"/>
      <stop offset="100%" stop-color="#FFFFFF" stop-opacity="0"/>
    </linearGradient>

    <mask id="gridFadeMask">
      <rect x="0" y="0" width="4200" height="700" fill="url(#gridVerticalFade)"/>
    </mask>

    <linearGradient id="gridBrandH" x1="220" y1="0" x2="3980" y2="0" gradientUnits="userSpaceOnUse">
      <stop offset="0%" stop-color="#0A66C2" stop-opacity="0"/>
      <stop offset="16%" stop-color="#0A66C2" stop-opacity="0.62"/>
      <stop offset="50%" stop-color="#38BDF8" stop-opacity="0.56"/>
      <stop offset="84%" stop-color="#4F46E5" stop-opacity="0.44"/>
      <stop offset="100%" stop-color="#4F46E5" stop-opacity="0"/>
    </linearGradient>

    <linearGradient id="gridBrandV" x1="0" y1="30" x2="0" y2="632" gradientUnits="userSpaceOnUse">
      <stop offset="0%" stop-color="#0A66C2" stop-opacity="0.72"/>
      <stop offset="42%" stop-color="#38BDF8" stop-opacity="0.56"/>
      <stop offset="74%" stop-color="#4F46E5" stop-opacity="0.36"/>
      <stop offset="100%" stop-color="#4F46E5" stop-opacity="0"/>
    </linearGradient>

    <radialGradient id="ambientHalo" cx="0" cy="0" r="1" gradientUnits="userSpaceOnUse" gradientTransform="translate(2140 338) rotate(90) scale(224 680)">
      <stop offset="0%" stop-color="#FFFFFF" stop-opacity="0.88"/>
      <stop offset="54%" stop-color="#F8FAFC" stop-opacity="0.34"/>
      <stop offset="100%" stop-color="#FFFFFF" stop-opacity="0"/>
    </radialGradient>
  </defs>

  <rect width="4200" height="700" rx="42" fill="url(#bg)"/>
  <rect width="4200" height="700" rx="42" fill="url(#topBlueGlow)"/>
  <rect width="4200" height="700" rx="42" fill="url(#topSkyGlow)"/>
  <rect width="4200" height="700" rx="42" fill="url(#topIndigoGlow)"/>
  <rect width="4200" height="700" rx="42" fill="url(#ambientHalo)"/>

  <g mask="url(#gridFadeMask)">
    <rect width="4200" height="700" rx="42" fill="url(#majorGrid)" opacity="0.92"/>
    <rect width="4200" height="700" rx="42" fill="url(#minorGrid)" opacity="0.78"/>

    <g opacity="0.92">
      <path d="M220 98H3980" stroke="url(#gridBrandH)" stroke-width="2"/>
      <path d="M220 182H3980" stroke="url(#gridBrandH)" stroke-width="2"/>
      <path d="M220 266H3980" stroke="url(#gridBrandH)" stroke-width="2"/>
      <path d="M220 350H3980" stroke="url(#gridBrandH)" stroke-width="2.5"/>
      <path d="M220 434H3980" stroke="url(#gridBrandH)" stroke-width="2"/>
      <path d="M220 518H3980" stroke="url(#gridBrandH)" stroke-width="2"/>
      <path d="M220 602H3980" stroke="url(#gridBrandH)" stroke-width="2"/>
    </g>

    <g opacity="0.88">
      <path d="M420 30V632" stroke="url(#gridBrandV)" stroke-width="2"/>
      <path d="M756 30V632" stroke="url(#gridBrandV)" stroke-width="2"/>
      <path d="M1092 30V632" stroke="url(#gridBrandV)" stroke-width="2"/>
      <path d="M1428 30V632" stroke="url(#gridBrandV)" stroke-width="2"/>
      <path d="M1764 30V632" stroke="url(#gridBrandV)" stroke-width="2"/>
      <path d="M2100 30V632" stroke="url(#gridBrandV)" stroke-width="2.6"/>
      <path d="M2436 30V632" stroke="url(#gridBrandV)" stroke-width="2"/>
      <path d="M2772 30V632" stroke="url(#gridBrandV)" stroke-width="2"/>
      <path d="M3108 30V632" stroke="url(#gridBrandV)" stroke-width="2"/>
      <path d="M3444 30V632" stroke="url(#gridBrandV)" stroke-width="2"/>
      <path d="M3780 30V632" stroke="url(#gridBrandV)" stroke-width="2"/>
    </g>

    <g opacity="0.48">
      <circle cx="756" cy="266" r="10" fill="#38BDF8"/>
      <circle cx="1092" cy="350" r="10" fill="#0A66C2"/>
      <circle cx="1428" cy="182" r="10" fill="#38BDF8"/>
      <circle cx="1764" cy="434" r="10" fill="#4F46E5"/>
      <circle cx="2100" cy="266" r="10" fill="#0A66C2"/>
      <circle cx="2436" cy="350" r="10" fill="#38BDF8"/>
      <circle cx="2772" cy="518" r="10" fill="#4F46E5"/>
      <circle cx="3108" cy="266" r="10" fill="#0A66C2"/>
      <circle cx="3444" cy="434" r="10" fill="#4F46E5"/>
      <circle cx="3780" cy="182" r="10" fill="#0A66C2"/>
      <circle cx="420" cy="518" r="10" fill="#38BDF8"/>
    </g>
  </g>

  <rect x="18" y="18" width="4164" height="664" rx="30" stroke="#E2E8F0" stroke-width="1.8"/>
</svg>
