<svg xmlns="http://www.w3.org/2000/svg" viewBox="0 0 1000 750" width="1000" height="750" role="img" aria-label="Canada compute network map">
  <defs>
    <linearGradient id="provinceFill" x1="0%" y1="0%" x2="100%" y2="100%">
      <stop offset="0%" stop-color="#00d4ff" stop-opacity="0.06"/>
      <stop offset="55%" stop-color="#7c3aed" stop-opacity="0.04"/>
      <stop offset="100%" stop-color="#dc2626" stop-opacity="0.03"/>
    </linearGradient>
    <linearGradient id="arcGrad" x1="0%" y1="0%" x2="100%" y2="0%">
      <stop offset="0%" stop-color="#00d4ff"/>
      <stop offset="100%" stop-color="#7c3aed"/>
    </linearGradient>
    <filter id="dotGlow" x="-200%" y="-200%" width="500%" height="500%">
      <feGaussianBlur stdDeviation="4" result="b"/>
      <feMerge><feMergeNode in="b"/><feMergeNode in="SourceGraphic"/></feMerge>
    </filter>
    <filter id="arcGlow" x="-100%" y="-100%" width="300%" height="300%">
      <feGaussianBlur stdDeviation="3" result="b"/>
      <feMerge><feMergeNode in="b"/><feMergeNode in="SourceGraphic"/></feMerge>
    </filter>
    <!-- Arctic fade: transparent at bottom, solid bg at top -->
    <linearGradient id="arcticFade" x1="0" y1="0" x2="0" y2="1">
      <stop offset="0%" stop-color="#060a13" stop-opacity="1"/>
      <stop offset="25%" stop-color="#060a13" stop-opacity="1"/>
      <stop offset="50%" stop-color="#060a13" stop-opacity="0.7"/>
      <stop offset="70%" stop-color="#060a13" stop-opacity="0.15"/>
      <stop offset="85%" stop-color="#060a13" stop-opacity="0"/>
      <stop offset="100%" stop-color="#060a13" stop-opacity="0"/>
    </linearGradient>
    <!-- Left edge fade -->
    <linearGradient id="leftFade" x1="0" y1="0" x2="1" y2="0">
      <stop offset="0%" stop-color="#060a13" stop-opacity="1"/>
      <stop offset="40%" stop-color="#060a13" stop-opacity="0.85"/>
      <stop offset="70%" stop-color="#060a13" stop-opacity="0.15"/>
      <stop offset="100%" stop-color="#060a13" stop-opacity="0"/>
    </linearGradient>
    <!-- Right edge fade -->
    <linearGradient id="rightFade" x1="1" y1="0" x2="0" y2="0">
      <stop offset="0%" stop-color="#060a13" stop-opacity="1"/>
      <stop offset="30%" stop-color="#060a13" stop-opacity="0.7"/>
      <stop offset="60%" stop-color="#060a13" stop-opacity="0.1"/>
      <stop offset="100%" stop-color="#060a13" stop-opacity="0"/>
    </linearGradient>
    <style>
      .bg{fill:#060a13}
      .land{fill:url(#provinceFill);stroke:currentColor;stroke-width:1.0;stroke-opacity:.38;stroke-linejoin:round;stroke-linecap:round}
      .ghost{fill:none;stroke:#00d4ff;stroke-width:.5;stroke-opacity:.12;stroke-linejoin:round;stroke-linecap:round}
      .ghost-lon{fill:none;stroke:#7c3aed;stroke-width:.4;stroke-opacity:.08;stroke-linejoin:round;stroke-linecap:round}
      .water{fill:#060a13}
      .arc{fill:none;stroke:url(#arcGrad);stroke-width:1.6;opacity:.55;stroke-linecap:round;filter:url(#arcGlow)}
      .core{filter:url(#dotGlow)}
      .alaska{fill:none;stroke:currentColor;stroke-width:1.0;stroke-opacity:.38;stroke-linejoin:round;stroke-linecap:round}
      .frame{fill:none;stroke:#00d4ff;stroke-width:.4;stroke-opacity:.08;rx:4}
    </style>
  </defs>

  <rect class="bg" width="1000" height="750"/>


  <g class="ghost-lon">
    <path d="M16.4,750.0L24.5,727.9L32.9,705.1L41.7,681.6L50.7,657.3L60.0,632.1L69.6,605.9L79.4,578.5L89.5,549.9L99.8,520.0L110.3,488.4L121.1,455.1L132.0,419.7L143.1,381.9L154.5,341.4L165.9,297.7L177.6,250.1L189.3,197.8L201.2,139.8L213.2,74.6L225.3,0.0"/>
    <path d="M131.5,750.0L137.7,727.9L144.1,705.1L150.8,681.6L157.7,657.3L164.8,632.1L172.1,605.9L179.5,578.5L187.2,549.9L195.1,520.0L203.1,488.4L211.3,455.1L219.6,419.7L228.1,381.9L236.7,341.4L245.5,297.7L254.3,250.1L263.3,197.8L272.3,139.8L281.5,74.6L290.7,0.0"/>
    <path d="M246.7,750.0L250.9,727.9L255.3,705.1L259.9,681.6L264.7,657.3L269.5,632.1L274.5,605.9L279.7,578.5L285.0,549.9L290.4,520.0L295.9,488.4L301.5,455.1L307.2,419.7L313.1,381.9L319.0,341.4L325.0,297.7L331.1,250.1L337.3,197.8L343.5,139.8L349.8,74.6L356.1,0.0"/>
    <path d="M361.8,750.0L364.1,727.9L366.6,705.1L369.1,681.6L371.6,657.3L374.3,632.1L377.0,605.9L379.8,578.5L382.7,549.9L385.7,520.0L388.7,488.4L391.7,455.1L394.9,419.7L398.0,381.9L401.3,341.4L404.6,297.7L407.9,250.1L411.2,197.8L414.6,139.8L418.1,74.6L421.5,0.0"/>
    <path d="M477.0,750.0L477.4,727.9L477.8,705.1L478.2,681.6L478.6,657.3L479.0,632.1L479.5,605.9L480.0,578.5L480.5,549.9L480.9,520.0L481.4,488.4L482.0,455.1L482.5,419.7L483.0,381.9L483.5,341.4L484.1,297.7L484.6,250.1L485.2,197.8L485.8,139.8L486.3,74.6L486.9,0.0"/>
    <path d="M592.1,750.0L590.6,727.9L589.0,705.1L587.3,681.6L585.6,657.3L583.8,632.1L582.0,605.9L580.1,578.5L578.2,549.9L576.2,520.0L574.2,488.4L572.2,455.1L570.1,419.7L568.0,381.9L565.8,341.4L563.6,297.7L561.4,250.1L559.2,197.8L556.9,139.8L554.6,74.6L552.3,0.0"/>
    <path d="M707.3,750.0L703.8,727.9L700.2,705.1L696.4,681.6L692.6,657.3L688.6,632.1L684.5,605.9L680.3,578.5L675.9,549.9L671.5,520.0L667.0,488.4L662.4,455.1L657.7,419.7L652.9,381.9L648.1,341.4L643.2,297.7L638.2,250.1L633.2,197.8L628.1,139.8L622.9,74.6L617.7,0.0"/>
    <path d="M822.4,750.0L817.0,727.9L811.4,705.1L805.5,681.6L799.5,657.3L793.3,632.1L786.9,605.9L780.4,578.5L773.7,549.9L766.8,520.0L759.8,488.4L752.6,455.1L745.3,419.7L737.9,381.9L730.4,341.4L722.7,297.7L715.0,250.1L707.1,197.8L699.2,139.8L691.2,74.6L683.1,0.0"/>
    <path d="M937.6,750.0L930.2,727.9L922.6,705.1L914.7,681.6L906.5,657.3L898.1,632.1L889.4,605.9L880.5,578.5L871.4,549.9L862.1,520.0L852.6,488.4L842.8,455.1L832.9,419.7L822.9,381.9L812.6,341.4L802.3,297.7L791.7,250.1L781.1,197.8L770.3,139.8L759.5,74.6L748.5,0.0"/>
  </g>

  <!-- Water Bodies -->
  <g>
    <path class="water" d="M526.2,415.8L531.3,444.1L529.3,471.1L542.1,496.9L552.1,513.5L586.5,529.6L611.2,537.5L626.9,548.4L641.7,549.9L656.4,549.9L671.9,590.2L684.2,604.4L695.6,611.5L692.2,590.2L683.6,568.1L677.0,524.8L669.4,505.2L656.6,479.8L634.1,444.1L613.5,415.8L595.3,406.0L578.2,410.0L561.1,415.8L543.3,406.0L526.2,415.8Z">
      <title>Hudson Bay</title>
    </path>
    <path class="water" d="M563.7,667.6L575.4,666.4L591.5,665.1L602.0,661.2L612.6,659.9L623.7,663.8L634.6,665.1L643.9,671.5L646.3,672.8L645.6,667.6L639.7,662.5L633.9,658.6L627.8,652.1L621.8,645.5L611.5,648.1L600.6,645.5L590.5,652.1L580.3,658.6L575.1,661.2L563.7,667.6Z">
      <title>Lake Superior</title>
    </path>
    <path class="water" d="M646.9,677.8L658.6,684.1L671.2,696.6L678.4,708.8L677.1,714.8L672.7,707.6L666.5,702.7L659.7,692.8L653.9,690.4L647.6,684.1L646.9,677.8Z">
      <title>Lake Huron</title>
    </path>
    <path class="water" d="M664.5,730.3L675.8,730.3L687.0,729.1L697.9,726.7L708.3,720.8L713.3,717.2L707.5,716.0L696.8,719.6L686.1,723.2L675.3,726.7L664.5,730.3Z">
      <title>Lake Erie</title>
    </path>
    <path class="water" d="M703.6,712.4L712.3,711.2L723.5,711.2L734.2,708.8L739.1,705.1L740.8,702.7L738.2,700.2L733.1,702.7L722.6,706.3L711.9,708.8L703.6,712.4Z">
      <title>Lake Ontario</title>
    </path>
  </g>

  <!-- Provinces -->
  <g color="#d7e6ff">
    <path class="land" data-name="Quebec" d="M919.0,605.7L904.1,607.6L901.5,611.2L902.6,615.0L901.1,613.1L893.5,622.5L877.5,624.0L878.6,622.7L866.2,620.9L827.7,621.6L822.0,627.9L821.4,634.5L813.8,635.2L811.6,638.1L810.7,636.2L801.2,650.3L785.5,646.3L800.8,650.6L797.4,658.6L788.2,668.4L795.6,665.0L809.5,647.3L829.9,637.2L847.4,635.9L857.5,642.1L852.8,640.4L858.1,645.2L848.6,651.9L841.2,649.2L826.9,654.1L823.7,652.1L815.8,653.0L817.0,657.8L810.8,661.2L808.2,659.2L802.6,669.0L800.9,675.4L802.2,679.1L798.3,684.0L799.6,685.5L791.1,687.4L791.1,690.2L755.7,690.5L759.7,687.9L757.7,686.4L757.9,683.3L737.0,684.7L730.9,679.5L728.9,680.5L722.1,675.9L709.2,673.6L697.4,659.3L690.2,612.0L692.8,614.8L690.1,611.7L688.7,603.7L691.7,602.5L696.9,609.2L695.9,605.9L697.7,604.7L693.5,600.5L698.8,593.9L694.4,589.2L693.0,586.3L694.4,584.7L691.1,582.6L691.4,579.0L688.7,575.5L690.5,574.7L687.8,572.5L690.0,570.9L687.4,568.8L688.8,567.9L685.6,566.9L687.7,565.4L684.4,565.2L682.1,559.3L679.5,558.2L697.6,548.6L706.2,536.5L706.6,531.1L704.6,519.9L700.4,510.7L692.9,502.1L681.3,494.9L680.4,489.1L682.7,489.9L687.4,481.7L685.3,481.3L685.7,476.2L690.4,478.7L687.9,476.5L689.9,474.7L688.4,472.6L693.8,468.3L686.1,469.9L687.9,468.8L684.1,463.6L686.7,461.5L682.7,459.8L685.0,456.2L679.0,457.1L682.4,449.6L680.8,445.0L683.4,443.4L678.1,439.8L675.3,429.6L680.9,423.7L698.0,429.9L695.6,431.9L700.2,429.0L707.7,432.9L705.7,430.2L714.2,425.8L724.7,432.7L724.2,437.9L726.1,438.5L725.6,435.9L731.9,440.9L729.5,442.9L732.1,440.3L735.9,442.2L733.7,445.4L736.5,445.8L734.5,446.5L737.5,450.4L750.6,451.7L751.4,455.4L753.6,456.7L756.3,452.0L758.7,456.7L755.6,461.8L759.2,469.9L746.4,470.0L760.5,473.4L760.8,482.9L766.0,484.3L763.4,485.6L765.5,486.9L764.7,491.7L760.8,487.5L762.3,491.3L758.3,492.3L761.4,492.3L763.1,495.4L768.2,490.1L775.9,492.2L778.4,496.2L778.6,503.1L770.3,509.1L778.4,504.6L780.0,495.6L782.4,500.0L780.8,504.0L783.0,497.5L785.4,506.5L786.1,500.7L793.3,497.1L793.3,491.5L799.2,495.1L799.2,499.9L800.3,495.7L796.9,492.3L799.4,491.0L797.4,490.1L798.0,488.2L803.0,487.7L798.9,485.9L800.5,484.0L799.2,481.9L801.7,483.7L799.0,480.0L804.7,482.0L797.9,475.7L803.0,475.3L800.1,473.1L801.0,466.6L804.6,465.8L801.9,466.5L804.9,469.1L802.4,470.3L805.2,472.3L805.4,479.3L810.1,479.9L809.6,485.0L812.7,488.1L807.6,489.6L821.4,492.7L816.4,493.9L819.5,497.4L815.5,503.8L820.5,509.0L825.0,509.6L826.2,523.5L824.5,526.2L828.1,530.6L825.3,530.7L826.2,532.7L829.1,534.1L828.3,536.3L834.1,537.1L832.2,539.7L840.5,547.6L837.1,550.2L838.8,553.4L838.1,558.9L817.8,557.4L804.6,547.8L807.8,556.9L799.3,551.9L804.9,558.8L799.6,559.6L802.0,564.6L799.7,567.2L804.3,571.4L804.4,574.0L811.2,577.9L812.1,587.3L814.8,587.8L815.3,583.7L818.3,583.3L820.4,594.5L821.6,592.9L827.4,596.7L834.0,594.9L840.7,599.8L839.7,600.9L841.8,603.6L844.3,601.0L842.7,597.8L844.1,595.2L840.6,585.1L844.3,581.3L849.5,588.0L843.2,590.6L848.9,595.6L848.5,597.3L916.1,597.3L919.0,605.7ZM860.1,627.4L882.2,636.9L866.8,635.7L849.4,627.1L860.1,627.4ZM683.9,532.5L682.1,539.8L683.0,531.3L681.3,539.6L681.7,533.8L679.3,539.7L676.7,540.8L678.5,535.4L675.7,540.1L674.1,539.0L678.0,533.2L678.0,528.7L677.6,535.4L679.1,534.3L679.6,527.6L683.9,532.5Z"/>
    <path class="land" data-name="Newfoundland and Labrador" d="M804.6,465.8L806.3,466.9L802.9,467.0L804.6,466.5L805.6,467.1L805.0,468.0L806.7,468.3L803.4,471.3L806.9,468.9L807.3,470.8L805.5,471.1L807.4,471.6L806.8,473.0L808.9,471.2L807.8,470.2L809.2,470.6L808.4,472.0L809.6,472.5L809.1,473.3L810.2,472.9L809.7,475.4L813.2,477.2L812.0,479.5L812.6,477.6L814.0,478.1L813.3,479.7L815.7,479.6L815.4,481.3L813.1,481.8L816.5,482.1L816.2,484.3L818.1,482.4L818.2,484.8L819.9,483.5L820.2,486.2L814.9,488.1L816.1,487.4L816.9,489.2L816.5,487.9L820.8,486.7L823.3,487.5L821.5,488.0L823.6,489.7L822.4,490.9L825.3,490.4L824.9,490.8L826.6,492.0L825.7,493.4L827.3,493.3L827.4,495.2L825.5,496.8L822.3,497.4L824.1,497.6L822.5,500.2L824.8,497.5L826.4,497.6L826.2,499.0L831.3,497.2L830.8,498.4L831.5,500.2L829.3,501.7L832.3,501.6L828.0,502.7L828.6,503.0L826.3,505.6L833.7,502.3L833.8,504.3L834.8,503.4L834.4,503.9L835.7,504.8L832.8,506.4L834.6,505.8L835.6,507.5L835.7,505.6L836.1,506.8L837.7,505.8L838.7,506.9L838.6,508.5L841.6,511.2L838.2,514.2L836.0,513.4L842.6,514.9L843.7,515.8L842.5,515.7L843.5,517.0L842.2,517.6L844.9,519.2L845.9,517.8L845.7,519.1L849.2,520.2L850.0,522.4L848.5,521.9L847.6,524.6L845.4,524.9L846.0,526.4L847.6,525.9L846.6,526.3L848.3,527.7L839.8,525.1L843.8,524.3L838.9,524.9L846.1,527.7L843.2,527.9L849.0,529.1L844.8,530.5L850.8,533.0L846.1,533.0L848.0,534.2L853.4,534.0L853.3,535.5L854.1,535.9L853.2,536.6L855.3,536.8L852.9,537.4L854.0,538.1L856.9,538.0L857.6,539.2L856.4,539.3L857.6,539.9L860.9,539.9L859.8,541.8L862.6,540.4L863.0,544.3L863.6,540.6L865.3,540.8L864.3,543.8L865.6,543.7L865.6,545.3L866.9,544.9L866.0,547.7L866.8,545.5L866.8,546.4L867.3,545.3L868.4,546.5L867.0,546.9L865.6,550.5L867.8,549.2L865.7,553.1L869.4,548.6L869.6,550.1L870.9,548.9L869.4,552.7L872.9,547.9L874.1,550.0L872.2,551.3L876.2,549.7L877.3,550.9L874.2,556.8L879.4,549.4L880.1,550.6L878.6,553.4L881.2,550.6L882.1,551.5L881.8,553.1L883.5,553.7L882.6,554.7L883.7,554.3L883.8,555.3L894.8,557.0L900.6,559.4L899.9,559.9L900.6,560.6L897.6,561.1L900.5,561.3L898.5,562.5L893.8,562.7L892.9,563.5L894.5,563.3L893.5,564.3L889.1,566.0L881.2,567.4L884.3,567.8L892.1,564.7L890.8,567.5L886.6,567.7L887.9,568.0L883.4,570.7L877.0,571.5L878.4,572.5L878.1,575.2L869.3,570.7L869.4,572.5L873.4,572.9L879.1,575.6L876.2,577.6L878.6,577.9L876.7,579.0L879.5,579.0L878.9,578.1L881.8,575.9L880.5,575.1L887.9,572.9L887.5,571.2L889.0,569.0L895.3,566.7L898.8,567.1L893.3,566.8L892.3,565.3L901.8,565.4L907.1,570.8L903.6,574.2L906.0,574.4L906.2,576.6L908.3,572.4L913.4,571.4L914.2,572.4L911.4,573.0L918.9,574.5L919.5,575.6L916.7,575.0L920.4,576.9L919.9,577.5L922.3,577.9L921.5,578.5L923.4,579.3L922.7,579.9L923.9,580.9L922.1,581.3L922.9,582.5L920.3,582.5L923.4,583.4L925.0,585.3L921.6,585.9L926.7,588.1L922.7,588.0L924.4,588.4L924.5,589.5L919.3,588.8L928.7,591.1L929.1,592.1L927.8,592.6L923.1,591.1L928.8,593.1L928.2,593.9L930.1,594.3L928.5,594.4L930.0,595.9L919.0,605.7L916.1,597.3L848.5,597.3L847.4,596.3L849.5,596.8L848.9,595.6L845.4,593.6L844.2,591.8L844.9,591.4L843.2,590.6L845.0,588.5L849.5,588.0L846.8,586.2L846.5,583.3L844.3,581.3L842.2,581.8L842.7,584.8L840.6,585.1L841.5,589.5L843.6,592.0L844.1,595.2L842.8,595.5L842.7,597.8L844.3,601.0L841.8,603.6L839.7,600.9L840.7,599.8L834.0,594.9L830.3,594.4L829.8,596.7L827.6,595.8L827.4,596.7L824.5,595.7L824.1,594.3L821.6,592.9L821.7,595.4L820.4,594.5L819.4,592.9L820.4,591.5L818.4,587.2L819.4,584.7L818.3,583.3L816.7,582.4L815.3,583.7L816.0,586.9L814.8,587.8L813.8,586.6L813.9,587.7L812.1,587.3L811.0,583.7L811.2,577.9L809.4,577.3L808.1,574.9L804.4,574.0L804.3,571.4L799.7,567.2L802.0,564.6L800.4,562.7L799.6,559.6L802.7,560.6L803.2,559.0L804.9,558.8L803.0,558.1L799.3,551.9L807.8,556.9L808.5,556.2L806.6,553.8L807.2,553.3L805.7,551.4L806.0,549.9L804.0,548.0L804.6,547.8L811.3,553.1L815.4,554.4L817.8,557.4L831.1,556.8L838.1,558.9L838.8,553.4L837.2,552.1L837.1,550.2L840.5,547.6L839.2,544.9L836.0,543.8L832.2,539.7L832.0,538.4L834.1,537.1L828.3,536.3L829.1,534.1L826.2,532.7L825.3,530.7L828.1,530.6L824.5,526.2L826.2,523.5L825.3,520.5L825.9,517.8L824.5,517.6L825.5,515.5L824.1,512.2L825.0,509.6L824.3,510.8L821.6,508.6L820.5,509.0L817.9,504.7L815.5,503.8L816.9,499.4L819.5,497.4L818.5,495.8L816.7,495.9L816.4,493.9L821.4,492.7L818.2,490.6L815.2,492.7L813.2,490.4L807.6,489.6L808.5,487.2L812.7,488.1L809.6,485.0L808.9,481.0L810.1,479.9L807.0,480.8L805.4,479.3L804.3,474.3L805.2,472.3L802.4,470.3L804.9,469.1L801.9,466.5L804.6,465.8ZM934.4,613.4L932.9,615.4L931.4,613.1L933.1,616.3L931.4,620.1L930.4,620.0L931.3,620.4L931.3,621.5L929.9,623.5L930.4,627.5L929.3,628.7L930.7,629.0L930.8,631.5L935.5,623.2L936.5,624.3L935.9,626.3L937.7,624.8L940.5,626.3L943.3,625.9L938.7,628.7L937.8,631.0L940.8,629.5L939.0,633.1L941.7,631.7L944.1,633.7L945.1,632.3L945.2,633.9L946.6,632.0L946.3,633.1L947.4,632.7L946.5,634.0L947.9,633.4L948.2,634.6L948.6,633.5L947.1,631.7L948.8,631.5L948.8,638.3L950.5,637.2L949.6,637.5L949.0,636.3L950.9,635.0L950.4,634.0L951.7,634.9L951.4,635.8L952.9,634.9L952.5,633.3L953.5,635.2L956.0,631.5L955.7,632.8L956.6,632.5L957.1,635.3L957.6,633.1L959.3,633.9L960.6,632.3L968.0,635.4L966.9,637.2L967.6,638.3L965.1,638.4L966.4,638.7L962.7,641.5L966.3,641.1L964.6,642.3L966.2,643.8L967.4,643.1L966.0,643.2L966.6,642.1L968.3,643.4L969.4,643.0L966.4,644.9L968.8,644.7L968.7,645.4L965.0,647.0L967.9,645.9L968.5,647.2L969.6,644.9L969.4,646.4L970.4,645.1L970.7,646.7L971.6,643.8L974.0,645.2L974.9,642.8L976.4,644.1L975.4,647.5L973.6,647.0L973.8,648.4L971.4,649.9L968.1,649.0L969.2,651.0L971.9,651.2L969.4,651.8L972.6,651.5L972.5,653.4L971.4,653.4L972.4,654.0L972.0,655.1L970.2,654.0L973.2,657.2L973.9,656.3L974.7,658.3L975.9,658.1L976.2,652.1L979.3,649.8L980.6,650.8L978.5,657.2L979.6,657.3L978.9,658.0L981.0,659.7L982.7,657.8L982.7,654.6L986.0,658.6L984.7,663.9L985.9,664.8L985.3,669.6L984.1,669.8L983.0,668.5L981.9,669.2L981.9,668.4L979.6,669.6L979.8,666.4L978.5,667.7L979.2,665.6L977.6,665.3L978.5,663.5L977.4,662.4L975.0,666.9L972.5,667.3L972.4,662.1L973.3,662.2L972.2,661.1L973.7,659.5L972.3,659.2L972.0,657.6L969.5,654.4L966.4,653.4L967.5,655.0L966.3,658.7L967.1,659.2L965.3,660.4L966.2,657.2L965.1,660.0L962.7,659.6L962.0,662.8L960.7,662.9L961.8,664.0L961.2,665.0L960.5,664.2L960.8,666.0L959.5,666.8L957.6,665.8L955.7,667.0L952.6,665.7L953.3,664.1L957.0,663.3L958.6,659.3L962.9,656.4L959.2,657.4L959.8,654.9L958.8,657.6L958.3,656.5L954.9,655.8L956.2,658.7L954.7,659.9L953.7,659.4L953.6,658.1L950.9,659.4L952.1,657.5L948.0,658.7L952.9,656.3L949.9,656.5L950.0,652.6L949.9,654.8L948.3,656.0L946.5,654.3L947.4,656.8L946.0,657.0L945.3,655.4L945.6,657.2L941.1,656.9L941.9,657.7L941.3,658.2L936.6,656.9L930.3,657.1L928.7,656.0L923.9,656.7L924.3,655.3L923.1,656.9L916.1,657.9L913.9,657.2L913.5,655.3L911.6,653.3L917.8,646.4L920.8,645.2L910.7,645.9L910.6,645.1L914.3,641.8L913.1,644.0L915.9,644.5L917.0,636.8L917.3,638.0L922.6,639.0L919.3,637.2L922.1,636.4L919.7,636.8L921.0,635.6L918.2,635.6L917.2,633.6L918.8,631.3L920.6,633.0L920.4,632.0L922.4,632.6L920.2,631.7L918.8,629.7L920.3,617.1L922.5,616.8L919.6,615.7L923.3,612.6L921.1,611.2L923.1,611.3L922.1,610.8L923.7,609.5L923.7,606.7L930.4,602.6L931.1,602.8L931.2,604.6L933.9,604.8L932.3,603.6L933.3,602.9L935.6,603.4L934.7,604.4L935.7,605.0L935.0,607.2L929.7,606.3L932.0,609.3L933.0,608.2L934.6,609.0L934.4,613.4ZM850.1,523.0L848.6,525.3L850.4,525.2L851.1,527.7L848.2,525.8L848.3,522.5L850.1,523.0ZM803.5,464.8L800.9,463.1L802.9,462.5L804.3,464.5L805.2,464.0L805.7,466.1L803.5,464.8Z"/>
    <path class="land" data-name="British Columbia" d="M299.5,638.8L236.3,638.8L234.8,635.1L239.5,632.9L234.8,634.4L237.0,629.4L232.1,633.7L227.3,630.3L229.0,628.8L230.1,632.0L233.1,629.3L229.2,628.5L231.5,623.2L230.0,622.3L231.5,623.9L229.2,625.2L229.4,627.6L228.5,626.3L225.5,628.8L221.3,625.8L222.8,620.8L227.1,618.4L219.0,620.9L223.3,612.4L218.3,619.6L214.3,619.0L216.6,615.4L212.9,619.4L207.2,618.3L213.7,615.9L216.6,612.4L215.8,610.1L214.6,614.5L211.3,615.9L208.4,616.1L210.7,614.3L209.4,613.3L205.4,613.8L209.7,612.3L206.6,610.5L204.4,613.3L197.0,612.5L196.6,610.1L204.4,611.4L205.5,609.4L193.9,609.1L201.0,607.0L194.5,606.8L198.4,602.8L207.9,601.4L199.4,602.1L200.9,599.3L197.3,601.6L199.0,602.1L196.5,605.0L194.8,602.0L195.7,598.8L204.3,592.9L208.2,597.6L206.6,593.0L208.9,591.9L204.4,591.9L208.2,585.4L199.8,593.1L197.0,594.4L197.9,590.1L195.6,591.7L198.1,589.0L191.8,593.2L197.9,584.2L193.4,585.5L194.2,580.8L190.9,578.8L190.8,574.8L194.9,577.9L198.8,576.3L200.7,579.4L199.1,575.7L194.9,576.6L192.6,573.7L193.8,571.2L196.9,570.6L194.9,569.8L196.3,567.7L192.1,571.5L191.8,569.7L186.8,577.3L181.1,568.9L182.5,565.8L185.0,568.9L183.8,565.4L188.6,564.6L181.8,565.8L181.5,562.1L179.1,562.7L180.8,558.6L184.1,563.2L183.1,562.1L184.7,560.4L182.9,561.7L181.4,558.1L186.0,558.9L184.1,555.4L190.1,553.0L186.5,552.7L193.5,545.7L190.9,546.7L190.8,543.3L190.0,547.6L185.3,553.1L188.1,548.7L187.8,541.3L190.1,535.6L175.5,528.0L174.0,523.7L175.5,521.0L172.8,520.2L174.3,518.3L168.7,497.6L158.5,483.6L159.4,478.6L156.3,474.6L147.3,478.0L148.0,479.4L145.5,480.3L142.9,485.6L133.3,490.0L133.9,484.3L125.6,471.1L299.0,471.3L281.1,571.0L283.2,573.6L281.3,575.3L291.7,581.1L295.1,592.1L297.6,590.3L300.0,591.6L299.4,594.5L303.9,594.7L306.8,601.5L309.7,600.2L318.0,613.5L323.9,617.4L326.6,624.4L324.9,630.6L331.1,638.4L299.5,638.8ZM196.1,627.3L195.3,625.8L197.5,623.3L188.9,623.6L191.0,622.0L189.9,618.9L194.6,620.2L193.8,618.2L195.6,617.1L191.1,616.7L193.6,617.9L188.6,619.1L186.0,614.7L191.6,613.3L215.3,621.0L219.2,632.6L227.2,635.7L229.6,645.1L231.5,643.1L232.1,646.1L228.4,648.1L213.5,642.4L218.3,635.6L216.6,638.8L210.2,639.9L206.6,637.6L209.9,636.0L208.1,636.8L208.6,633.9L205.7,635.2L207.5,632.9L200.3,633.3L201.0,630.9L206.2,629.6L201.2,629.3L199.6,625.8L196.1,627.3ZM152.0,574.1L150.6,571.3L152.7,565.5L157.3,566.4L155.7,569.0L158.9,566.7L160.9,568.1L159.3,571.4L154.5,572.9L157.6,573.1L156.0,574.5L159.7,572.6L160.9,567.5L166.6,565.7L159.5,579.2L153.9,580.6L152.1,578.3L155.6,578.1L152.0,574.1ZM164.4,594.2L162.0,595.6L154.6,583.8L157.1,582.9L153.2,580.8L161.4,579.2L162.5,582.4L158.5,582.2L161.8,584.0L157.9,584.7L160.9,585.8L158.7,587.1L164.4,594.2ZM191.2,587.9L189.4,588.7L191.8,583.4L189.5,587.8L186.7,586.2L190.2,582.4L188.8,580.9L189.9,582.4L186.4,584.0L188.7,578.6L192.9,580.8L191.2,587.9ZM184.6,579.3L179.2,569.9L185.8,576.6L184.6,579.3ZM176.9,573.8L181.6,580.3L175.3,574.8L176.9,573.8Z"/>
    <path class="land" data-name="Nunavut" d="M540.9,268.8L560.0,274.6L551.3,276.9L557.7,283.5L562.3,304.1L567.6,280.1L577.3,287.7L581.5,301.8L577.3,310.5L587.5,330.3L593.1,324.6L597.8,291.9L606.1,285.1L599.7,281.9L596.5,264.0L622.6,269.7L614.8,272.3L630.9,281.0L625.9,288.6L632.8,294.2L622.2,299.0L635.9,322.6L620.9,346.9L615.4,335.2L604.6,334.4L613.8,339.6L617.3,351.2L592.4,343.1L600.3,351.0L589.4,369.0L554.1,355.7L593.3,372.8L584.8,393.4L567.6,393.5L570.4,397.4L566.4,396.0L567.4,403.8L536.2,392.2L564.3,414.7L548.6,419.4L553.8,423.1L547.3,423.2L549.0,432.1L542.8,428.5L546.1,431.5L538.9,435.8L542.3,439.6L534.9,447.4L529.3,471.1L463.4,471.1L465.9,391.8L403.4,379.3L393.9,365.2L378.5,365.1L318.1,309.5L323.2,271.9L361.3,286.2L373.2,300.3L359.2,312.1L402.8,309.3L418.6,325.9L413.4,329.1L423.8,346.9L419.6,337.9L421.3,330.8L425.6,336.5L420.7,307.6L439.2,294.3L413.6,303.2L417.9,295.2L435.2,287.0L447.9,308.8L465.9,316.8L497.1,314.3L495.3,307.4L507.6,317.1L494.3,301.0L501.2,296.6L512.7,302.1L509.7,309.1L516.8,302.6L512.4,321.6L521.7,333.3L512.6,331.1L517.9,341.8L515.7,334.1L522.7,333.1L520.3,308.1L536.7,294.5L533.0,283.8L526.7,291.6L531.4,281.7L529.0,278.0L536.2,276.2L514.0,264.0L511.0,253.5L516.7,241.9L510.6,239.6L511.3,226.6L525.3,210.2L520.7,208.0L532.1,213.2L537.9,224.8L537.7,237.8L550.1,256.5L543.4,254.2L546.9,259.9L540.9,268.8ZM802.0,341.0L790.2,347.3L799.5,354.3L789.8,351.9L797.8,358.5L792.5,356.4L796.0,363.4L787.2,355.9L791.8,378.0L771.4,360.2L778.0,346.9L766.9,355.6L768.6,346.1L764.3,351.7L754.4,340.5L749.1,342.0L754.1,348.5L747.3,343.5L756.5,356.5L741.7,350.5L748.8,352.9L746.3,353.7L751.7,358.5L751.4,365.6L756.4,361.8L765.7,380.6L780.3,385.8L776.6,390.0L789.5,403.1L790.2,411.2L781.9,399.9L791.9,417.7L785.8,415.8L788.9,424.1L772.2,408.5L774.8,415.9L759.6,400.9L763.3,408.5L750.3,401.0L784.8,436.9L760.3,430.2L728.9,412.3L724.2,407.1L731.5,403.9L721.9,402.6L723.0,398.0L710.6,390.6L709.9,382.8L704.4,389.5L703.3,381.2L697.8,377.7L695.2,379.9L699.2,388.6L688.5,383.8L682.8,392.4L667.4,381.8L672.6,366.0L687.1,371.0L692.0,381.6L692.5,373.6L685.4,369.0L705.7,366.3L695.1,351.2L709.8,326.3L695.7,303.0L697.6,300.6L691.6,299.8L692.2,293.2L687.9,296.7L682.0,290.2L682.7,283.7L669.1,292.9L675.9,280.1L662.1,269.6L662.8,262.1L658.5,267.0L656.7,255.8L645.0,242.7L641.4,250.1L648.9,263.6L625.3,257.4L632.5,267.7L615.4,252.6L626.2,262.1L595.0,260.7L588.2,254.4L588.9,246.9L578.0,254.3L563.9,231.7L583.5,234.3L561.1,224.6L558.7,208.5L566.2,167.0L591.5,151.9L594.5,154.4L582.6,185.3L586.8,194.3L586.1,206.1L599.4,226.5L584.9,234.4L600.4,236.1L600.4,216.3L588.9,206.1L602.9,205.8L590.0,180.4L603.0,184.7L590.9,176.5L604.8,177.7L593.0,170.3L618.1,155.1L630.2,185.2L623.1,199.5L628.8,191.9L627.2,209.8L636.0,202.8L631.9,197.0L633.8,192.1L651.4,213.5L641.8,199.7L655.9,202.8L643.4,193.8L649.4,184.6L667.7,192.0L670.7,199.3L661.1,210.4L676.5,204.3L669.8,220.1L674.7,215.1L673.5,229.2L682.4,212.9L678.3,223.0L682.9,218.1L685.4,223.6L682.7,232.6L688.4,226.8L686.9,234.6L690.6,216.0L702.9,226.7L692.1,239.1L696.7,238.5L694.7,244.5L707.6,232.4L699.8,249.5L705.5,246.6L704.6,259.9L713.8,237.3L711.0,248.1L727.5,246.4L713.7,264.1L726.5,256.6L718.3,270.2L732.5,253.8L740.1,267.4L718.2,272.2L744.4,277.1L727.2,276.7L734.9,280.2L728.5,286.2L734.4,281.9L738.7,285.1L732.2,286.4L739.2,290.9L726.0,289.0L749.6,299.3L740.7,303.4L753.8,306.5L751.4,312.4L754.8,314.8L756.8,305.8L758.5,318.2L767.3,309.9L764.9,317.8L769.2,313.7L777.0,325.5L769.6,324.4L776.8,326.3L772.1,332.4L783.4,325.0L780.1,336.6L793.4,331.4L802.0,341.0ZM676.0,-269.8L683.2,-267.8L671.2,-246.5L692.0,-265.9L717.2,-224.5L700.8,-187.8L671.4,-187.7L688.4,-175.3L668.3,-155.8L701.7,-173.3L675.5,-110.9L667.2,-121.6L672.7,-102.0L658.8,-103.5L671.0,-97.4L665.9,-87.4L668.4,-81.6L626.4,-60.7L650.3,-46.8L621.9,-47.0L650.7,-25.5L637.7,-22.6L649.1,-14.2L629.1,0.2L633.9,16.7L627.8,28.5L605.9,13.1L611.8,27.3L605.1,28.8L608.1,34.4L636.3,47.6L615.5,73.6L616.8,62.8L602.5,47.7L607.6,62.0L556.2,57.2L563.1,36.7L575.9,33.5L564.2,6.1L589.5,28.9L596.5,26.8L593.8,22.5L602.4,-3.0L586.9,19.0L589.3,11.4L582.8,6.6L589.7,4.5L580.7,3.0L591.0,-7.5L584.8,-8.9L586.0,-25.5L581.5,-4.2L568.3,-5.6L571.2,-30.9L601.3,-24.6L594.6,-36.6L605.4,-46.5L584.5,-45.8L593.4,-46.4L572.2,-80.5L579.6,-88.4L571.1,-107.7L613.8,-74.8L591.5,-108.7L631.2,-137.5L616.3,-138.7L627.6,-171.2L604.8,-126.6L579.6,-118.6L569.2,-123.5L594.7,-155.8L564.7,-125.1L552.0,-141.1L580.0,-162.1L550.9,-146.1L546.3,-155.1L564.6,-173.9L536.1,-184.0L558.7,-211.8L579.6,-198.2L565.6,-218.1L575.8,-236.5L611.8,-193.7L589.6,-231.6L601.8,-240.6L596.2,-260.3L613.4,-249.8L601.7,-265.0L607.1,-270.7L629.0,-243.9L627.6,-234.0L631.9,-245.5L619.1,-272.1L676.0,-269.8ZM411.3,193.7L412.3,178.0L418.5,185.0L426.2,217.6L431.0,209.3L427.4,202.5L426.5,167.9L442.8,175.5L452.3,218.4L449.7,230.9L477.1,256.4L477.6,266.3L457.3,268.5L460.8,273.3L459.0,282.5L465.2,273.6L470.5,281.6L461.3,290.4L443.7,288.1L432.8,273.2L413.4,291.9L378.6,298.8L378.1,281.1L359.2,278.3L351.8,263.2L406.9,260.6L411.3,193.7ZM522.2,-151.8L535.4,-159.1L558.9,-97.4L561.3,-97.1L557.7,-112.7L563.7,-113.5L561.8,-98.5L569.0,-87.5L566.5,-69.3L583.1,-56.6L566.9,-28.0L564.2,-35.3L565.4,-48.1L562.6,-43.0L562.1,-28.4L565.2,-23.7L559.3,-26.4L559.8,-6.6L551.6,-26.4L555.7,-6.9L538.5,-9.1L532.5,-20.8L541.1,-23.3L523.8,-42.7L548.5,-55.6L517.5,-57.4L514.0,-66.4L523.3,-80.2L513.5,-74.7L507.4,-97.0L522.4,-91.3L519.9,-97.1L524.1,-101.7L508.2,-110.0L525.9,-119.7L515.1,-135.6L524.9,-147.9L522.2,-151.8ZM508.4,41.3L532.4,50.6L530.2,64.1L547.3,54.1L551.0,60.8L543.5,59.8L560.0,69.4L543.5,68.7L553.4,76.0L547.2,84.1L554.7,77.9L562.6,98.5L616.1,86.4L627.5,97.7L622.7,112.1L630.9,117.1L614.6,131.5L601.4,116.7L601.6,128.7L590.1,130.4L566.9,130.0L566.2,116.5L544.5,124.4L538.3,105.9L540.4,83.4L533.5,65.6L517.8,69.6L521.6,66.2L507.1,51.3L511.4,50.1L508.4,41.3ZM477.6,167.3L473.9,162.3L482.5,164.5L477.6,155.0L486.8,150.1L484.7,148.5L505.6,150.8L507.4,157.8L502.4,162.5L506.0,166.5L496.7,181.2L505.2,178.3L512.6,194.5L508.3,197.2L510.7,211.5L498.0,209.1L499.7,219.7L494.5,226.8L465.2,185.4L471.2,174.5L482.0,185.1L485.2,179.2L481.5,170.3L487.1,170.9L477.6,167.3ZM598.7,384.3L603.7,356.0L610.2,371.3L612.7,365.6L635.2,382.2L640.5,392.0L637.6,396.2L653.8,400.7L646.7,407.0L628.4,392.3L609.0,413.5L606.0,400.8L593.2,403.6L601.3,394.1L598.7,384.3ZM517.4,168.6L516.8,154.7L524.3,157.3L519.1,147.8L523.3,143.2L555.8,149.8L543.5,184.6L527.1,184.1L533.5,193.1L529.3,207.0L520.8,206.7L524.1,202.1L517.6,186.1L517.4,168.6ZM490.0,79.2L479.8,59.6L502.3,60.5L503.0,83.2L500.4,87.6L505.0,99.7L489.2,114.2L480.7,101.3L493.9,89.2L466.3,91.7L480.0,85.1L471.6,69.5L473.8,61.7L490.0,79.2ZM429.0,61.4L431.5,68.0L428.2,76.8L434.1,78.6L431.1,86.2L438.8,91.0L441.2,76.2L449.1,90.6L444.2,111.5L415.7,119.0L417.0,95.0L425.4,89.5L417.6,82.8L422.8,77.0L418.7,60.7L427.7,46.1L429.0,61.4ZM461.1,-26.9L465.8,-32.3L451.5,-51.6L476.7,-47.6L493.8,-2.6L487.5,9.3L454.5,-21.8L465.3,-25.4L461.1,-26.9ZM623.7,154.2L648.4,160.3L660.3,180.2L634.9,184.6L624.1,167.3L623.7,154.2ZM487.6,284.5L500.0,274.7L497.1,270.6L500.2,263.2L522.1,289.2L511.9,299.0L487.6,284.5ZM514.3,118.2L509.7,111.2L521.5,91.3L532.2,117.3L514.3,118.2ZM500.3,-35.7L520.1,-17.0L516.9,-9.9L520.3,-2.5L505.9,8.2L501.5,-1.5L507.4,-5.7L497.3,-21.1L500.3,-35.7ZM684.2,306.7L685.6,320.2L679.7,326.9L670.4,326.6L666.9,316.6L670.8,302.9L684.2,306.7ZM447.2,179.2L434.8,162.4L453.2,160.9L447.2,179.2ZM638.2,416.2L640.9,421.4L632.6,431.0L623.9,426.8L638.2,416.2ZM531.8,12.4L511.0,16.4L531.8,12.4ZM664.3,438.6L662.1,442.8L657.0,432.8L663.7,427.7L664.3,438.6ZM552.9,18.8L555.5,27.2L545.0,24.1L552.9,18.8ZM449.7,10.5L457.6,31.8L446.7,11.9L449.7,10.5ZM494.8,-75.6L486.3,-94.1L494.6,-96.3L494.8,-75.6ZM669.6,580.3L674.4,587.4L660.1,582.5L669.6,580.3Z"/>
    <path class="land" data-name="Northwest Territories" d="M463.4,471.1L262.1,470.7L260.4,454.1L239.4,457.7L239.3,444.7L223.0,431.9L225.5,425.8L221.9,418.2L224.2,414.8L220.4,410.6L224.2,406.4L220.8,402.2L223.1,400.0L206.4,379.3L209.9,375.0L207.1,370.9L213.9,363.3L211.9,357.8L214.4,354.9L203.7,355.1L205.7,348.5L203.8,347.6L207.0,342.2L204.9,333.5L207.3,332.4L188.2,332.4L196.3,288.6L212.9,293.0L211.3,285.3L228.3,269.3L257.6,257.3L243.2,271.6L234.6,272.5L219.6,289.2L223.2,293.1L220.3,289.3L227.2,290.4L225.5,283.9L240.4,273.2L238.1,278.2L240.8,271.1L240.6,276.6L242.1,270.4L241.2,282.2L248.2,268.2L260.8,261.2L258.1,264.9L258.9,268.7L272.6,254.7L268.1,250.4L270.5,245.1L285.1,277.8L288.3,274.4L284.0,275.2L288.2,273.5L287.1,268.3L291.4,267.7L288.2,265.4L293.9,261.0L289.7,260.2L295.8,259.3L294.2,256.6L296.4,256.7L293.9,267.4L297.4,268.6L293.0,276.5L301.5,275.4L306.3,264.7L321.8,269.6L323.2,271.9L318.1,309.5L378.5,365.1L393.9,365.2L403.4,379.3L465.9,391.8L463.4,471.1ZM349.7,260.6L396.6,252.9L378.4,241.8L350.5,244.9L345.6,236.9L371.9,219.8L348.5,223.9L347.1,222.1L352.4,215.7L342.2,216.9L342.8,209.0L351.0,199.8L348.7,192.2L358.6,179.7L380.1,165.8L383.9,173.4L383.1,182.8L378.2,190.2L386.6,187.0L390.6,176.9L403.0,185.5L397.2,196.4L398.0,200.8L406.6,189.8L411.3,193.7L406.9,260.6L352.4,260.5L355.8,269.7L349.7,260.6ZM344.7,145.4L361.8,138.9L374.9,162.7L344.7,188.1L342.5,196.3L335.3,199.0L330.6,220.0L312.2,231.8L297.1,208.1L299.3,207.7L291.5,207.2L301.7,190.0L301.7,181.3L306.6,179.4L304.4,174.8L315.0,153.7L310.1,135.3L333.9,128.5L347.0,138.9L344.7,145.4ZM415.7,119.0L390.4,132.7L384.2,124.6L410.1,105.7L388.6,111.4L393.8,99.0L388.8,97.3L384.5,104.0L385.6,110.3L376.2,114.6L363.1,104.7L382.9,89.2L367.1,93.1L384.8,82.2L371.7,80.0L386.3,72.2L378.1,68.0L387.0,59.2L391.1,71.3L401.6,72.1L405.9,81.1L402.2,85.1L407.6,84.2L408.2,95.3L417.0,95.0L415.7,119.0ZM378.6,39.7L381.2,42.6L376.9,43.5L379.4,52.5L368.5,68.8L364.0,63.2L366.9,47.7L363.2,49.6L362.7,57.8L358.0,59.8L360.3,65.9L356.0,75.2L352.5,66.1L352.9,79.3L349.9,83.4L345.7,84.9L344.1,71.0L340.2,81.6L329.0,75.2L359.5,27.7L373.5,29.1L376.3,25.2L373.2,22.4L378.3,18.4L384.4,28.3L377.2,35.4L378.6,39.7ZM421.5,3.2L415.4,6.0L420.4,9.4L419.1,20.5L406.6,27.8L399.5,19.7L399.3,8.6L414.5,-3.9L421.5,3.2ZM420.4,-32.8L422.9,-29.2L422.2,-13.9L400.5,-14.3L420.4,-32.8ZM201.7,285.4L204.4,285.0L202.6,279.2L205.7,283.1L203.8,277.7L215.6,273.8L216.2,267.5L221.1,272.1L211.0,285.3L212.9,292.9L201.7,285.4ZM366.0,74.1L360.5,92.6L352.2,92.4L366.0,74.1ZM393.3,12.6L387.9,1.8L397.7,7.8L393.3,12.6Z"/>
    <path class="land" data-name="New Brunswick" d="M810.8,661.2L817.0,657.8L815.8,653.0L818.5,653.0L818.3,652.0L823.7,652.1L826.9,654.1L836.8,651.1L843.5,653.5L846.2,657.0L849.7,654.6L854.1,654.5L854.1,655.4L856.0,655.5L854.3,657.9L854.9,660.5L851.0,663.9L857.1,664.0L856.9,667.0L858.6,668.6L858.1,669.3L859.6,669.2L860.4,671.7L861.7,672.6L861.0,673.7L862.5,673.2L863.0,675.0L871.9,676.3L868.9,677.1L869.5,677.9L867.5,679.9L866.4,679.4L865.7,681.3L864.5,679.1L861.3,676.7L864.2,679.6L864.0,681.4L853.7,687.3L851.8,687.8L849.2,686.6L850.0,684.6L848.4,686.2L850.1,687.2L848.7,688.4L847.4,687.9L848.4,688.4L846.6,689.5L845.7,688.5L841.8,689.7L841.9,688.7L840.6,688.0L840.0,689.3L837.9,687.3L838.6,688.8L837.1,688.1L836.5,688.8L834.5,686.9L833.9,683.0L829.6,681.9L825.0,664.3L819.3,660.5L812.7,662.7L810.8,661.2ZM857.3,653.1L855.7,655.3L855.6,653.8L857.3,653.1Z"/>
    <path class="land" data-name="Nova Scotia" d="M869.5,677.9L874.2,680.2L876.0,679.4L876.9,679.7L875.9,680.3L879.0,680.2L877.5,680.8L878.6,681.3L881.0,680.9L880.3,680.2L885.2,680.8L884.4,680.9L885.9,681.4L884.5,682.0L885.1,682.7L886.3,681.8L887.9,682.8L893.0,679.3L894.2,681.8L897.4,682.7L898.7,681.8L902.1,684.1L900.2,686.1L905.9,687.0L901.0,688.6L898.3,688.2L899.2,689.3L897.2,689.1L887.5,693.9L884.9,693.2L885.3,694.4L884.2,693.0L883.0,695.0L880.9,694.4L881.4,695.4L878.5,693.9L880.8,696.5L879.8,697.3L876.2,696.4L876.1,694.2L874.4,694.8L875.4,696.4L874.7,697.0L873.3,695.5L872.0,695.8L871.8,697.3L873.7,698.3L872.2,698.3L873.5,699.4L871.4,698.5L872.4,699.5L870.1,700.8L870.9,701.7L869.2,702.0L870.0,702.8L868.3,703.6L868.7,704.8L867.1,704.2L867.5,705.7L866.4,704.8L867.0,706.2L866.2,705.7L866.0,706.7L864.3,705.1L864.3,706.7L863.4,705.5L864.1,708.2L862.7,707.6L863.5,708.7L862.8,708.0L862.8,709.2L861.5,707.9L859.9,708.7L857.4,705.1L855.7,704.6L856.0,706.4L854.7,705.8L852.5,701.5L852.7,698.5L854.9,695.6L851.6,697.5L855.1,694.2L856.5,695.1L858.8,693.1L855.6,694.0L868.2,686.6L867.0,686.2L868.9,686.6L868.9,688.6L870.5,688.8L872.0,690.6L871.3,688.0L879.3,685.9L865.9,685.2L864.2,686.8L862.2,686.3L869.5,677.9ZM906.1,675.3L907.5,673.7L905.9,676.5L901.5,678.4L905.2,677.2L904.9,678.7L902.2,679.2L904.0,679.8L902.2,681.7L904.5,680.9L905.9,681.5L905.7,682.4L906.8,681.9L906.5,680.5L909.1,677.9L906.4,679.3L905.1,678.5L909.2,675.2L906.0,677.0L908.3,673.9L910.2,674.8L909.6,675.9L910.9,674.7L914.8,675.8L913.7,677.6L915.7,678.7L912.5,679.5L913.5,680.4L912.1,681.6L907.9,683.3L905.4,682.4L901.3,683.6L898.8,681.5L896.5,677.5L902.2,665.1L904.7,664.8L904.2,666.4L906.6,667.2L906.3,669.4L907.1,670.1L906.1,675.3ZM844.0,692.8L844.4,694.4L843.1,695.2L844.0,692.8ZM905.4,683.5L904.8,684.7L903.2,683.6L905.4,683.5Z"/>
    <path class="land" data-name="Saskatchewan" d="M463.4,471.1L461.2,540.2L464.5,638.8L373.6,638.8L390.3,471.2L463.4,471.1Z"/>
    <path class="land" data-name="Alberta" d="M330.8,638.8L324.9,630.6L326.6,624.4L323.9,617.4L321.8,617.8L318.0,613.5L318.5,611.9L312.7,607.0L309.7,600.2L306.8,601.5L303.9,594.7L299.4,594.5L300.0,591.6L297.6,590.3L295.1,592.1L294.8,586.6L291.7,581.1L281.3,575.3L283.2,573.6L281.1,571.0L299.0,471.3L390.3,471.2L373.6,638.8L330.8,638.8Z"/>
    <path class="land" data-name="Prince Edward Island" d="M868.5,672.8L866.8,672.5L866.7,669.7L862.8,669.2L865.8,664.3L866.8,666.5L865.9,667.9L869.3,670.0L868.7,671.8L871.4,672.3L871.5,670.6L876.6,672.8L890.1,672.0L886.3,673.3L886.5,674.5L885.2,674.4L886.2,675.1L884.4,674.9L886.4,676.7L885.3,677.4L886.6,677.7L883.7,678.5L880.2,677.1L881.4,675.9L878.6,675.1L879.9,673.8L877.6,674.4L877.0,675.4L878.5,675.5L877.4,676.1L872.2,674.7L870.6,673.6L871.1,672.8L868.5,672.8Z"/>
    <path class="land" data-name="Yukon Territory" d="M263.9,471.2L125.6,471.1L123.9,469.5L126.4,464.9L108.6,465.7L165.1,269.6L178.8,272.9L196.6,288.0L189.9,316.1L191.0,320.9L188.2,332.4L207.3,332.4L204.9,333.5L207.0,342.2L203.8,347.6L205.7,348.5L203.7,355.1L214.4,354.9L211.9,357.8L213.9,363.3L207.1,370.9L209.9,375.0L206.4,379.3L212.9,385.3L211.1,388.5L217.1,387.5L217.7,395.3L223.1,400.0L220.8,402.2L224.2,406.4L220.4,410.6L224.2,414.8L221.9,418.2L225.5,425.8L223.0,431.9L229.5,432.5L232.8,440.6L239.3,444.7L239.4,457.7L260.4,454.1L259.0,459.2L263.9,471.2Z"/>
    <path class="land" data-name="Manitoba" d="M463.4,471.1L529.3,471.1L530.8,482.4L529.7,486.9L527.8,487.5L529.6,487.4L530.3,491.2L533.3,493.2L535.3,491.7L534.1,501.6L535.6,492.3L545.1,492.9L553.0,516.1L549.0,523.1L566.5,517.3L584.3,523.7L583.4,527.6L528.7,585.4L529.9,638.8L464.5,638.8L461.2,540.2L463.4,471.1Z"/>
    <path class="land" data-name="Ontario" d="M690.2,612.0L697.4,659.3L706.1,671.3L722.1,675.9L728.9,680.5L730.9,679.5L737.0,684.7L742.5,685.7L755.0,682.4L757.9,683.3L757.7,686.4L759.7,687.9L743.5,698.0L733.1,701.8L733.9,700.5L726.6,701.2L734.5,701.2L732.7,703.3L734.9,703.4L731.9,704.4L725.2,702.2L710.2,704.8L703.6,710.9L711.5,711.6L713.9,715.9L699.8,717.3L697.4,719.4L701.3,720.3L687.4,719.0L675.4,727.7L668.2,725.9L668.8,723.0L675.6,722.5L672.9,720.2L674.2,716.0L681.6,710.6L680.3,701.7L684.6,695.1L683.0,690.7L678.7,687.1L683.3,687.3L685.3,691.5L687.5,690.8L685.8,693.4L688.4,693.0L688.2,695.4L691.2,693.8L697.9,696.9L697.0,692.6L702.1,693.4L696.5,688.8L696.4,685.6L693.2,685.6L687.8,678.8L651.3,673.7L649.6,670.8L645.9,671.7L645.1,667.3L647.1,666.6L642.4,665.3L644.1,661.3L638.8,657.1L640.2,652.7L629.3,652.3L622.1,641.8L602.6,638.9L604.5,641.6L603.6,644.0L600.1,646.4L602.3,642.0L600.5,640.7L598.2,647.2L596.2,647.9L597.8,644.4L593.9,645.7L592.1,650.5L586.3,652.2L577.2,650.9L575.8,648.7L568.4,651.5L563.3,647.4L559.8,649.2L553.5,643.8L544.7,645.3L536.2,642.6L533.3,634.4L529.9,633.8L528.7,585.4L583.4,527.6L584.3,523.7L587.2,523.9L596.4,530.6L600.4,537.5L617.1,542.2L625.6,547.7L623.3,553.2L626.9,548.4L653.1,550.5L655.2,555.4L654.1,565.0L657.9,571.1L659.1,578.9L657.9,583.5L667.5,593.0L663.6,594.7L667.4,594.0L677.7,601.4L680.2,606.4L674.8,611.1L680.6,606.7L690.2,612.0ZM664.6,678.2L668.6,680.5L670.8,677.9L672.5,679.9L674.9,678.1L676.7,681.2L677.7,679.0L678.9,680.4L676.4,683.9L674.9,683.4L677.2,681.6L674.1,683.4L661.1,679.4L664.6,678.2Z"/>
  </g>

  <!-- Alaska -->
  <g color="#d7e6ff">
    <path class="alaska" d="M124.6,471.1L133.6,490.1L142.8,485.8L147.5,478.0L157.8,476.4L168.8,498.4L175.4,528.2L190.0,535.8L187.3,548.4L177.3,556.0L180.9,536.1L168.1,544.2L176.4,534.2L162.4,518.8L162.8,511.1L167.5,512.4L164.8,508.0L168.2,507.2L161.3,504.0L164.8,496.6L160.4,501.4L156.1,497.7L155.4,481.2L152.2,501.1L145.4,498.6L146.1,491.4L148.5,490.1L146.3,487.6L144.1,492.4L138.4,487.8L144.1,497.7L137.9,501.2L115.2,479.0L120.2,471.9L120.3,477.9L124.3,474.0L121.2,470.9L110.5,476.2L103.8,469.0L78.1,470.8L73.3,465.2L77.3,459.2L65.1,462.6L68.3,459.5L60.7,458.1L62.5,452.3L65.8,451.2L49.3,454.2L53.3,449.3L43.4,456.4L45.0,459.1L40.3,462.4L46.4,462.5L38.8,471.3L30.8,469.2L10.6,484.1L1.4,483.9L13.3,475.1L6.0,474.9L17.8,457.9L27.7,452.8L39.0,455.5L32.3,450.1L40.2,444.1L-1.0,465.9L0.2,471.1L-20.1,485.7L-16.2,492.6L-54.8,515.7L-59.4,521.4L-80.9,530.6L-84.3,536.3L-116.0,547.0L-117.4,543.5L-126.8,550.9L-131.3,549.2L-141.6,555.5L-138.7,551.1L-116.8,539.0L-104.0,540.6L-104.8,537.4L-100.0,532.5L-63.4,513.4L-60.6,504.4L-55.5,502.0L-56.8,498.2L-44.6,486.1L-61.5,495.0L-62.6,491.0L-57.6,488.8L-64.4,488.9L-70.3,498.5L-78.2,487.5L-98.2,494.4L-89.6,486.5L-92.4,485.9L-87.2,478.3L-86.6,466.1L-78.8,458.9L-89.1,466.4L-90.5,471.3L-104.4,474.5L-111.0,461.5L-102.8,455.2L-95.8,460.6L-91.5,457.6L-95.0,455.9L-91.7,455.0L-105.2,454.5L-101.4,451.2L-107.7,451.4L-108.0,441.3L-91.8,425.9L-87.7,425.5L-84.2,417.4L-78.0,411.6L-69.8,414.9L-56.7,405.5L-43.8,402.9L-39.1,391.1L-41.8,387.4L-33.5,379.9L-40.7,379.5L-52.8,388.5L-54.4,382.9L-56.0,387.6L-80.1,384.3L-81.2,372.4L-73.5,369.7L-86.0,361.9L-46.9,341.7L-40.3,342.0L-46.9,349.8L-45.3,352.7L-22.3,350.4L-28.8,334.8L-26.3,333.7L-24.5,344.5L-13.6,345.4L-24.5,339.2L-20.4,332.0L-34.4,330.2L-34.5,318.7L-48.5,301.0L-44.6,299.5L-38.7,288.3L-14.9,281.4L8.9,251.9L5.8,256.3L24.8,245.0L23.9,253.2L29.8,246.8L25.5,243.9L30.0,239.8L44.1,237.9L59.8,223.0L64.0,230.8L58.7,238.4L67.0,231.4L71.9,239.5L86.7,238.2L83.8,243.4L88.5,245.9L86.3,248.7L154.4,259.6L165.1,269.3L108.5,465.8L126.3,465.0L124.6,471.1Z"/>
  </g>

  <!-- Ghost internal borders -->
  <g class="ghost">
  </g>

  <!-- Connection Arcs -->
  <g>
    <!-- Original arcs -->
    <path class="arc" d="M236.2,635.0 Q277.7,591.4 334.6,610.8"/>
    <path class="arc" d="M334.6,610.8 Q551.8,539.6 707.4,706.9"/>
    <path class="arc" d="M707.4,706.9 Q730.0,676.4 767.1,684.1"/>
    <path class="arc" d="M767.1,684.1 Q826.8,653.4 879.7,694.7"/>
    <path class="arc" d="M236.2,635.0 Q499.1,491.9 707.4,706.9" stroke-dasharray="6 8"/>
    <!-- Whitehorse to Yellowknife -->
    <path class="arc" d="M164.8,458.3 Q260.3,382.4 355.8,426.4"/>
    <!-- Whitehorse to Winnipeg -->
    <path class="arc" d="M164.8,458.3 Q336.9,410.0 509.0,626.6" stroke-dasharray="6 8"/>
    <!-- Yellowknife to Thunder Bay -->
    <path class="arc" d="M355.8,426.4 Q474.3,440.0 592.8,647.1" stroke-dasharray="6 8"/>
    <!-- Edmonton to Yellowknife -->
    <path class="arc" d="M345.3,575.0 Q340.0,480.0 355.8,426.4"/>
    <!-- Winnipeg to Goose Bay (Labrador) -->
    <path class="arc" d="M509.0,626.6 Q693.1,470.0 877.2,578.5"/>
    <!-- Vancouver to Goose Bay (Labrador) -->
    <path class="arc" d="M236.2,635.0 Q556.7,380.0 877.2,578.5" stroke-dasharray="6 8"/>
    <!-- Quebec City to Goose Bay -->
    <path class="arc" d="M789.0,667.5 Q845.0,590.0 877.2,578.5"/>
    <!-- Thunder Bay to Montreal -->
    <path class="arc" d="M592.8,647.1 Q680.0,600.0 767.1,684.1"/>
  </g>

  <!-- Cities -->
  <g>
    <!-- West (purple) -->
    <circle class="core" cx="236.2" cy="635.0" r="4.5" fill="#7c3aed"/>
    <circle class="core" cx="164.8" cy="458.3" r="3" fill="#7c3aed"/>
    <!-- Middle (cyan) -->
    <circle class="core" cx="334.6" cy="610.8" r="3" fill="#00d4ff"/>
    <circle class="core" cx="345.3" cy="575.0" r="2" fill="#00d4ff"/>
    <circle class="core" cx="355.8" cy="426.4" r="3" fill="#00d4ff"/>
    <circle class="core" cx="509.0" cy="626.6" r="3" fill="#00d4ff"/>
    <circle class="core" cx="592.8" cy="647.1" r="2" fill="#00d4ff"/>
    <circle class="core" cx="707.4" cy="706.9" r="4.5" fill="#00d4ff"/>
    <circle class="core" cx="744.0" cy="685.1" r="3" fill="#00d4ff"/>
    <circle class="core" cx="767.1" cy="684.1" r="4.5" fill="#00d4ff"/>
    <circle class="core" cx="687.7" cy="715.0" r="2" fill="#00d4ff"/>
    <!-- East (green) -->
    <circle class="core" cx="789.0" cy="667.5" r="3" fill="#10b981"/>
    <circle class="core" cx="877.2" cy="578.5" r="3" fill="#10b981"/>
    <circle class="core" cx="879.7" cy="694.7" r="3" fill="#10b981"/>
  </g>

  <!-- Arctic fade-out overlay -->
  <rect x="0" y="0" width="1000" height="625.3" fill="url(#arcticFade)"/>

  <!-- Left edge fade -->
  <rect x="0" y="0" width="170" height="750" fill="url(#leftFade)"/>

  <!-- Right edge fade -->
  <rect x="880" y="0" width="120" height="750" fill="url(#rightFade)"/>

  <!-- Tech frame -->
  <rect class="frame" x="3" y="3" width="994" height="744" rx="3"/>

</svg>