<svg xmlns="http://www.w3.org/2000/svg" width="1200" height="900" viewBox="0 0 1200 900" fill="none">
  <defs>
    <linearGradient id="bg" x1="148" y1="44" x2="1032" y2="850" gradientUnits="userSpaceOnUse">
      <stop offset="0%" stop-color="#08101D"/>
      <stop offset="55%" stop-color="#0C1525"/>
      <stop offset="100%" stop-color="#160C1D"/>
    </linearGradient>

    <radialGradient id="cyanGlow" cx="0" cy="0" r="1" gradientUnits="userSpaceOnUse" gradientTransform="translate(394 80) rotate(90) scale(360 580)">
      <stop offset="0%" stop-color="#00D4FF" stop-opacity="0.18"/>
      <stop offset="100%" stop-color="#00D4FF" stop-opacity="0"/>
    </radialGradient>
    <radialGradient id="violetGlow" cx="0" cy="0" r="1" gradientUnits="userSpaceOnUse" gradientTransform="translate(826 122) rotate(90) scale(340 560)">
      <stop offset="0%" stop-color="#7C3AED" stop-opacity="0.16"/>
      <stop offset="100%" stop-color="#7C3AED" stop-opacity="0"/>
    </radialGradient>
    <radialGradient id="redGlow" cx="0" cy="0" r="1" gradientUnits="userSpaceOnUse" gradientTransform="translate(1032 190) rotate(90) scale(260 420)">
      <stop offset="0%" stop-color="#DC2626" stop-opacity="0.10"/>
      <stop offset="100%" stop-color="#DC2626" stop-opacity="0"/>
    </radialGradient>

    <pattern id="majorGrid" width="64" height="64" patternUnits="userSpaceOnUse">
      <path d="M64 0H0V64" stroke="#2A3548" stroke-opacity="0.72" stroke-width="1"/>
    </pattern>
    <pattern id="minorGrid" width="22" height="22" patternUnits="userSpaceOnUse">
      <path d="M22 0H0V22" stroke="#1A2235" stroke-opacity="0.78" stroke-width="1"/>
    </pattern>

    <linearGradient id="gridFade" x1="0" y1="24" x2="0" y2="818" gradientUnits="userSpaceOnUse">
      <stop offset="0%" stop-color="#FFFFFF"/>
      <stop offset="62%" stop-color="#FFFFFF" stop-opacity="0.88"/>
      <stop offset="86%" stop-color="#FFFFFF" stop-opacity="0.30"/>
      <stop offset="100%" stop-color="#FFFFFF" stop-opacity="0"/>
    </linearGradient>
    <mask id="gridMask">
      <rect x="0" y="0" width="1200" height="900" fill="url(#gridFade)"/>
    </mask>

    <linearGradient id="brandH" x1="80" y1="0" x2="1120" y2="0" gradientUnits="userSpaceOnUse">
      <stop offset="0%" stop-color="#00D4FF" stop-opacity="0"/>
      <stop offset="16%" stop-color="#00D4FF" stop-opacity="0.74"/>
      <stop offset="50%" stop-color="#7C3AED" stop-opacity="0.66"/>
      <stop offset="84%" stop-color="#DC2626" stop-opacity="0.46"/>
      <stop offset="100%" stop-color="#DC2626" stop-opacity="0"/>
    </linearGradient>
    <linearGradient id="brandV" x1="0" y1="40" x2="0" y2="814" gradientUnits="userSpaceOnUse">
      <stop offset="0%" stop-color="#00D4FF" stop-opacity="0.82"/>
      <stop offset="42%" stop-color="#7C3AED" stop-opacity="0.58"/>
      <stop offset="76%" stop-color="#DC2626" stop-opacity="0.30"/>
      <stop offset="100%" stop-color="#DC2626" stop-opacity="0"/>
    </linearGradient>

    <linearGradient id="serverStroke" x1="708" y1="384" x2="1164" y2="874" gradientUnits="userSpaceOnUse">
      <stop offset="0%" stop-color="#00D4FF"/>
      <stop offset="54%" stop-color="#7C3AED"/>
      <stop offset="100%" stop-color="#DC2626"/>
    </linearGradient>
    <linearGradient id="serverFill" x1="724" y1="392" x2="1130" y2="852" gradientUnits="userSpaceOnUse">
      <stop offset="0%" stop-color="#101C31" stop-opacity="0.92"/>
      <stop offset="100%" stop-color="#0A1322" stop-opacity="0.78"/>
    </linearGradient>
    <radialGradient id="serverHalo" cx="0" cy="0" r="1" gradientUnits="userSpaceOnUse" gradientTransform="translate(986 716) rotate(90) scale(260 248)">
      <stop offset="0%" stop-color="#00D4FF" stop-opacity="0.18"/>
      <stop offset="48%" stop-color="#7C3AED" stop-opacity="0.14"/>
      <stop offset="100%" stop-color="#DC2626" stop-opacity="0"/>
    </radialGradient>
    <linearGradient id="serverMaskFill" x1="778" y1="436" x2="1158" y2="900" gradientUnits="userSpaceOnUse">
      <stop offset="0%" stop-color="white" stop-opacity="0.96"/>
      <stop offset="64%" stop-color="white" stop-opacity="0.90"/>
      <stop offset="100%" stop-color="white" stop-opacity="0.28"/>
    </linearGradient>
    <mask id="serverMask">
      <rect x="0" y="0" width="1200" height="900" fill="black"/>
      <rect x="700" y="352" width="500" height="548" rx="48" fill="url(#serverMaskFill)"/>
    </mask>

    <filter id="softShadow" x="666" y="334" width="584" height="614" filterUnits="userSpaceOnUse" color-interpolation-filters="sRGB">
      <feDropShadow dx="0" dy="36" stdDeviation="42" flood-color="#000000" flood-opacity="0.42"/>
    </filter>
  </defs>

  <rect width="1200" height="900" rx="40" fill="url(#bg)"/>
  <rect width="1200" height="900" rx="40" fill="url(#cyanGlow)"/>
  <rect width="1200" height="900" rx="40" fill="url(#violetGlow)"/>
  <rect width="1200" height="900" rx="40" fill="url(#redGlow)"/>

  <g mask="url(#gridMask)">
    <rect width="1200" height="900" rx="40" fill="url(#majorGrid)" opacity="0.94"/>
    <rect width="1200" height="900" rx="40" fill="url(#minorGrid)" opacity="0.86"/>

    <g opacity="0.92">
      <path d="M80 108H1120" stroke="url(#brandH)" stroke-width="1.6"/>
      <path d="M80 172H1120" stroke="url(#brandH)" stroke-width="1.6"/>
      <path d="M80 236H1120" stroke="url(#brandH)" stroke-width="1.6"/>
      <path d="M80 300H1120" stroke="url(#brandH)" stroke-width="1.9"/>
      <path d="M80 364H1120" stroke="url(#brandH)" stroke-width="1.6"/>
      <path d="M80 428H1120" stroke="url(#brandH)" stroke-width="1.6"/>
      <path d="M80 492H1120" stroke="url(#brandH)" stroke-width="1.6"/>
    </g>

    <g opacity="0.9">
      <path d="M190 40V812" stroke="url(#brandV)" stroke-width="1.6"/>
      <path d="M350 40V812" stroke="url(#brandV)" stroke-width="1.6"/>
      <path d="M510 40V812" stroke="url(#brandV)" stroke-width="1.6"/>
      <path d="M670 40V812" stroke="url(#brandV)" stroke-width="2"/>
      <path d="M830 40V812" stroke="url(#brandV)" stroke-width="1.6"/>
      <path d="M990 40V812" stroke="url(#brandV)" stroke-width="1.6"/>
    </g>

    <g opacity="0.46">
      <circle cx="350" cy="236" r="5.5" fill="#00D4FF"/>
      <circle cx="510" cy="300" r="5.5" fill="#7C3AED"/>
      <circle cx="670" cy="172" r="5.5" fill="#7C3AED"/>
      <circle cx="830" cy="364" r="5.5" fill="#DC2626"/>
      <circle cx="190" cy="428" r="5.5" fill="#00D4FF"/>
      <circle cx="990" cy="236" r="5.5" fill="#DC2626"/>
    </g>
  </g>

  <ellipse cx="986" cy="716" rx="246" ry="236" fill="url(#serverHalo)"/>

  <g filter="url(#softShadow)" mask="url(#serverMask)">
    <g transform="translate(744 392)">
      <rect x="64" y="20" width="402" height="522" rx="50" fill="url(#serverFill)" stroke="url(#serverStroke)" stroke-width="3.2"/>
      <rect x="18" y="0" width="402" height="522" rx="50" fill="url(#serverFill)" stroke="url(#serverStroke)" stroke-width="3.2"/>

      <rect x="58" y="84" width="322" height="104" rx="28" fill="#0D1729" fill-opacity="0.86" stroke="url(#serverStroke)" stroke-opacity="0.76" stroke-width="2.2"/>
      <rect x="58" y="220" width="322" height="104" rx="28" fill="#0B1526" fill-opacity="0.82" stroke="url(#serverStroke)" stroke-opacity="0.72" stroke-width="2.2"/>
      <rect x="58" y="356" width="322" height="104" rx="28" fill="#091320" fill-opacity="0.78" stroke="url(#serverStroke)" stroke-opacity="0.70" stroke-width="2.2"/>

      <path d="M108 136H290" stroke="#00D4FF" stroke-opacity="0.92" stroke-width="6" stroke-linecap="round"/>
      <path d="M108 272H300" stroke="#7C3AED" stroke-opacity="0.88" stroke-width="6" stroke-linecap="round"/>
      <path d="M108 408H280" stroke="#DC2626" stroke-opacity="0.82" stroke-width="6" stroke-linecap="round"/>

      <circle cx="330" cy="136" r="10" fill="#00D4FF" fill-opacity="0.82"/>
      <circle cx="356" cy="136" r="10" fill="#7C3AED" fill-opacity="0.68"/>
      <circle cx="382" cy="136" r="10" fill="#DC2626" fill-opacity="0.56"/>

      <circle cx="330" cy="272" r="10" fill="#00D4FF" fill-opacity="0.60"/>
      <circle cx="356" cy="272" r="10" fill="#7C3AED" fill-opacity="0.84"/>
      <circle cx="382" cy="272" r="10" fill="#DC2626" fill-opacity="0.56"/>

      <circle cx="330" cy="408" r="10" fill="#00D4FF" fill-opacity="0.48"/>
      <circle cx="356" cy="408" r="10" fill="#7C3AED" fill-opacity="0.66"/>
      <circle cx="382" cy="408" r="10" fill="#DC2626" fill-opacity="0.88"/>

      <path d="M34 512H284" stroke="url(#serverStroke)" stroke-opacity="0.46" stroke-width="2.4" stroke-linecap="round"/>
      <path d="M74 548H296" stroke="url(#serverStroke)" stroke-opacity="0.28" stroke-width="2.4" stroke-linecap="round"/>
    </g>
  </g>

  <rect x="14" y="14" width="1172" height="872" rx="28" stroke="#1A2235" stroke-width="1.5"/>
</svg>
