<svg xmlns="http://www.w3.org/2000/svg" viewBox="0 0 290 80" width="290" height="80">
  <defs>
    <linearGradient id="brandGrad" x1="40" y1="9" x2="40" y2="68" gradientUnits="userSpaceOnUse">
      <stop offset="0%" stop-color="#00d4ff"/>
      <stop offset="35%" stop-color="#7c3aed"/>
      <stop offset="100%" stop-color="#dc2626"/>
    </linearGradient>
    <filter id="leafGlow" x="-50%" y="-50%" width="200%" height="200%">
      <feGaussianBlur stdDeviation="2"/>
    </filter>
    <linearGradient id="textAccent" x1="68" y1="20" x2="90" y2="53" gradientUnits="userSpaceOnUse">
      <stop offset="0%" stop-color="#00d4ff"/>
      <stop offset="100%" stop-color="#7c3aed"/>
    </linearGradient>
  </defs>
  <!-- Leaf glow -->
  <path d="M40.8,26.2 L45.6,27.0 L44.9,25.3 L45.1,24.9 L50.2,20.7 L49.0,20.2 L48.8,19.8 L49.9,16.6 L46.9,17.2 L46.5,17.0 L45.9,15.7 L43.6,18.2 L43.0,17.9 L44.1,12.1 L42.3,13.2 L41.8,13.0 L40.0,9.4 L38.2,13.0 L37.7,13.2 L35.9,12.1 L37.0,17.9 L36.4,18.2 L34.1,15.7 L33.5,17.0 L33.1,17.2 L30.1,16.6 L31.2,19.8 L31.0,20.2 L29.8,20.7 L34.9,24.9 L35.1,25.3 L34.4,27.0 L39.2,26.2 Z" fill="#00d4ff" opacity="0.35" filter="url(#leafGlow)"/>
  <!-- Maple leaf -->
  <path d="M40.8,26.2 L45.6,27.0 L44.9,25.3 L45.1,24.9 L50.2,20.7 L49.0,20.2 L48.8,19.8 L49.9,16.6 L46.9,17.2 L46.5,17.0 L45.9,15.7 L43.6,18.2 L43.0,17.9 L44.1,12.1 L42.3,13.2 L41.8,13.0 L40.0,9.4 L38.2,13.0 L37.7,13.2 L35.9,12.1 L37.0,17.9 L36.4,18.2 L34.1,15.7 L33.5,17.0 L33.1,17.2 L30.1,16.6 L31.2,19.8 L31.0,20.2 L29.8,20.7 L34.9,24.9 L35.1,25.3 L34.4,27.0 L39.2,26.2 Z" fill="url(#brandGrad)"/>
  <!-- X letterform -->
  <path d="M23.4,28.5 L31.0,28.5 L40.0,42.6 L49.0,28.5 L56.6,28.5 L43.8,47.7 L56.6,67.5 L49.0,67.5 L40.0,52.8 L31.0,67.5 L23.4,67.5 L36.2,47.7 Z" fill="url(#brandGrad)"/>
  <!-- Wordmark -->
  <text x="68" y="53" font-family="system-ui, -apple-system, sans-serif" font-size="36" font-weight="700" letter-spacing="-1">
    <tspan fill="url(#textAccent)">X</tspan><tspan fill="#0a0e1a">celsior</tspan>
  </text>
</svg>
