<svg xmlns="http://www.w3.org/2000/svg" viewBox="0 0 480 360" fill="none">
  <defs>
    <linearGradient id="brand" x1="0%" y1="0%" x2="100%" y2="100%">
      <stop offset="0%" stop-color="#22e0ff"/><stop offset="48%" stop-color="#7c3aed"/><stop offset="100%" stop-color="#f43f5e"/>
    </linearGradient>
    <linearGradient id="emerald" x1="0" y1="0" x2="1" y2="0">
      <stop offset="0%" stop-color="#34d399"/><stop offset="100%" stop-color="#10b981"/></linearGradient>
    <linearGradient id="gold" x1="0" y1="0" x2="0" y2="1">
      <stop offset="0%" stop-color="#fde68a"/><stop offset="100%" stop-color="#d4a233"/></linearGradient>
    <radialGradient id="core" cx="50%" cy="40%" r="62%">
      <stop offset="0%" stop-color="#5eeaff"/><stop offset="42%" stop-color="#2a8cff"/><stop offset="100%" stop-color="#0b1b3a"/></radialGradient>
    <linearGradient id="glassHi" x1="0" y1="0" x2="0" y2="1">
      <stop offset="0%" stop-color="#ffffff" stop-opacity="0.14"/><stop offset="40%" stop-color="#ffffff" stop-opacity="0.03"/><stop offset="100%" stop-color="#ffffff" stop-opacity="0"/></linearGradient>
    <linearGradient id="panel" x1="0" y1="0" x2="0" y2="1"><stop offset="0%" stop-color="#16233c"/><stop offset="100%" stop-color="#0b1322"/></linearGradient><filter id="depth" x="-60%" y="-60%" width="220%" height="220%"><feGaussianBlur stdDeviation="3" result="b"/><feMerge><feMergeNode in="b"/><feMergeNode in="SourceGraphic"/></feMerge></filter><filter id="bloom" x="-120%" y="-120%" width="340%" height="340%"><feGaussianBlur stdDeviation="20"/></filter>
    <!--detail:#7cf2ff--></defs>
  <circle cx="120" cy="100" r="100" fill="#22e0ff" filter="url(#bloom)" opacity="0.12"/>
  <circle cx="380" cy="280" r="90" fill="#34d399" filter="url(#bloom)" opacity="0.1"/>
  <!-- server tower -->
  <g filter="url(#depth)">
    <rect x="70" y="70" width="150" height="220" rx="16" fill="url(#panel)" stroke="url(#brand)" stroke-width="2"/>
    <rect x="70" y="70" width="150" height="220" rx="16" fill="url(#glassHi)"/>
    <g>
      <rect x="90" y="94" width="110" height="40" rx="8" fill="#0c1526" stroke="#26405f"/>
      <rect x="90" y="146" width="110" height="40" rx="8" fill="#0c1526" stroke="#26405f"/>
      <rect x="90" y="198" width="110" height="40" rx="8" fill="#0c1526" stroke="#26405f"/>
      <circle cx="106" cy="114" r="4.5" fill="#34d399"/><circle cx="106" cy="166" r="4.5" fill="#34d399"/><circle cx="106" cy="218" r="4.5" fill="#22e0ff"/>
      <g stroke="url(#brand)" stroke-width="2.5" stroke-linecap="round" opacity="0.7"><path d="M124,114 H190 M124,166 H190 M124,218 H178"/></g>
    </g>
  </g>
  <!-- network fabric to a node -->
  <g stroke="url(#brand)" stroke-width="2" fill="none" opacity="0.55" stroke-linecap="round">
    <path d="M220,150 H300 V210 H360"/>
    <path d="M220,210 H264 V120 H320"/>
  </g>
  <circle cx="300" cy="150" r="4" fill="#7c3aed"/><circle cx="264" cy="210" r="4" fill="#22e0ff"/>
  <g filter="url(#depth)" transform="translate(360,210)">
    <rect x="-34" y="-30" width="68" height="60" rx="12" fill="url(#panel)" stroke="url(#brand)" stroke-width="1.75"/>
    <rect x="-34" y="-30" width="68" height="60" rx="12" fill="url(#glassHi)"/>
    <rect x="-20" y="-16" width="40" height="32" rx="6" fill="url(#core)" opacity="0.7"/>
    <g stroke="#0a1322" stroke-opacity="0.4" stroke-width="1"><path d="M-7,-16 V16 M7,-16 V16 M-20,0 H20"/></g>
  </g>
</svg>
