<svg xmlns="http://www.w3.org/2000/svg" viewBox="0 0 480 280" fill="none">
  <defs>
    <linearGradient id="g" x1="0%" y1="0%" x2="100%" y2="100%">
      <stop offset="0%" stop-color="#00d4ff"/>
      <stop offset="50%" stop-color="#7c3aed"/>
      <stop offset="100%" stop-color="#dc2626"/>
    </linearGradient>
    <linearGradient id="gSoft" x1="0%" y1="100%" x2="100%" y2="0%">
      <stop offset="0%" stop-color="#00d4ff" stop-opacity="0.15"/>
      <stop offset="100%" stop-color="#7c3aed" stop-opacity="0.08"/>
    </linearGradient>
    <filter id="glow" x="-40%" y="-40%" width="180%" height="180%">
      <feGaussianBlur stdDeviation="8" result="b"/>
      <feMerge><feMergeNode in="b"/><feMergeNode in="SourceGraphic"/></feMerge>
    </filter>
</defs>
  <rect width="480" height="280" rx="24" fill="#0a0e1a"/>
  <rect width="480" height="280" rx="24" fill="url(#gSoft)"/>
  
  <g transform="translate(160,28) scale(0.42)">
    <rect width="200" height="200" rx="40" fill="#0a0e1a"/>
    <path d="M102.6,56.9 L117.4,59.5 L115.4,54.0 L115.8,52.8 L131.8,39.8 L128.1,38.1 L127.6,36.8 L130.8,27.0 L121.5,28.9 L120.2,28.2 L118.5,24.0 L111.2,31.8 L109.4,30.9 L112.8,12.9 L107.2,16.1 L105.6,15.6 L100.0,4.5 L94.4,15.6 L92.8,16.1 L87.2,12.9 L90.6,30.9 L88.8,31.8 L81.5,24.0 L79.8,28.2 L78.5,28.9 L69.2,27.0 L72.4,36.8 L71.9,38.1 L68.2,39.8 L84.2,52.8 L84.6,54.0 L82.6,59.5 L97.4,56.9 Z" fill="url(#g)" opacity="0.9"/>
    <path d="M48,64 L72,64 L100,108 L128,64 L152,64 L112,124 L152,186 L128,186 L100,140 L72,186 L48,186 L88,124 Z" fill="url(#g)"/>
  </g>

  <g transform="translate(48,100)">
    <rect x="0" y="0" width="120" height="72" rx="14" stroke="#00d4ff" stroke-opacity="0.35" fill="#00d4ff" fill-opacity="0.06"/>
    <text x="60" y="32" text-anchor="middle" fill="#00d4ff" font-size="11" font-family="system-ui">Launch</text>
    <text x="60" y="50" text-anchor="middle" fill="#cbd5e1" font-size="10" font-family="system-ui">Instances</text>
    <rect x="136" y="0" width="120" height="72" rx="14" stroke="#7c3aed" stroke-opacity="0.35" fill="#7c3aed" fill-opacity="0.06"/>
    <text x="196" y="32" text-anchor="middle" fill="#a78bfa" font-size="11" font-family="system-ui">Register</text>
    <text x="196" y="50" text-anchor="middle" fill="#cbd5e1" font-size="10" font-family="system-ui">Hosts</text>
    <rect x="272" y="0" width="120" height="72" rx="14" stroke="#10b981" stroke-opacity="0.35" fill="#10b981" fill-opacity="0.06"/>
    <text x="332" y="32" text-anchor="middle" fill="#34d399" font-size="11" font-family="system-ui">Billing</text>
    <text x="332" y="50" text-anchor="middle" fill="#cbd5e1" font-size="10" font-family="system-ui">Wallet</text>
  </g>
  <path d="M60,200 H420" stroke="#334155" stroke-width="1"/>
  <text x="240" y="232" text-anchor="middle" fill="#94a3b8" font-size="12" font-family="system-ui">Ask in plain English — Xcel executes across the dashboard</text>
</svg>
